SplineFontDB: 3.0
FontName: Pomorsky
FullName: Pomorsky Unicode
FamilyName: Pomorsky
Weight: Medium
Copyright: Created by Nikita Simmons, 1999. Revised and re-encoded for Unicode, 2015.
Version: 001.000
ItalicAngle: 0
UnderlinePosition: -113
UnderlineWidth: 20
Ascent: 800
Descent: 200
sfntRevision: 0x00010000
LayerCount: 3
Layer: 0 0 "Back"  1
Layer: 1 0 "Fore"  0
Layer: 2 1 "TTFLayer"  0
XUID: [1021 275 2047955494 4269330]
UniqueID: 4247862
FSType: 0
OS2Version: 2
OS2_WeightWidthSlopeOnly: 0
OS2_UseTypoMetrics: 1
CreationTime: 1304750996
ModificationTime: 1438547798
PfmFamily: 17
TTFWeight: 500
TTFWidth: 5
LineGap: 35
VLineGap: 0
Panose: 4 0 6 6 6 0 0 2 0 4
OS2TypoAscent: 0
OS2TypoAOffset: 1
OS2TypoDescent: 0
OS2TypoDOffset: 1
OS2TypoLinegap: 35
OS2WinAscent: 0
OS2WinAOffset: 1
OS2WinDescent: 0
OS2WinDOffset: 1
HheadAscent: 0
HheadAOffset: 1
HheadDescent: 0
HheadDOffset: 1
OS2SubXSize: 700
OS2SubYSize: 650
OS2SubXOff: 0
OS2SubYOff: 140
OS2SupXSize: 700
OS2SupYSize: 650
OS2SupXOff: 0
OS2SupYOff: 477
OS2StrikeYSize: 50
OS2StrikeYPos: 250
OS2Vendor: 'pyrs'
OS2CodePages: 00000001.00000000
OS2UnicodeRanges: 00000001.00000000.00000000.00000000
Lookup: 4 0 0 "'ccmp' Canonical Compositions"  {"'ccmp' Canonical Compositions-1"  } ['ccmp' ('DFLT' <'dflt' > 'cyrl' <'dflt' > 'latn' <'dflt' > ) ]
Lookup: 4 0 0 "'ccmp' Precomposed Glyphs for Cyrillic"  {"'ccmp' Precomposed Glyphs for Cyrillic-1"  } ['ccmp' ('DFLT' <'dflt' > 'cyrl' <'dflt' > 'latn' <'dflt' > ) ]
Lookup: 1 0 0 "'ss01' Style Set Simple Forms"  {"'ss01' Style Set Simple Forms-1" ("simple" ) } ['ss01' ('DFLT' <'dflt' > 'cyrl' <'dflt' > 'latn' <'dflt' > ) ]
Lookup: 1 0 0 "'salt' Stylistic Alternatives for Cyrillic"  {"'salt' Stylistic Alternatives for Cyrillic-1" ("alt3" ) } ['salt' ('DFLT' <'dflt' > 'cyrl' <'dflt' > 'latn' <'dflt' > ) ]
Lookup: 260 0 0 "'mark' Diacritical Mark Positioning"  {"'mark' Diacritical Mark Positioning-1"  } ['mark' ('DFLT' <'dflt' > 'cyrl' <'dflt' > 'latn' <'dflt' > ) ]

StartChar: .notdef
Encoding: 1114112 -1 0
Width: 427
Flags: W
HStem: 0 19<29 398> 748 22<29 398>
VStem: 0 22<34 733> 405 22<34 733>
DStem2: 29 748 22 733 0.465951 -0.884811<10.0105 395.419 421.078 806.952> 22 34 29 19 0.465951 0.884811<0 385.408 411.068 796.942>
LayerCount: 3
Fore
SplineSet
0 770 m 1
 427 770 l 1
 427 0 l 1
 0 0 l 1
 0 770 l 1
29 748 m 1
 213 398 l 1
 398 748 l 1
 29 748 l 1
398 19 m 1
 213 369 l 1
 29 19 l 1
 398 19 l 1
221 383 m 1
 405 34 l 1
 405 733 l 1
 221 383 l 1
22 733 m 1
 22 34 l 1
 206 383 l 1
 22 733 l 1
EndSplineSet
Validated: 1
Layer: 2
SplineSet
0 770 m 1,0,-1
 427 770 l 1,1,-1
 427 0 l 1,2,-1
 0 0 l 1,3,-1
 0 770 l 1,0,-1
29 748 m 1,4,-1
 213 398 l 1,5,-1
 398 748 l 1,6,-1
 29 748 l 1,4,-1
398 19 m 1,7,-1
 213 369 l 1,8,-1
 29 19 l 1,9,-1
 398 19 l 1,7,-1
221 383 m 1,10,-1
 405 34 l 1,11,-1
 405 733 l 1,12,-1
 221 383 l 1,10,-1
22 733 m 1,13,-1
 22 34 l 1,14,-1
 206 383 l 1,15,-1
 22 733 l 1,13,-1
EndSplineSet
Colour: ff00
EndChar

StartChar: comma
Encoding: 44 44 1
Width: 250
Flags: W
HStem: 0 6<150 166.349 186 201> 72 13<124.201 167.809>
VStem: 176 26<11.3648 68.5934>
LayerCount: 3
Fore
SplineSet
49 4 m 1
 48 5 48 6 48 8 c 0
 48 27 98 85 159 85 c 0
 192 85 202 70 202 53 c 0
 202 31 186 6 186 6 c 1
 201 6 l 1
 201 0 l 1
 150 0 l 1
 150 6 l 1
 165 6 l 1
 165 6 176 27 176 45 c 0
 176 59 169 72 147 72 c 0
 100 72 49 4 49 4 c 1
EndSplineSet
Validated: 1
Layer: 2
SplineSet
49 4 m 5,0,1
 43 10 43 10 56.5 29.5 c 128,-1,2
 70 49 70 49 99.5 67 c 128,-1,3
 129 85 129 85 159 85 c 0,4,5
 193 85 193 85 199.5 65.5 c 128,-1,6
 206 46 206 46 196 26 c 2,7,-1
 186 6 l 1,8,-1
 201 6 l 1,9,-1
 201 0 l 1,10,-1
 150 0 l 1,11,-1
 150 6 l 1,12,-1
 165 6 l 1,13,14
 166 9 166 9 168 13.5 c 128,-1,15
 170 18 170 18 173 29 c 128,-1,16
 176 40 176 40 175.5 49 c 128,-1,17
 175 58 175 58 168 65 c 128,-1,18
 161 72 161 72 147 72 c 0,19,20
 126 72 126 72 101.5 55 c 128,-1,21
 77 38 77 38 63 21 c 2,22,-1
 49 4 l 5,0,1
EndSplineSet
Colour: ff00
EndChar

StartChar: hyphen
Encoding: 45 45 2
Width: 400
Flags: W
HStem: 224 16<71.1645 133.859> 230 47<314.138 353.993> 279 48<41.0073 80.785> 316 16<260.625 323.836>
VStem: 22 19<262.067 286> 354 19<270 293.459>
LayerCount: 3
Fore
SplineSet
286 332 m 0x9c
 329 332 373 306 373 270 c 0
 373 245 357 230 340 230 c 0
 326 230 314 238 314 252 c 0
 314 270 326 277 333 277 c 0
 344 277 354 270 354 270 c 1
 354 271 354 273 354 274 c 0
 354 297 319 316 290 316 c 0x5c
 282 316 275 314 269 312 c 0
 208 289 171 224 109 224 c 0
 66 224 22 250 22 287 c 0
 22 312 38 327 55 327 c 0
 69 327 81 318 81 305 c 0
 81 286 69 279 61 279 c 0xac
 51 279 41 286 41 286 c 1
 41 285 41 283 41 282 c 0
 41 259 76 240 105 240 c 0
 113 240 120 242 126 244 c 0
 183 265 223 332 286 332 c 0x9c
EndSplineSet
Validated: 1
Layer: 2
SplineSet
305 330 m 128,-1,1
 338 323 338 323 358.5 304 c 128,-1,2
 379 285 379 285 371 256 c 0,3,4
 364.241 229.64 364.241 229.64 339.04 230.02 c 0,5,6
 317.872 230.339 317.872 230.339 314.132 247.558 c 0,7,8
 313.261 251.568 313.261 251.568 314 256 c 0,9,10
 317 273 317 273 327 276.5 c 128,-1,11
 337 280 337 280 345.5 275 c 2,12,-1
 354 270 l 1,13,14
 358 293 358 293 326 307.5 c 128,-1,15
 294 322 294 322 269 312 c 0,16,17
 244 303 244 303 212 276.5 c 128,-1,18
 180 250 180 250 151.5 234.5 c 128,-1,19
 123 219 123 219 90 226 c 128,-1,20
 57 233 57 233 36.5 252.5 c 128,-1,21
 16 272 16 272 24 301 c 0,22,23
 31.677 329.614 31.677 329.614 57.7877 327.321 c 0,24,25
 77.7302 325.569 77.7302 325.569 80.9671 308.9 c 0,26,27
 81.706 305.095 81.706 305.095 81 301 c 0,28,29
 78 284 78 284 68 280 c 128,-1,30
 58 276 58 276 49.5 281 c 2,31,-1
 41 286 l 1,32,33
 37 263 37 263 69 248.5 c 128,-1,34
 101 234 101 234 126 244 c 1,35,36
 149 252 149 252 180.5 278.5 c 128,-1,37
 212 305 212 305 242 321 c 128,-1,0
 272 337 272 337 305 330 c 128,-1,1
EndSplineSet
Colour: ff00
EndChar

StartChar: period
Encoding: 46 46 3
Width: 250
Flags: W
HStem: 0 85<88.1667 161.833>
VStem: 82 86<5.89343 78.8333>
LayerCount: 3
Fore
SplineSet
82 42 m 0
 82 66 103 85 125 85 c 0
 149 85 168 64 168 42 c 0
 168 18 147 0 125 0 c 0
 101 0 82 20 82 42 c 0
EndSplineSet
Validated: 1
Layer: 2
SplineSet
92 69 m 128,-1,1
 103 83 103 83 120.5 84.5 c 128,-1,2
 138 86 138 86 152 75 c 128,-1,3
 166 64 166 64 167.5 46.5 c 128,-1,4
 169 29 169 29 158 15 c 128,-1,5
 147 1 147 1 129.5 -0.5 c 128,-1,6
 112 -2 112 -2 98 9 c 128,-1,7
 84 20 84 20 82.5 37.5 c 128,-1,0
 81 55 81 55 92 69 c 128,-1,1
EndSplineSet
Colour: ff00
EndChar

StartChar: colon
Encoding: 58 58 4
Width: 250
Flags: W
HStem: -1 86<88.1667 161.833> 161 86<88.1667 161.833>
VStem: 82 86<5.16669 78.8333 167.167 240.833>
LayerCount: 3
Fore
SplineSet
82 204 m 0
 82 228 103 247 125 247 c 0
 149 247 168 226 168 204 c 0
 168 180 147 161 125 161 c 0
 101 161 82 182 82 204 c 0
82 42 m 0
 82 66 103 85 125 85 c 0
 149 85 168 64 168 42 c 0
 168 18 147 -1 125 -1 c 0
 101 -1 82 20 82 42 c 0
EndSplineSet
Validated: 1
Layer: 2
SplineSet
92 231 m 128,-1,1
 103 245 103 245 120.5 246.5 c 128,-1,2
 138 248 138 248 152 237 c 128,-1,3
 166 226 166 226 167.5 208.5 c 128,-1,4
 169 191 169 191 158 177 c 128,-1,5
 147 163 147 163 129.5 161.5 c 128,-1,6
 112 160 112 160 98 171 c 128,-1,7
 84 182 84 182 82.5 199.5 c 128,-1,0
 81 217 81 217 92 231 c 128,-1,1
92 69 m 128,-1,9
 103 83 103 83 120.5 84.5 c 128,-1,10
 138 86 138 86 152 75 c 128,-1,11
 166 64 166 64 167.5 46.5 c 128,-1,12
 169 29 169 29 158 15 c 128,-1,13
 147 1 147 1 129.5 -0.5 c 128,-1,14
 112 -2 112 -2 98 9 c 128,-1,15
 84 20 84 20 82.5 37.5 c 128,-1,8
 81 55 81 55 92 69 c 128,-1,9
EndSplineSet
Colour: ff00
EndChar

StartChar: semicolon
Encoding: 59 59 5
Width: 250
Flags: W
HStem: 0 6<150 166.349 186 201> 72 13<124.201 167.809> 161 86<98.3287 171.368>
VStem: 92 86<167.167 240.288> 176 26<11.3648 68.5934>
LayerCount: 3
Fore
SplineSet
49 4 m 1xe8
 48 5 48 6 48 8 c 0
 48 27 98 85 159 85 c 0
 192 85 202 70 202 53 c 0
 202 31 186 6 186 6 c 1
 201 6 l 1
 201 0 l 1
 150 0 l 1
 150 6 l 1
 165 6 l 1
 165 6 176 27 176 45 c 0
 176 59 169 72 147 72 c 0
 100 72 49 4 49 4 c 1xe8
136 247 m 0
 159 247 178 225 178 204 c 0
 178 180 157 161 135 161 c 0
 111 161 92 182 92 204 c 0xf0
 92 228 114 247 136 247 c 0
EndSplineSet
Validated: 1
Layer: 2
SplineSet
49 4 m 5,0,1
 43 10 43 10 56.5 29.5 c 128,-1,2
 70 49 70 49 99.5 67 c 128,-1,3
 129 85 129 85 159 85 c 0,4,5
 193 85 193 85 199.5 65.5 c 128,-1,6
 206 46 206 46 196 26 c 2,7,-1
 186 6 l 1,8,-1
 201 6 l 1,9,-1
 201 0 l 1,10,-1
 150 0 l 1,11,-1
 150 6 l 1,12,-1
 165 6 l 1,13,14
 166 9 166 9 168 13.5 c 128,-1,15
 170 18 170 18 173 29 c 128,-1,16
 176 40 176 40 175.5 49 c 128,-1,17
 175 58 175 58 168 65 c 128,-1,18
 161 72 161 72 147 72 c 0,19,20
 126 72 126 72 101.5 55 c 128,-1,21
 77 38 77 38 63 21 c 2,22,-1
 49 4 l 5,0,1
102 231 m 128,-1,24
 113 245 113 245 130.5 246.5 c 128,-1,25
 148 248 148 248 162 237 c 128,-1,26
 176 226 176 226 177.5 208.5 c 128,-1,27
 179 191 179 191 168 177 c 128,-1,28
 157 163 157 163 139.5 161.5 c 128,-1,29
 122 160 122 160 108 171 c 128,-1,30
 94 182 94 182 92.5 199.5 c 128,-1,23
 91 217 91 217 102 231 c 128,-1,24
EndSplineSet
Colour: ff00
EndChar

StartChar: question
Encoding: 63 63 6
Width: 250
Flags: W
HStem: 0 85<88.1667 161.833> 163 20<107.918 132> 528 20<116 140.551>
VStem: 63 20<213.891 290.302> 71 53<484.452 527.223> 82 86<5.89343 78.8333> 124 54<183.777 226.371> 165 19<422.647 496.4>
LayerCount: 3
Fore
SplineSet
115 548 m 0xe9
 155 548 184 501 184 454 c 0xe9
 184 384 109 340 86 276 c 0
 84 270 83 262 83 255 c 0
 83 222 103 183 128 183 c 0
 130 183 131 183 132 183 c 1
 132 183 124 194 124 205 c 0
 124 214 132 227 153 227 c 0
 169 227 178 213 178 199 c 0
 178 180 160 163 132 163 c 0
 93 163 63 210 63 257 c 0xf2
 63 325 135 366 162 435 c 0
 164 441 165 449 165 456 c 0
 165 489 145 528 120 528 c 0
 118 528 117 528 116 528 c 1
 116 528 124 517 124 505 c 0
 124 496 116 484 96 484 c 0
 80 484 71 497 71 512 c 0
 71 531 88 548 115 548 c 0xe9
168 42 m 0xe4
 168 18 147 0 125 0 c 0
 101 0 82 20 82 42 c 0
 82 66 103 85 125 85 c 0
 149 85 168 64 168 42 c 0xe4
EndSplineSet
Validated: 1
Layer: 2
SplineSet
182 474 m 0,0,1
 189 438 189 438 171 405 c 128,-1,2
 153 372 153 372 124 337 c 128,-1,3
 95 302 95 302 86 276 c 0,4,5
 76 249 76 249 92 214 c 128,-1,6
 108 179 108 179 132 183 c 1,7,8
 131 184 131 184 130.5 185 c 128,-1,9
 130 186 130 186 128 190 c 128,-1,10
 126 194 126 194 125 198 c 128,-1,11
 124 202 124 202 124.5 206.5 c 128,-1,12
 125 211 125 211 127 215 c 128,-1,13
 129 219 129 219 134.5 222.5 c 128,-1,14
 140 226 140 226 149 227 c 0,15,16
 170.802 230.303 170.802 230.303 177.192 207.581 c 0,17,18
 184.376 182.037 184.376 182.037 160.084 169.14 c 0,19,20
 155.09 166.489 155.09 166.489 149 165 c 0,21,22
 117 156 117 156 95.5 178 c 128,-1,23
 74 200 74 200 65 237 c 0,24,25
 59 265 59 265 69.5 292 c 128,-1,26
 80 319 80 319 96.5 338 c 128,-1,27
 113 357 113 357 133 384 c 128,-1,28
 153 411 153 411 162 435 c 0,29,30
 172 462 172 462 156 497 c 128,-1,31
 140 532 140 532 116 528 c 1,32,33
 117 527 117 527 117.5 526 c 128,-1,34
 118 525 118 525 120 521 c 128,-1,35
 122 517 122 517 123 513 c 128,-1,36
 124 509 124 509 124 504.5 c 128,-1,37
 124 500 124 500 122 496 c 128,-1,38
 120 492 120 492 114.5 488.5 c 128,-1,39
 109 485 109 485 100 484 c 0,40,41
 77.8038 480.736 77.8038 480.736 72.034 503.74 c 0,42,43
 65.5877 529.441 65.5877 529.441 89.2795 542.051 c 0,44,45
 94.137 544.636 94.137 544.636 100 546 c 0,46,47
 131 554 131 554 152.5 532 c 128,-1,48
 174 510 174 510 182 474 c 0,0,1
158 15 m 128,-1,50
 147 1 147 1 129.5 -0.5 c 128,-1,51
 112 -2 112 -2 98 9 c 128,-1,52
 84 20 84 20 82.5 37.5 c 128,-1,53
 81 55 81 55 92 69 c 128,-1,54
 103 83 103 83 120.5 84.5 c 128,-1,55
 138 86 138 86 152 75 c 128,-1,56
 166 64 166 64 167.5 46.5 c 128,-1,49
 169 29 169 29 158 15 c 128,-1,50
EndSplineSet
Colour: ff00
EndChar

StartChar: uni0470
Encoding: 1136 1136 9
Width: 580
Flags: W
HStem: -192 13<144.868 194.763> -154 47<131.006 169.852> 0 12<100 126 202 238 255 319 343 378> 462 48<514.215 556.993> 538 12<0 26 102 128 478.846 539.966> 599 47<353.148 391.994> 671 11<327.125 375.951>
VStem: 117 14<-166.856 -150> 238 64<101.4 403.525> 238 35<332.301 501.321> 238 17<-134.967 -71.4974 -44.7824 0 12 93 502 584.188> 392 14<393.534 421 642 658.872> 514 56<463.684 507.123> 557 13<502.08 523>
DStem2: 102 538 26 538 0.186769 -0.982404<0 521.227>
AnchorPoint: "Yerok" 512.5 584.6 basechar 0
AnchorPoint: "Diacritic" 266 698 basechar 0
LayerCount: 3
Fore
SplineSet
225 -58 m 0xff34
 225 -49 230 -42 238 -39 c 1
 238 0 l 1
 100 0 l 1
 100 12 l 1
 126 12 l 1
 26 538 l 1
 0 538 l 1
 0 550 l 1
 128 550 l 1
 128 538 l 1
 102 538 l 1
 202 12 l 1
 238 12 l 1
 238 545 l 2
 238 645 309 676 338 681 c 0
 343 682 349 682 354 682 c 0
 384 682 406 665 406 637 c 0
 406 612 392 599 378 599 c 0
 365 599 353 608 353 621 c 0
 353 640 366 646 375 646 c 0
 384 646 392 642 392 642 c 1
 392 665 366 671 353 671 c 0
 350 671 348 671 347 671 c 0
 294 662 255 628 255 502 c 1xff34
 256 502 258 523 273 536 c 0
 283 545 300 552 311 552 c 0
 314 552 316 551 318 550 c 0
 318 549 273 533 273 475 c 0xff50
 273 427 302 290 302 192 c 0xff90
 302 174 301 158 299 143 c 0
 292 97 268 93 259 93 c 2
 255 93 l 1
 255 12 l 1
 319 12 l 1
 388 434 l 2
 404 532 481 550 510 550 c 0
 546 550 570 532 570 504 c 0
 570 499 569 493 567 487 c 0
 561 469 550 462 540 462 c 0
 526 462 514 473 514 485 c 0xff38
 514 502 528 510 536 510 c 0
 547 510 557 502 557 502 c 1
 557 504 557 506 557 507 c 0
 557 530 527 539 518 539 c 0
 464 539 397 500 397 388 c 1
 398 388 404 409 421 419 c 0
 431 425 445 428 455 428 c 0
 459 428 468 427 468 425 c 0
 468 424 429 421 412 366 c 0
 407 351 407 323 407 289 c 0
 407 281 407 273 407 265 c 0
 407 204 406 131 387 76 c 0
 373 37 358 31 350 31 c 0
 348 31 346 32 346 32 c 1
 343 12 l 1
 378 12 l 1
 378 0 l 1
 255 0 l 1
 255 -40 l 1
 261 -43 266 -52 266 -59 c 0
 266 -68 261 -75 254 -78 c 1
 254 -161 228 -176 185 -189 c 0
 178 -191 172 -192 165 -192 c 0
 137 -192 117 -172 117 -145 c 0
 117 -120 131 -107 145 -107 c 0
 158 -107 170 -116 170 -129 c 0
 170 -148 157 -154 148 -154 c 0
 139 -154 131 -150 131 -150 c 1
 131 -173 157 -179 170 -179 c 0
 173 -179 175 -179 176 -179 c 0
 217 -169 237 -150 237 -77 c 1
 230 -74 225 -67 225 -58 c 0xff34
EndSplineSet
Validated: 1
Layer: 2
SplineSet
238 0 m 1,0,-1
 100 0 l 1,1,-1
 100 12 l 1,2,-1
 126 12 l 1,3,-1
 26 538 l 1,4,-1
 0 538 l 1,5,-1
 0 550 l 1,6,-1
 128 550 l 1,7,-1
 128 538 l 1,8,-1
 102 538 l 1,9,-1
 202 12 l 1,10,-1
 238 12 l 1,11,-1
 238 545 l 2,12,13
 238 610 238 610 271 642.5 c 128,-1,14
 304 675 304 675 338 681 c 0,15,16
 370 686 370 686 389.5 671.5 c 128,-1,17
 409 657 409 657 405 629 c 0,18,19
 401.159 598.912 401.159 598.912 377.865 598.727 c 0,20,21
 358.56 598.573 358.56 598.573 353.508 615.351 c 0,22,23
 352.108 620.003 352.108 620.003 353 625 c 0,24,25
 356 640 356 640 365.5 644.5 c 128,-1,26
 375 649 375 649 383.5 645.5 c 2,27,-1
 392 642 l 1,28,29
 393 660 393 660 376 666.5 c 128,-1,30
 359 673 359 673 347 671 c 0,31,32
 302 663 302 663 278.5 626.5 c 128,-1,33
 255 590 255 590 255 502 c 1,34,-1
 256.5 507.5 l 2,35,36
 258 513 258 513 262 521.5 c 128,-1,37
 266 530 266 530 273 536 c 0,38,39
 283 545 283 545 297.5 549.5 c 128,-1,40
 312 554 312 554 318 550 c 1,41,-1
 315 548.5 l 2,42,43
 312 547 312 547 305.5 543 c 128,-1,44
 299 539 299 539 292.5 532 c 128,-1,45
 286 525 286 525 280.5 512 c 128,-1,46
 275 499 275 499 273 483 c 0,47,48
 272 470 272 470 290 335 c 128,-1,49
 308 200 308 200 299 143 c 0,50,51
 295 118 295 118 284 105.5 c 128,-1,52
 273 93 273 93 264 93 c 2,53,-1
 255 93 l 1,54,-1
 255 12 l 1,55,-1
 319 12 l 1,56,-1
 388 434 l 2,57,58
 395 479 395 479 420.5 507 c 128,-1,59
 446 535 446 535 468.5 542.5 c 128,-1,60
 491 550 491 550 510 550 c 0,61,62
 543 550 543 550 559.5 532 c 128,-1,63
 576 514 576 514 567 487 c 0,64,65
 557.65 456.945 557.65 456.945 533.815 462.497 c 0,66,67
 515.179 466.837 515.179 466.837 513.917 483.909 c 0,68,69
 513.615 488 513.615 488 515 492 c 0,70,71
 518 501 518 501 523.5 505.5 c 128,-1,72
 529 510 529 510 535 510 c 128,-1,73
 541 510 541 510 546 508 c 128,-1,74
 551 506 551 506 554 504 c 2,75,-1
 557 502 l 1,76,77
 560 520 560 520 545 529.5 c 128,-1,78
 530 539 530 539 518 539 c 0,79,80
 472 539 472 539 438 502.5 c 128,-1,81
 404 466 404 466 397 388 c 1,82,-1
 399.5 393.5 l 2,83,84
 402 399 402 399 407.5 407 c 128,-1,85
 413 415 413 415 421 419 c 0,86,87
 432 426 432 426 447.5 428 c 128,-1,88
 463 430 463 430 468 425 c 1,89,-1
 464.5 424 l 2,90,91
 461 423 461 423 454 419.5 c 128,-1,92
 447 416 447 416 439.5 410.5 c 128,-1,93
 432 405 432 405 424.5 393.5 c 128,-1,94
 417 382 417 382 412 366 c 0,95,96
 408 353 408 353 407 242 c 128,-1,97
 406 131 406 131 387 76 c 0,98,99
 379 52 379 52 368.5 41 c 128,-1,100
 358 30 358 30 352 31 c 2,101,-1
 346 32 l 1,102,-1
 343 12 l 1,103,-1
 378 12 l 1,104,-1
 378 0 l 1,105,-1
 255 0 l 1,106,-1
 255 -40 l 1,107,108
 257 -41 257 -41 260 -44 c 0,109,110
 266 -50 266 -50 266.5 -59 c 128,-1,111
 267 -68 267 -68 260 -74 c 0,112,113
 258 -76 258 -76 254 -78 c 1,114,115
 254 -135 254 -135 238 -156.5 c 128,-1,116
 222 -178 222 -178 185 -189 c 0,117,118
 155 -198 155 -198 134.5 -182 c 128,-1,119
 114 -166 114 -166 118 -137 c 0,120,121
 121.841 -106.912 121.841 -106.912 145.135 -106.727 c 0,122,123
 164.44 -106.573 164.44 -106.573 169.492 -123.351 c 0,124,125
 170.892 -128.002 170.892 -128.002 170 -133 c 0,126,127
 167 -148 167 -148 157.5 -152.5 c 128,-1,128
 148 -157 148 -157 139.5 -153.5 c 2,129,-1
 131 -150 l 1,130,131
 130 -168 130 -168 147 -174.5 c 128,-1,132
 164 -181 164 -181 176 -179 c 0,133,134
 209 -171 209 -171 223 -150 c 128,-1,135
 237 -129 237 -129 237 -77 c 1,136,137
 233 -75 233 -75 230 -72 c 0,138,139
 225 -66 225 -66 225 -57 c 128,-1,140
 225 -48 225 -48 231 -43 c 0,141,142
 234 -40 234 -40 238 -39 c 1,143,-1
 238 0 l 1,0,-1
EndSplineSet
Substitution2: "'ss01' Style Set Simple Forms-1" uni0470.simple
Colour: ff00
EndChar

StartChar: uni0405.simple
Encoding: 62725 62725 10
Width: 480
GlyphClass: 2
Flags: W
HStem: -90 18<18.0634 38> -8 14<262.614 324.728> 57 27<98.6576 171.5> 427 12<342 368 444 470> 529 21<207.472 317.889>
VStem: -6 14<-59.7527 -12.4207> 36 43<-71.6383 -42.0073> 75 63<326.417 478.16> 368 76<439 499.364> 394 71<61.7044 209.614>
AnchorPoint: "Yerok" 415 572 basechar 0
AnchorPoint: "Diacritic" 259 575 basechar 0
LayerCount: 3
Fore
SplineSet
288 6 m 0xfe40
 359 6 394 70 394 131 c 0xfe40
 394 188 365 244 308 252 c 0
 244 261 233 250 164 277 c 0
 111 298 75 327 75 402 c 0
 75 409 75 419 76 427 c 0
 84 519 177 550 257 550 c 0
 423 550 444 481 444 439 c 1
 470 439 l 1
 470 427 l 1
 342 427 l 1
 342 439 l 1
 368 439 l 1
 368 499 329 529 257 529 c 0
 177 529 138 465 138 402 c 0xfd80
 138 373 146 343 163 322 c 0
 207 266 268 287 340 270 c 0
 403 255 465 218 465 141 c 0
 465 24 365 -8 288 -8 c 0
 245 -8 208 1 194 9 c 0
 153 32 147 57 124 57 c 0
 113 57 99 52 76 39 c 0
 50 25 40 -21 40 -21 c 1
 40 -21 36 -13 36 -3 c 0
 36 4 40 16 40 16 c 1
 40 16 23 2 14 -14 c 0
 10 -20 8 -28 8 -36 c 0
 8 -54 18 -72 38 -72 c 1
 38 -72 36 -67 36 -61 c 0
 36 -52 40 -42 58 -42 c 0
 71 -42 79 -48 79 -61 c 0
 79 -74 66 -90 43 -90 c 0
 17 -90 -6 -69 -6 -40 c 0
 -6 9 38 40 70 57 c 0
 100 73 128 84 155 84 c 0
 188 84 220 67 256 19 c 0
 264 9 275 6 288 6 c 0xfe40
EndSplineSet
Validated: 1
Layer: 2
SplineSet
163 322 m 128,-1,1
 183 297 183 297 209 288.5 c 128,-1,2
 235 280 235 280 276 277.5 c 128,-1,3
 317 275 317 275 340 270 c 0,4,5
 399 256 399 256 435 220.5 c 128,-1,6
 471 185 471 185 464 124 c 0,7,8
 457 67 457 67 419.5 34 c 128,-1,9
 382 1 382 1 336 -4 c 128,-1,10
 290 -9 290 -9 250.5 -5 c 128,-1,11
 211 -1 211 -1 194 9 c 128,-1,12
 177 19 177 19 161.5 33 c 128,-1,13
 146 47 146 47 139.5 52.5 c 128,-1,14
 133 58 133 58 117.5 56 c 128,-1,15
 102 54 102 54 76 39 c 0,16,17
 64 33 64 33 55 18 c 128,-1,18
 46 3 46 3 43 -9 c 2,19,-1
 40 -21 l 1,20,21
 36 -13 36 -13 36 -3 c 1,22,-1
 40 16 l 1,23,24
 23 2 23 2 14 -14 c 1,25,26
 4 -29 4 -29 11 -50.5 c 128,-1,27
 18 -72 18 -72 38 -72 c 1,28,29
 38 -71 38 -71 37 -68.5 c 128,-1,30
 36 -66 36 -66 36 -60 c 128,-1,31
 36 -54 36 -54 38.5 -50 c 128,-1,32
 41 -46 41 -46 47.5 -43.5 c 128,-1,33
 54 -41 54 -41 65 -42 c 0,34,35
 75 -43 75 -43 78.5 -53 c 128,-1,36
 82 -63 82 -63 75 -74.5 c 128,-1,37
 68 -86 68 -86 52 -89 c 0,38,39
 30 -94 30 -94 12 -79 c 128,-1,40
 -6 -64 -6 -64 -6 -40 c 0,41,42
 -6 17 -6 17 70 57 c 0,43,44
 109 77 109 77 135 82.5 c 128,-1,45
 161 88 161 88 193 74 c 128,-1,46
 225 60 225 60 256 19 c 0,47,48
 274 -5 274 -5 325 13 c 0,49,50
 373 31 373 31 389 86.5 c 128,-1,51
 405 142 405 142 382 193.5 c 128,-1,52
 359 245 359 245 308 252 c 0,53,54
 287 255 287 255 260.5 256 c 128,-1,55
 234 257 234 257 214.5 261 c 128,-1,56
 195 265 195 265 164 277 c 0,57,58
 116 296 116 296 93 329.5 c 128,-1,59
 70 363 70 363 76 427 c 0,60,61
 82 490 82 490 135 520 c 128,-1,62
 188 550 188 550 257 550 c 0,63,64
 444 550 444 550 444 439 c 1,65,-1
 470 439 l 1,66,-1
 470 427 l 1,67,-1
 342 427 l 1,68,-1
 342 439 l 1,69,-1
 368 439 l 1,70,71
 368 529 368 529 257 529 c 0,72,73
 215 529 215 529 185.5 506 c 128,-1,74
 156 483 156 483 145.5 450.5 c 128,-1,75
 135 418 135 418 139 382.5 c 128,-1,0
 143 347 143 347 163 322 c 128,-1,1
EndSplineSet
Colour: ff00
EndChar

StartChar: uni047E
Encoding: 1150 1150 11
Width: 900
Flags: W
HStem: -46 12<306.203 350.023 533.328 576.797> 0 14<212.864 275 608 671.136> 190 55<362.687 414.854 469.1 521.313> 321 13<289.02 301.981 580.02 592.981> 335 13<305.02 317.981 564.02 576.981> 355 13<305.02 317.981 564.02 576.981> 380 22<278.69 310.266 573.734 605.31> 535 15<225.637 296.794 587.206 658.207> 575 112<404 481> 675 12<321.809 404 481 554.191>
VStem: 4 88<158.423 387.681> 210 17<394.213 411.05> 234 18<276.973 300.161> 240 58<303.5 336.5 402.595 464.28> 263 12<244.237 307.734> 271 23<605.136 654.609> 289 13<321.02 333.981> 305 13<335.02 347.981 355.02 367.981> 329 46<410.421 519.824> 404 77<575 675> 441 4<-109 -67 352.154 402> 509 46<410.421 519.824> 564 13<335.02 347.981 355.02 367.981> 580 13<321.02 333.981> 582 22<604.071 654.609> 586 58<402.595 464.28> 609 12<244.237 307.734> 632 18<276.973 300.161> 657 17<394.213 411.05> 792 88<158.423 387.681>
DStem2: 361 31 351 25 0.749838 -0.661622<0 41.8145> 415 100 409 88 0.5547 -0.83205<6.6564 46.0401> 433 50 441 39 0.558274 0.829657<-59.7899 -4.66004 14.4221 15.3731> 488 3 498 -5 0.759257 0.650791<2.38624 45.4469>
AnchorPoint: "Yerok" 826.5 574.4 basechar 0
AnchorPoint: "Diacritic" 445 716 basechar 0
LayerCount: 3
Fore
SplineSet
299 595 m 0xff70e60c
 288 595 271 614 271 633 c 0
 271 645 277 652 277 652 c 1
 226 687 l 1
 650 687 l 1
 599 652 l 1
 599 652 604 645 604 633 c 0
 604 628 603 622 600 615 c 0
 594 601 583 595 577 595 c 0
 563 595 582 601 582 621 c 0
 582 653 567 675 521 675 c 2
 481 675 l 1xff71769c
 481 575 l 1
 404 575 l 1xffb1769c
 404 675 l 1
 355 675 l 2
 309 675 294 653 294 621 c 0xff71769c
 294 600 309 600 302 596 c 0
 301 596 300 595 299 595 c 0xff70e60c
591 346 m 0
 588 346 586 347 586 348 c 0
 586 356 628 362 647 391 c 0
 651 398 657 419 657 419 c 1
 657 419 674 411 674 393 c 0
 674 369 644 342 644 301 c 0xff30664c
 644 283 650 272 650 272 c 1
 650 272 637 275 632 284 c 0
 624 297 628 311 628 311 c 1
 628 311 621 295 621 274 c 0
 621 263 623 250 630 238 c 0
 642 216 669 213 669 208 c 0
 669 207 668 207 666 207 c 0
 656 207 624 216 615 243 c 0
 611 256 609 267 609 278 c 0xff30663c
 609 320 635 350 649 371 c 1
 657 380 658 387 658 387 c 1
 658 387 649 371 635 361 c 1
 616 350 598 346 591 346 c 0
298 348 m 0xff34660c
 298 347 296 346 293 346 c 0
 286 346 268 350 249 361 c 1
 235 371 226 387 226 387 c 1
 226 387 227 380 235 371 c 1
 249 350 275 320 275 278 c 0
 275 267 273 256 269 243 c 0
 260 216 228 207 218 207 c 0
 216 207 215 207 215 208 c 0
 215 213 242 216 254 238 c 0
 261 250 263 263 263 274 c 0
 263 295 256 311 256 311 c 1
 256 311 260 297 252 284 c 0
 247 275 234 272 234 272 c 1xff3a660c
 234 272 240 283 240 301 c 0
 240 342 210 369 210 393 c 0
 210 411 227 419 227 419 c 1
 227 419 233 398 237 391 c 0
 256 362 298 356 298 348 c 0xff34660c
351 25 m 1
 334 15 313 4 288 0 c 1
 295 -12 302 -34 322 -34 c 0
 345 -34 366 -22 385 -5 c 1
 351 25 l 1
646 426 m 0
 646 395 618 380 587 380 c 0
 546 380 509 408 509 448 c 0
 509 538 560 550 630 550 c 0
 782 550 880 426 880 274 c 0
 880 122 782 0 630 0 c 0
 622 0 615 -1 608 0 c 1
 608 -16 590 -46 564 -46 c 0
 537 -46 512 -33 489 -14 c 1
 468 -37 448 -67 448 -109 c 0
 448 -114 447 -129 442 -129 c 0
 437 -129 435 -115 435 -109 c 0
 435 -67 415 -36 394 -14 c 1
 372 -33 346 -46 319 -46 c 0
 293 -46 275 -15 275 0 c 1xff3aee9c
 268 0 261 0 254 0 c 0
 102 0 4 122 4 274 c 0
 4 426 102 550 254 550 c 0
 324 550 375 538 375 448 c 0
 375 408 338 380 297 380 c 0
 266 380 238 395 238 426 c 0
 238 449 254 466 271 466 c 0xff31660c
 289 466 303 456 303 438 c 0
 303 436 303 433 302 430 c 0
 297 402 278 402 278 402 c 1
 282 402 327 403 329 451 c 0
 329 453 329 456 329 458 c 0
 329 503 312 535 262 535 c 0
 173 535 92 420 92 274 c 0
 92 131 154 14 252 14 c 0
 401 14 415 143 431 191 c 1
 428 193 425 195 422 198 c 0
 418 202 417 206 415 210 c 1
 412 200 401 190 389 190 c 0
 374 190 362 203 362 218 c 0
 362 233 374 245 389 245 c 0
 404 245 411 235 416 224 c 1
 417 231 422 238 429 241 c 1
 441 402 l 1
 445 402 l 1
 458 240 l 1
 464 237 467 231 468 224 c 1
 470 235 483 244 495 244 c 0
 510 244 522 232 522 217 c 0
 522 202 510 190 495 190 c 0
 482 190 471 198 469 210 c 1
 468 203 461 195 453 192 c 1
 469 143 483 14 632 14 c 0
 730 14 792 131 792 274 c 0
 792 420 710 535 622 535 c 0
 572 535 555 503 555 458 c 0
 555 456 555 453 555 451 c 0
 557 403 602 402 606 402 c 1
 606 402 587 402 582 430 c 0xff38ee9c
 581 433 581 436 581 438 c 0
 581 456 595 466 613 466 c 0
 630 466 646 449 646 426 c 0
595 0 m 1
 571 5 550 15 533 25 c 1
 498 -5 l 1
 517 -22 539 -34 561 -34 c 0
 581 -34 588 -12 595 0 c 1
523 32 m 1
 500 50 487 68 474 91 c 1
 449 50 l 1
 460 34 473 18 488 3 c 1
 523 32 l 1
468 101 m 1
 453 133 446 167 442 188 c 1
 438 167 432 133 415 100 c 1
 441 62 l 1
 468 101 l 1
409 88 m 1
 397 65 385 48 361 31 c 1
 394 3 l 1
 409 18 423 35 433 50 c 1
 409 88 l 1
479 -6 m 1
 465 8 452 24 441 39 c 1
 431 23 418 7 403 -6 c 1
 419 -23 434 -47 441 -77 c 1
 448 -47 463 -23 479 -6 c 1
289 328 m 0
 289 331 292 334 296 334 c 0
 299 334 302 331 302 328 c 0
 302 324 299 321 296 321 c 0
 292 321 289 324 289 328 c 0
305 342 m 0
 305 345 308 348 312 348 c 0
 315 348 318 345 318 342 c 0
 318 338 315 335 312 335 c 0
 308 335 305 338 305 342 c 0
305 362 m 0
 305 365 308 368 312 368 c 0
 315 368 318 365 318 362 c 0
 318 358 315 355 312 355 c 0
 308 355 305 358 305 362 c 0
593 328 m 0xff30670c
 593 324 590 321 587 321 c 0
 583 321 580 324 580 328 c 0
 580 331 583 334 587 334 c 0
 590 334 593 331 593 328 c 0xff30670c
577 342 m 0
 577 338 574 335 571 335 c 0
 567 335 564 338 564 342 c 0
 564 345 567 348 571 348 c 0
 574 348 577 345 577 342 c 0
577 362 m 0
 577 358 574 355 571 355 c 0
 567 355 564 358 564 362 c 0
 564 365 567 368 571 368 c 0
 574 368 577 365 577 362 c 0
EndSplineSet
Validated: 1
Layer: 2
SplineSet
576.875 361.562 m 128,-1,1
 576.875 355.25 576.875 355.25 570.562 355.25 c 128,-1,2
 564.25 355.25 564.25 355.25 564.25 361.562 c 128,-1,3
 564.25 367.875 564.25 367.875 570.562 367.875 c 128,-1,0
 576.875 367.875 576.875 367.875 576.875 361.562 c 128,-1,1
576.875 341.562 m 128,-1,5
 576.875 335.25 576.875 335.25 570.562 335.25 c 128,-1,6
 564.25 335.25 564.25 335.25 564.25 341.562 c 128,-1,7
 564.25 347.875 564.25 347.875 570.562 347.875 c 128,-1,4
 576.875 347.875 576.875 347.875 576.875 341.562 c 128,-1,5
592.875 327.562 m 128,-1,9
 592.875 321.25 592.875 321.25 586.562 321.25 c 128,-1,10
 580.25 321.25 580.25 321.25 580.25 327.562 c 128,-1,11
 580.25 333.875 580.25 333.875 586.562 333.875 c 128,-1,8
 592.875 333.875 592.875 333.875 592.875 327.562 c 128,-1,9
305.25 361.562 m 128,-1,13
 305.25 367.875 305.25 367.875 311.562 367.875 c 128,-1,14
 317.875 367.875 317.875 367.875 317.875 361.562 c 128,-1,15
 317.875 355.25 317.875 355.25 311.562 355.25 c 128,-1,12
 305.25 355.25 305.25 355.25 305.25 361.562 c 128,-1,13
305.25 341.562 m 128,-1,17
 305.25 347.875 305.25 347.875 311.562 347.875 c 128,-1,18
 317.875 347.875 317.875 347.875 317.875 341.562 c 128,-1,19
 317.875 335.25 317.875 335.25 311.562 335.25 c 128,-1,16
 305.25 335.25 305.25 335.25 305.25 341.562 c 128,-1,17
289.25 327.562 m 128,-1,21
 289.25 333.875 289.25 333.875 295.562 333.875 c 128,-1,22
 301.875 333.875 301.875 333.875 301.875 327.562 c 128,-1,23
 301.875 321.25 301.875 321.25 295.562 321.25 c 128,-1,20
 289.25 321.25 289.25 321.25 289.25 327.562 c 128,-1,21
479 -6 m 1,24,25
 460 13 460 13 441 39 c 1,26,27
 425 13 425 13 403 -6 c 1,28,29
 431 -36 431 -36 441 -77 c 1,30,31
 451 -36 451 -36 479 -6 c 1,24,25
409 88 m 1,32,33
 390 52 390 52 361 31 c 1,34,-1
 394 3 l 1,35,36
 417 26 417 26 433 50 c 1,37,-1
 409 88 l 1,32,33
468 101 m 1,38,39
 452 135 452 135 442 188 c 1,40,41
 431 132 431 132 415 100 c 1,42,-1
 441 62 l 1,43,-1
 468 101 l 1,38,39
523 32 m 1,44,45
 495 54 495 54 474 91 c 1,46,-1
 449 50 l 1,47,48
 467 24 467 24 488 3 c 1,49,-1
 523 32 l 1,44,45
595 2 m 1,50,51
 560 9 560 9 533 25 c 1,52,-1
 498 -5 l 1,53,54
 530 -34 530 -34 561 -34 c 0,55,56
 568 -34 568 -34 574 -29.5 c 128,-1,57
 580 -25 580 -25 582.5 -21 c 128,-1,58
 585 -17 585 -17 589.5 -8.5 c 128,-1,59
 594 0 594 0 595 2 c 1,50,51
275 0 m 1,60,-1
 254 0 l 1,61,62
 142 1 142 1 73 79.5 c 128,-1,63
 4 158 4 158 4 274 c 0,64,65
 4 391 4 391 73 470.5 c 128,-1,66
 142 550 142 550 254 550 c 0,67,68
 315 550 315 550 345 530 c 128,-1,69
 375 510 375 510 375 448 c 0,70,71
 375 412 375 412 341.5 392.5 c 128,-1,72
 308 373 308 373 271 384 c 0,73,74
 255 389 255 389 245 403.5 c 128,-1,75
 235 418 235 418 239 436 c 0,76,77
 248 471 248 471 276 466 c 0,78,79
 307 461 307 461 302 430 c 0,80,81
 300 418 300 418 294 410.5 c 128,-1,82
 288 403 288 403 283 402 c 2,83,-1
 278 401 l 2,84,85
 280 401 280 401 283.5 401.5 c 128,-1,86
 287 402 287 402 295.5 404.5 c 128,-1,87
 304 407 304 407 310.5 411.5 c 128,-1,88
 317 416 317 416 322.5 426.5 c 128,-1,89
 328 437 328 437 329 451 c 0,90,91
 331 492 331 492 313.5 515 c 128,-1,92
 296 538 296 538 254 535 c 0,93,94
 191 530 191 530 141.5 454.5 c 128,-1,95
 92 379 92 379 92 274 c 0,96,97
 92 163 92 163 137 88 c 128,-1,98
 182 13 182 13 254 14 c 0,99,100
 289 14 289 14 317.5 25 c 128,-1,101
 346 36 346 36 362 49.5 c 128,-1,102
 378 63 378 63 392 86 c 128,-1,103
 406 109 406 109 411 123.5 c 128,-1,104
 416 138 416 138 423 162.5 c 128,-1,105
 430 187 430 187 431 191 c 1,106,107
 425 195 425 195 422 198 c 0,108,109
 420 200 420 200 415 210 c 1,110,111
 413 203 413 203 408 198 c 0,112,113
 400 190 400 190 388.5 190.5 c 128,-1,114
 377 191 377 191 369 199 c 128,-1,115
 361 207 361 207 361.5 219 c 128,-1,116
 362 231 362 231 370 238 c 0,117,118
 378 246 378 246 390 245.5 c 128,-1,119
 402 245 402 245 409 237 c 0,120,121
 412 234 412 234 416 224 c 1,122,123
 418 232 418 232 423 237 c 0,124,125
 425 239 425 239 429 241 c 1,126,-1
 441 403 l 1,127,-1
 445 403 l 1,128,-1
 457 240 l 1,129,130
 459 239 459 239 462 236 c 0,131,132
 466 232 466 232 468 224 c 1,133,134
 469 230 469 230 476 237 c 0,135,136
 484 245 484 245 496 244.5 c 128,-1,137
 508 244 508 244 515 236 c 0,138,139
 523 228 523 228 522.5 216 c 128,-1,140
 522 204 522 204 514 197 c 0,141,142
 506 189 506 189 494 189.5 c 128,-1,143
 482 190 482 190 475 198 c 1,144,145
 470 202 470 202 469 210 c 1,146,147
 468 204 468 204 461 197 c 0,148,149
 458 194 458 194 453 192 c 1,150,151
 454 188 454 188 461 163 c 128,-1,152
 468 138 468 138 473 124 c 128,-1,153
 478 110 478 110 492 86.5 c 128,-1,154
 506 63 506 63 522 49.5 c 128,-1,155
 538 36 538 36 566.5 25 c 128,-1,156
 595 14 595 14 630 14 c 0,157,158
 702 13 702 13 747 88 c 128,-1,159
 792 163 792 163 792 274 c 0,160,161
 792 379 792 379 742.5 454.5 c 128,-1,162
 693 530 693 530 630 535 c 0,163,164
 588 538 588 538 570.5 515 c 128,-1,165
 553 492 553 492 555 451 c 0,166,167
 556 429 556 429 568.5 416.5 c 128,-1,168
 581 404 581 404 593.5 402.5 c 2,169,-1
 606 401 l 2,170,171
 604 401 604 401 600.5 402 c 128,-1,172
 597 403 597 403 590.5 410.5 c 128,-1,173
 584 418 584 418 582 430 c 0,174,175
 577 461 577 461 608 466 c 0,176,177
 636 471 636 471 645 436 c 0,178,179
 649 418 649 418 639 403.5 c 128,-1,180
 629 389 629 389 613 384 c 0,181,182
 576 373 576 373 542.5 392.5 c 128,-1,183
 509 412 509 412 509 448 c 0,184,185
 509 510 509 510 539 530 c 128,-1,186
 569 550 569 550 630 550 c 0,187,188
 742 550 742 550 811 470.5 c 128,-1,189
 880 391 880 391 880 274 c 0,190,191
 880 158 880 158 811 79.5 c 128,-1,192
 742 1 742 1 630 0 c 0,193,194
 615 0 615 0 608 1 c 1,195,196
 607 -14 607 -14 594.5 -30 c 128,-1,197
 582 -46 582 -46 564 -46 c 0,198,199
 528 -46 528 -46 489 -14 c 1,200,201
 448 -59 448 -59 448 -109 c 0,202,203
 448 -129 448 -129 442 -129 c 0,204,205
 435 -129 435 -129 435 -109 c 0,206,207
 435 -57 435 -57 394 -14 c 1,208,209
 357 -46 357 -46 319 -46 c 0,210,211
 301 -46 301 -46 288.5 -30 c 128,-1,212
 276 -14 276 -14 275 0 c 1,60,-1
351 25 m 1,213,214
 321 7 321 7 288 2 c 1,215,216
 289 0 289 0 293.5 -8.5 c 128,-1,217
 298 -17 298 -17 300.5 -21 c 128,-1,218
 303 -25 303 -25 309 -29.5 c 128,-1,219
 315 -34 315 -34 322 -34 c 0,220,221
 353 -34 353 -34 385 -5 c 1,222,-1
 351 25 l 1,213,214
297 347 m 0,223,224
 295 346 295 346 289 346.5 c 128,-1,225
 283 347 283 347 271.5 351 c 128,-1,226
 260 355 260 355 249 361 c 0,227,228
 243 365 243 365 237 371.5 c 128,-1,229
 231 378 231 378 228.5 382.5 c 2,230,-1
 226 387 l 1,231,232
 227 380 227 380 235 371 c 0,233,234
 236 370 236 370 245 356.5 c 128,-1,235
 254 343 254 343 257 338.5 c 128,-1,236
 260 334 260 334 266.5 320 c 128,-1,237
 273 306 273 306 274 296.5 c 128,-1,238
 275 287 275 287 274.5 272 c 128,-1,239
 274 257 274 257 269 243 c 0,240,241
 259.288 214.746 259.288 214.746 223.934 207.706 c 0,242,243
 214.454 205.818 214.454 205.818 215 208 c 0,244,245
 216 210 216 210 223 213 c 128,-1,246
 230 216 230 216 239 222 c 128,-1,247
 248 228 248 228 254 238 c 0,248,249
 262 253 262 253 262.5 271.5 c 128,-1,250
 263 290 263 290 259.5 300.5 c 2,251,-1
 256 311 l 2,252,253
 260 297 260 297 252 284 c 0,254,255
 250 280 250 280 245.5 277 c 128,-1,256
 241 274 241 274 237.5 273 c 2,257,-1
 234 272 l 1,258,259
 235 274 235 274 236 277 c 128,-1,260
 237 280 237 280 239 290.5 c 128,-1,261
 241 301 241 301 239 312 c 0,262,263
 237 332 237 332 223 358 c 128,-1,264
 209 384 209 384 210 395 c 0,265,266
 211 403 211 403 215 409 c 128,-1,267
 219 415 219 415 223 417 c 2,268,-1
 227 419 l 1,269,270
 233 398 233 398 237 391 c 0,271,272
 243 382 243 382 251.5 375 c 128,-1,273
 260 368 260 368 268.5 364 c 128,-1,274
 277 360 277 360 284 357 c 128,-1,275
 291 354 291 354 295 351.5 c 128,-1,276
 299 349 299 349 297 347 c 0,223,224
674 395 m 0,277,278
 675 384 675 384 661 358 c 128,-1,279
 647 332 647 332 645 312 c 0,280,281
 644 299 644 299 645 290.5 c 128,-1,282
 646 282 646 282 648 277 c 2,283,-1
 650 272 l 1,284,285
 637 275 637 275 632 284 c 0,286,287
 628 290 628 290 627 296.5 c 128,-1,288
 626 303 626 303 627 307 c 2,289,-1
 628 311 l 1,290,291
 611 272 611 272 630 238 c 0,292,293
 636 228 636 228 645 222 c 128,-1,294
 654 216 654 216 661 213 c 128,-1,295
 668 210 668 210 669 208 c 0,296,297
 670.176 203.294 670.176 203.294 650.514 210.414 c 0,298,299
 622.745 220.47 622.745 220.47 615 243 c 0,300,301
 610 257 610 257 609.5 272 c 128,-1,302
 609 287 609 287 610 296.5 c 128,-1,303
 611 306 611 306 617.5 320 c 128,-1,304
 624 334 624 334 627 338.5 c 128,-1,305
 630 343 630 343 639 356.5 c 128,-1,306
 648 370 648 370 649 371 c 2,307,-1
 658 387 l 2,308,309
 649 371 649 371 635 361 c 1,310,311
 624 355 624 355 612.5 351 c 128,-1,312
 601 347 601 347 595 346.5 c 128,-1,313
 589 346 589 346 587 347 c 0,314,315
 585 349 585 349 589 351.5 c 128,-1,316
 593 354 593 354 600 357 c 128,-1,317
 607 360 607 360 615.5 364 c 128,-1,318
 624 368 624 368 632.5 375 c 128,-1,319
 641 382 641 382 647 391 c 1,320,-1
 657 419 l 1,321,322
 672 413 672 413 674 395 c 0,277,278
650 687 m 1,323,-1
 599 652 l 1,324,325
 600 650 600 650 601.5 647 c 128,-1,326
 603 644 603 644 604.5 634 c 128,-1,327
 606 624 606 624 600 615 c 1,328,329
 596 607 596 607 590.5 601.5 c 128,-1,330
 585 596 585 596 581 595.5 c 128,-1,331
 577 595 577 595 574 596 c 1,332,333
 571 599 571 599 573 599.5 c 128,-1,334
 575 600 575 600 578.5 606 c 128,-1,335
 582 612 582 612 582 621 c 0,336,337
 582 675 582 675 521 675 c 2,338,-1
 481 675 l 1,339,-1
 481 578 l 1,340,-1
 404 578 l 1,341,-1
 404 675 l 1,342,-1
 355 675 l 2,343,344
 294 675 294 675 294 621 c 0,345,346
 294 615 294 615 295.5 610.5 c 128,-1,347
 297 606 297 606 299 604 c 128,-1,348
 301 602 301 602 302.5 600.5 c 128,-1,349
 304 599 304 599 304 598.5 c 128,-1,350
 304 598 304 598 302 596 c 128,-1,351
 300 594 300 594 295 595.5 c 128,-1,352
 290 597 290 597 284 602.5 c 128,-1,353
 278 608 278 608 275 616 c 0,354,355
 271 627 271 627 271.5 635 c 128,-1,356
 272 643 272 643 274.5 647.5 c 2,357,-1
 277 652 l 1,358,-1
 226 687 l 1,359,-1
 650 687 l 1,323,-1
EndSplineSet
Substitution2: "'ss01' Style Set Simple Forms-1" uni047E.simple
Colour: ff00
EndChar

StartChar: uni0472
Encoding: 1138 1138 12
Width: 525
Flags: W
HStem: -79 91<197 254> 0 12<111.765 172.503 317 330.071> 72 56<77.0088 131.673> 132 13<125.02 137.981> 152 13<125.02 137.981> 166 13<109.02 121.981> 269 13<30.4369 75.9884 446.544 494.94> 374 9<404 414.457> 387 9<386.091 396.905> 407 9<386.091 396.905> 422 56<392.327 446.991> 538 16<259.15 327 347.145 417.026>
VStem: 1 12<213.226 251.27> 46 33<-95.125 -59.6195> 46 23<-88.7718 -20.414> 55 21<35.521 94.4985> 96 14<195.569 249.212> 109 13<166.02 178.981> 123 76<268.547 472.134> 125 13<132.02 144.981 152.02 164.981> 176 31<86.5491 135.389> 215 35<52.2198 135.341> 274 35<414.524 497.78> 317 31<414.611 463.451> 325 76<75.4105 278.437> 347 33<-95.125 -59.6195> 357 23<-88.7718 -20.414> 386 11<387.05 395.906 407.05 415.906> 404 9<374.05 383.513> 414 14<300.788 354.431> 448 21<455.501 514.23> 511 12<298.73 336.774>
AnchorPoint: "Yerok" 381 575.2 basechar 0
AnchorPoint: "Diacritic" 287 575 basechar 0
LayerCount: 3
Fore
SplineSet
125 139 m 0x3ff8160f
 125 142 128 145 132 145 c 0
 135 145 138 142 138 139 c 0
 138 135 135 132 132 132 c 0
 128 132 125 135 125 139 c 0x3ff8160f
125 159 m 0
 125 162 128 165 132 165 c 0
 135 165 138 162 138 159 c 0
 138 155 135 152 132 152 c 0
 128 152 125 155 125 159 c 0
109 173 m 0x3ff8460f
 109 176 112 179 116 179 c 0
 119 179 122 176 122 173 c 0
 122 169 119 166 116 166 c 0
 112 166 109 169 109 173 c 0x3ff8460f
325 158 m 0xbff8268f
 325 263 274 317 274 425 c 0
 274 486 299 515 327 538 c 1
 325 538 323 538 321 538 c 0
 301 538 270 534 270 534 c 1
 209 519 199 433 199 384 c 0
 199 285 250 230 250 125 c 0
 250 64 225 35 197 12 c 1
 199 12 201 12 203 12 c 0
 223 12 254 16 254 16 c 0
 313 30 325 97 325 158 c 0xbff8268f
350 -104 m 0
 349 -104 347 -103 347 -102 c 0x7ff8064f
 347 -99 357 -93 357 -58 c 0
 357 -23 344 0 296 0 c 2
 256 0 l 1x7ff8062f
 256 -79 l 1
 179 -79 l 1xbff8062f
 179 0 l 1
 130 0 l 2
 82 0 69 -23 69 -58 c 0x7ffa062f
 69 -93 79 -99 79 -102 c 0x7ffc060f
 79 -103 77 -104 76 -104 c 0x7ff9060f
 70 -104 54 -92 49 -69 c 0
 47 -59 46 -51 46 -45 c 0x7ffa060f
 46 -28 52 -23 52 -23 c 2
 1 12 l 1
 87 12 l 1
 66 23 55 44 55 79 c 0
 55 109 76 128 99 128 c 0
 119 128 133 114 133 98 c 0
 133 82 117 72 103 72 c 0
 89 72 77 80 77 80 c 1
 77 80 76 76 76 71 c 0
 76 57 80 31 106 20 c 0
 118 15 130 12 143 12 c 0
 162 12 182 19 198 35 c 0
 211 48 215 67 215 86 c 0
 215 112 207 136 207 136 c 1
 207 136 206 108 188 80 c 0
 177 62 154 47 139 47 c 0
 138 47 l 0
 138 49 176 58 176 115 c 0x7ff91e0f
 176 134 172 158 160 189 c 0
 125 282 123 300 123 382 c 0
 123 467 173 538 256 550 c 0
 279 553 303 554 326 554 c 0
 371 554 408 550 408 550 c 1
 448 544 469 519 469 471 c 0
 469 441 448 422 425 422 c 0
 405 422 391 436 391 452 c 0
 391 468 407 478 421 478 c 0
 435 478 447 470 447 470 c 1
 447 470 448 474 448 479 c 0
 448 493 444 519 418 530 c 0
 406 535 394 538 381 538 c 0
 362 538 342 531 326 515 c 0
 313 502 309 483 309 464 c 0
 309 438 317 414 317 414 c 2
 317 414 318 442 336 470 c 0
 347 488 370 503 385 503 c 0
 386 503 l 0
 386 501 348 492 348 435 c 0x7ff8271f
 348 416 352 392 364 361 c 0
 399 268 401 239 401 168 c 0x7ff8068f
 401 101 370 36 317 12 c 1
 425 12 l 1
 374 -23 l 1
 374 -23 380 -28 380 -45 c 0x7ff8072f
 380 -51 379 -59 377 -69 c 0
 372 -92 356 -104 350 -104 c 0
56 282 m 0
 87 282 110 258 110 231 c 0
 110 204 102 189 87 169 c 0
 80 160 68 151 61 145 c 0
 53 137 50 129 50 129 c 1
 50 129 61 143 78 150 c 0
 91 155 99 157 105 157 c 0
 111 157 115 155 115 151 c 0
 115 143 84 147 59 123 c 0
 53 117 47 99 47 99 c 1
 46 100 27 109 27 129 c 0
 27 160 50 175 50 200 c 0
 50 212 44 219 44 219 c 1
 44 219 44 219 45 219 c 0
 49 219 62 218 71 196 c 0
 76 183 74 173 74 173 c 1
 74 173 96 196 96 224 c 0x3ff8860f
 96 251 77 269 54 269 c 0
 30 269 13 253 13 231 c 0
 13 213 23 207 23 205 c 0
 23 205 22 205 21 205 c 0
 7 205 1 221 1 236 c 0
 1 266 27 282 56 282 c 0
397 407 m 1x3ff8061f
 394 403 386 405 386 411 c 0
 386 412 387 414 388 416 c 1
 391 417 395 417 397 416 c 0
 400 413 400 408 397 407 c 1x3ff8061f
413 374 m 1
 409 368 399 375 404 383 c 1
 407 384 411 384 413 383 c 0
 416 380 416 375 413 374 c 1
397 387 m 1
 394 383 386 385 386 391 c 0
 386 392 387 394 388 396 c 1
 391 397 395 397 397 396 c 0
 400 393 400 388 397 387 c 1
468 268 m 0
 437 268 414 292 414 319 c 0
 414 346 422 361 437 381 c 0
 444 390 456 399 463 405 c 0
 471 413 474 421 474 421 c 1
 474 421 463 407 446 400 c 0
 433 395 425 393 419 393 c 0
 413 393 409 395 409 399 c 0
 409 407 440 403 465 427 c 0
 471 433 477 451 477 451 c 1
 478 450 497 441 497 421 c 0
 497 390 474 375 474 350 c 0
 474 338 480 331 480 331 c 1
 480 331 480 331 479 331 c 0
 475 331 462 332 453 354 c 0
 448 367 450 377 450 377 c 1
 450 377 428 354 428 326 c 0
 428 299 447 281 470 281 c 0
 494 281 511 297 511 319 c 0
 511 337 501 343 501 345 c 0
 501 345 502 345 503 345 c 0
 517 345 523 329 523 314 c 0
 523 284 497 268 468 268 c 0
EndSplineSet
Validated: 1
Layer: 2
SplineSet
125.25 138.562 m 128,-1,1
 125.25 144.875 125.25 144.875 131.562 144.875 c 128,-1,2
 137.875 144.875 137.875 144.875 137.875 138.562 c 128,-1,3
 137.875 132.25 137.875 132.25 131.562 132.25 c 128,-1,0
 125.25 132.25 125.25 132.25 125.25 138.562 c 128,-1,1
125.25 158.562 m 128,-1,5
 125.25 164.875 125.25 164.875 131.562 164.875 c 128,-1,6
 137.875 164.875 137.875 164.875 137.875 158.562 c 128,-1,7
 137.875 152.25 137.875 152.25 131.562 152.25 c 128,-1,4
 125.25 152.25 125.25 152.25 125.25 158.562 c 128,-1,5
109.25 172.562 m 128,-1,9
 109.25 178.875 109.25 178.875 115.562 178.875 c 128,-1,10
 121.875 178.875 121.875 178.875 121.875 172.562 c 128,-1,11
 121.875 166.25 121.875 166.25 115.562 166.25 c 128,-1,8
 109.25 166.25 109.25 166.25 109.25 172.562 c 128,-1,9
274 425 m 0,12,13
 274 494 274 494 327 538 c 1,14,-1
 270 534 l 1,15,16
 230 524 230 524 214.5 479.5 c 128,-1,17
 199 435 199 435 199 384 c 0,18,19
 199 335 199 335 224.5 256.5 c 128,-1,20
 250 178 250 178 250 125 c 0,21,22
 250 56 250 56 197 12 c 1,23,-1
 254 16 l 1,24,25
 327 34 327 34 325 166 c 0,26,27
 325 214 325 214 299.5 292.5 c 128,-1,28
 274 371 274 371 274 425 c 0,12,13
256 0 m 1,29,-1
 256 -79 l 1,30,-1
 179 -79 l 1,31,-1
 179 0 l 1,32,-1
 130 0 l 2,33,34
 71 0 71 0 69 -54 c 0,35,36
 68 -84 68 -84 77.4613 -99.1138 c 0,37,38
 80 -103 80 -103 77 -104 c 1,39,40
 75 -106 75 -106 69.5 -102.5 c 128,-1,41
 64 -99 64 -99 58 -89.5 c 128,-1,42
 52 -80 52 -80 49 -69 c 0,43,44
 45 -51 45 -51 45.5 -41 c 128,-1,45
 46 -31 46 -31 49 -27 c 2,46,-1
 52 -23 l 1,47,-1
 1 12 l 1,48,-1
 87 12 l 1,49,50
 55 29 55 29 55 79 c 0,51,52
 55 105 55 105 74 119 c 128,-1,53
 93 133 93 133 114 125 c 0,54,55
 129 119 129 119 132.5 104 c 128,-1,56
 136 89 136 89 125 80 c 0,57,58
 115 72 115 72 103 72 c 128,-1,59
 91 72 91 72 84 76 c 2,60,-1
 77 80 l 1,61,62
 78 78 78 78 76.5 68 c 128,-1,63
 75 58 75 58 82.5 42.5 c 128,-1,64
 90 27 90 27 106 20 c 0,65,66
 160 -3 160 -3 198 35 c 0,67,68
 212 49 212 49 214.5 74.5 c 128,-1,69
 217 100 217 100 212 118 c 2,70,-1
 207 136 l 1,71,72
 206 108 206 108 188 80 c 0,73,74
 180 67 180 67 165 57 c 128,-1,75
 150 47 150 47 139 47 c 0,76,77
 137 47 137 47 139 48 c 128,-1,78
 141 49 141 49 146.5 52.5 c 128,-1,79
 152 56 152 56 158 61.5 c 128,-1,80
 164 67 164 67 169 78 c 128,-1,81
 174 89 174 89 176 103 c 128,-1,82
 178 117 178 117 174 139.5 c 128,-1,83
 170 162 170 162 160 189 c 0,84,85
 134 257 134 257 128.5 288 c 128,-1,86
 123 319 123 319 123 382 c 0,87,88
 123 447 123 447 159 494 c 128,-1,89
 195 541 195 541 256 550 c 0,90,91
 286 554 286 554 324 554 c 128,-1,92
 362 554 362 554 385 552 c 2,93,-1
 408 550 l 1,94,95
 469 541 469 541 469 471 c 0,96,97
 469 445 469 445 450 431 c 128,-1,98
 431 417 431 417 410 425 c 0,99,100
 395 431 395 431 391.5 446 c 128,-1,101
 388 461 388 461 399 470 c 0,102,103
 409 478 409 478 421 478 c 128,-1,104
 433 478 433 478 440 474 c 2,105,-1
 447 470 l 1,106,107
 446 472 446 472 447.5 482 c 128,-1,108
 449 492 449 492 441.5 507.5 c 128,-1,109
 434 523 434 523 418 530 c 0,110,111
 364 553 364 553 326 515 c 0,112,113
 312 501 312 501 309.5 475.5 c 128,-1,114
 307 450 307 450 312 432 c 2,115,-1
 317 414 l 1,116,117
 318 442 318 442 336 470 c 0,118,119
 344 483 344 483 359 493 c 128,-1,120
 374 503 374 503 385 503 c 0,121,122
 387 503 387 503 385 502 c 128,-1,123
 383 501 383 501 377.5 497.5 c 128,-1,124
 372 494 372 494 366 488.5 c 128,-1,125
 360 483 360 483 355 472 c 128,-1,126
 350 461 350 461 348 447 c 128,-1,127
 346 433 346 433 350 410.5 c 128,-1,128
 354 388 354 388 364 361 c 0,129,130
 389 295 389 295 395 260.5 c 128,-1,131
 401 226 401 226 401 168 c 0,132,133
 401 116 401 116 378.5 73 c 128,-1,134
 356 30 356 30 317 12 c 1,135,-1
 425 12 l 1,136,-1
 374 -23 l 1,137,138
 375 -24 375 -24 376.5 -27 c 128,-1,139
 378 -30 378 -30 380 -41 c 128,-1,140
 382 -52 382 -52 377 -69 c 0,141,142
 374 -80 374 -80 368 -89.5 c 128,-1,143
 362 -99 362 -99 356.5 -102.5 c 128,-1,144
 351 -106 351 -106 349 -104 c 0,145,146
 346 -100 346 -100 348 -100 c 128,-1,147
 350 -100 350 -100 353.5 -87 c 128,-1,148
 357 -74 357 -74 357 -54 c 0,149,150
 355 0 355 0 296 0 c 2,151,-1
 256 0 l 1,29,-1
74 173 m 1,152,153
 75 174 75 174 77 176.5 c 128,-1,154
 79 179 79 179 84.5 187 c 128,-1,155
 90 195 90 195 92 203 c 128,-1,156
 94 211 94 211 96 222.5 c 128,-1,157
 98 234 98 234 92 244 c 1,158,159
 86 260 86 260 70 266 c 128,-1,160
 54 272 54 272 38 266 c 1,161,162
 16 256 16 256 13 237 c 0,163,164
 12 229 12 229 13.5 223 c 128,-1,165
 15 217 15 217 17 214 c 128,-1,166
 19 211 19 211 21 208.5 c 2,167,-1
 23 206 l 1,168,-1
 21 205 l 1,169,170
 8 205 8 205 3 222 c 128,-1,171
 -2 239 -2 239 4 252 c 1,172,173
 11 271 11 271 35.5 279 c 128,-1,174
 60 287 60 287 80 277 c 0,175,176
 110 263 110 263 110 231 c 0,177,178
 110 200 110 200 87 169 c 0,179,180
 83 164 83 164 61 145 c 1,181,-1
 50 129 l 1,182,183
 61 143 61 143 78 150 c 0,184,185
 110 163 110 163 115 153 c 0,186,187
 116 150 116 150 113 148.5 c 128,-1,188
 110 147 110 147 104 145.5 c 128,-1,189
 98 144 98 144 91 141.5 c 128,-1,190
 84 139 84 139 75 134.5 c 128,-1,191
 66 130 66 130 59 123 c 1,192,-1
 47 99 l 1,193,194
 28 107 28 107 27 125 c 0,195,196
 26 144 26 144 38 166.5 c 128,-1,197
 50 189 50 189 50 201 c 0,198,199
 50 206 50 206 48.5 210.5 c 128,-1,200
 47 215 47 215 45.5 217 c 2,201,-1
 44 219 l 1,202,203
 61 221 61 221 71 196 c 1,204,-1
 74 173 l 1,152,153
397 407 m 0,205,206
 393 402 393 402 388 407 c 1,207,208
 384 409 384 409 388 416 c 1,209,210
 393 418 393 418 397 416 c 0,211,212
 399 414 399 414 399 411 c 128,-1,213
 399 408 399 408 397 407 c 0,205,206
413 374 m 0,214,215
 409 369 409 369 404 374 c 1,216,217
 400 376 400 376 404 383 c 1,218,219
 409 385 409 385 413 383 c 0,220,221
 415 381 415 381 415 378 c 128,-1,222
 415 375 415 375 413 374 c 0,214,215
397 387 m 0,223,224
 393 382 393 382 388 387 c 1,225,226
 384 389 384 389 388 396 c 1,227,228
 393 398 393 398 397 396 c 0,229,230
 399 394 399 394 399 391 c 128,-1,231
 399 388 399 388 397 387 c 0,223,224
450 377 m 1,232,233
 449 376 449 376 447 373.5 c 128,-1,234
 445 371 445 371 439.5 363 c 128,-1,235
 434 355 434 355 432 347 c 128,-1,236
 430 339 430 339 428 327.5 c 128,-1,237
 426 316 426 316 432 306 c 1,238,239
 438 290 438 290 454 284 c 128,-1,240
 470 278 470 278 486 284 c 1,241,242
 508 294 508 294 511 313 c 0,243,244
 512 321 512 321 510.5 327 c 128,-1,245
 509 333 509 333 507 336 c 128,-1,246
 505 339 505 339 503 341.5 c 2,247,-1
 501 344 l 1,248,-1
 503 345 l 1,249,250
 516 345 516 345 521 328 c 128,-1,251
 526 311 526 311 520 298 c 1,252,253
 513 279 513 279 488.5 271 c 128,-1,254
 464 263 464 263 444 273 c 0,255,256
 414 287 414 287 414 319 c 0,257,258
 414 350 414 350 437 381 c 0,259,260
 441 386 441 386 463 405 c 1,261,-1
 474 421 l 1,262,263
 463 407 463 407 446 400 c 0,264,265
 414 387 414 387 409 397 c 0,266,267
 408 400 408 400 411 401.5 c 128,-1,268
 414 403 414 403 420 404.5 c 128,-1,269
 426 406 426 406 433 408.5 c 128,-1,270
 440 411 440 411 449 415.5 c 128,-1,271
 458 420 458 420 465 427 c 1,272,-1
 477 451 l 1,273,274
 496 443 496 443 497 425 c 0,275,276
 498 406 498 406 486 383.5 c 128,-1,277
 474 361 474 361 474 349 c 0,278,279
 474 344 474 344 475.5 339.5 c 128,-1,280
 477 335 477 335 478.5 333 c 2,281,-1
 480 331 l 1,282,283
 463 329 463 329 453 354 c 1,284,-1
 450 377 l 1,232,233
EndSplineSet
Substitution2: "'ss01' Style Set Simple Forms-1" uni0472.simple
Colour: ff00
EndChar

StartChar: uni0405
Encoding: 1029 1029 13
Width: 480
Flags: W
HStem: -90 18<18.0634 38> -8 14<262.614 324.728> 48 9<280.14 309.497> 57 27<98.6576 171.5> 121 10<250.002 260.999> 133 11<243.023 253.966> 138 15<278.327 304.985> 146 11<248.034 258.977> 162 12<239.985 290.572> 191 26<231.004 252.931> 322 26<269.069 290.996> 365 12<231.428 282.016> 382 11<263.023 273.966> 386 15<217.015 243.673> 395 11<268.251 278.977> 408 10<261.001 271.998> 427 12<342 368 444 470> 482 9<212.503 241.86> 529 21<207.472 317.889>
VStem: -6 14<-59.7527 -12.4207> 36 43<-71.6383 -42.0073> 75 63<326.008 476.267> 192 13<352 378.113 457.959 467.129> 219 12<182.368 194> 227 8<419.749 445.75> 243 11<133.023 143.966 149.068 153.071> 250 11<121.023 130.977 433.128 475.184> 261 11<63.8159 105.872 382.297 392.796 408.023 417.977> 268 11<395.053 405.987> 287 8<93.25 119.251> 291 12<345 356.632> 317 13<71.8708 81.0406 162.374 187> 368 76<439 499.364> 394 71<61.7044 209.614>
AnchorPoint: "Yerok" 405 565 basechar 0
AnchorPoint: "Diacritic" 259 575 basechar 0
LayerCount: 3
Fore
SplineSet
261 413 m 0xc8f1f211
 261 416 263 418 266 418 c 0
 269 418 272 416 272 413 c 0
 272 410 269 408 266 408 c 0
 263 408 261 410 261 413 c 0xc8f1f211
268 402 m 0xc8f3f209
 268 405 271 406 274 406 c 0xc8f3f209
 277 406 279 404 279 401 c 0xc8f5f209
 279 398 277 395 274 395 c 0
 271 395 268 399 268 402 c 0xc8f3f209
263 388 m 0
 263 391 265 393 268 393 c 0
 271 393 274 391 274 388 c 0
 274 385 271 382 268 382 c 0xc8f9f209
 265 382 263 385 263 388 c 0
200 324 m 1
 198 327 192 347 192 356 c 0
 192 363 194 369 196 377 c 0
 203 402 226 411 227 434 c 1
 227 446 l 1
 227 446 234 446 235 430 c 0
 236 420 233 415 233 415 c 1
 233 415 253 433 253 456 c 0
 253 471 242 482 227 482 c 0
 218 482 211 479 207 470 c 0
 200 456 210 450 205 451 c 0
 200 452 198 457 198 462 c 0
 198 478 209 491 226 491 c 0
 247 491 261 476 261 455 c 0
 261 419 218 396 217 395 c 2xc8f3f2a3
 217 395 238 401 251 401 c 0
 256 401 260 400 260 397 c 0
 260 390 241 399 221 386 c 0
 209 379 205 370 205 360 c 0
 205 357 206 355 206 352 c 1
 217 367 237 377 256 377 c 0
 279 376 303 366 303 342 c 0
 303 329 293 322 281 322 c 0
 275 322 269 325 269 333 c 0
 269 345 274 348 280 348 c 0
 286 348 291 345 291 345 c 1xc8f5f2a3
 291 359 274 365 257 365 c 0
 223 365 202 338 200 324 c 1
261 126 m 0
 261 123 259 121 256 121 c 0
 253 121 250 123 250 126 c 0
 250 129 253 131 256 131 c 0
 259 131 261 129 261 126 c 0
254 138 m 0xcaf1f241
 254 135 251 133 248 133 c 0xccf1f241
 245 133 243 135 243 138 c 0xcaf1f241
 243 141 245 144 248 144 c 0xccf1f241
 251 144 254 141 254 138 c 0xcaf1f241
259 151 m 0
 259 148 257 146 254 146 c 0
 251 146 248 148 248 151 c 0
 248 154 251 157 254 157 c 0xc9f1f241
 257 157 259 154 259 151 c 0
322 215 m 1
 324 212 330 192 330 183 c 0
 330 176 328 170 326 162 c 0
 319 137 296 128 295 105 c 1
 295 93 l 1
 295 93 288 93 287 109 c 0
 286 119 289 124 289 124 c 1
 289 124 269 106 269 83 c 0
 269 68 280 57 295 57 c 0
 304 57 311 60 315 69 c 0
 322 83 312 89 317 88 c 0
 322 87 324 82 324 77 c 0
 324 61 313 48 296 48 c 0xeaf1f315
 275 48 261 63 261 84 c 0
 261 120 304 143 305 144 c 2xdcf1f315
 305 144 284 138 271 138 c 0
 266 138 262 139 262 142 c 0
 262 149 281 140 301 153 c 0
 313 160 317 169 317 179 c 0
 317 182 316 184 316 187 c 1
 305 172 285 162 266 162 c 0
 243 163 219 173 219 197 c 0
 219 210 229 217 241 217 c 0
 247 217 253 214 253 206 c 0
 253 194 248 191 242 191 c 0
 236 191 231 194 231 194 c 1xcaf1f315
 231 180 248 174 265 174 c 0
 299 174 320 201 322 215 c 1
288 6 m 0
 359 6 394 70 394 131 c 0xd8f5fa0140
 394 188 365 244 308 252 c 0
 244 261 233 250 164 277 c 0
 111 298 75 329 75 404 c 0
 75 411 75 419 76 427 c 0
 84 519 177 550 257 550 c 0
 423 550 444 481 444 439 c 1
 470 439 l 1
 470 427 l 1
 342 427 l 1
 342 439 l 1
 368 439 l 1
 368 499 329 529 257 529 c 0
 177 529 138 464 138 401 c 0xd8f5f60180
 138 372 146 343 163 322 c 0
 207 266 268 287 340 270 c 0
 403 255 465 218 465 141 c 0
 465 24 365 -8 288 -8 c 0
 245 -8 208 1 194 9 c 0
 153 32 147 57 124 57 c 0
 113 57 99 52 76 39 c 0
 50 25 40 -21 40 -21 c 1
 40 -21 36 -13 36 -3 c 0
 36 4 40 16 40 16 c 1
 40 16 23 2 14 -14 c 0
 10 -20 8 -28 8 -36 c 0
 8 -54 18 -72 38 -72 c 1
 38 -72 36 -67 36 -61 c 0
 36 -52 40 -42 58 -42 c 0
 71 -42 79 -48 79 -61 c 0
 79 -74 66 -90 43 -90 c 0
 17 -90 -6 -69 -6 -40 c 0
 -6 9 38 40 70 57 c 0
 100 73 128 84 155 84 c 0xd8f5fa0140
 188 84 220 67 256 19 c 0
 264 9 275 6 288 6 c 0
EndSplineSet
Validated: 1
Layer: 2
SplineSet
260.922 413.112 m 132,-1,1
 260.922 418.479 260.922 418.479 266.287 418.479 c 128,-1,2
 271.653 418.479 271.653 418.479 271.653 413.112 c 128,-1,3
 271.653 407.747 271.653 407.747 266.287 407.747 c 128,-1,0
 260.922 407.747 260.922 407.747 260.922 413.112 c 132,-1,1
268.322 400.662 m 132,-1,5
 268.322 406.028 268.322 406.028 273.688 406.028 c 128,-1,6
 279.053 406.028 279.053 406.028 279.053 400.662 c 128,-1,7
 279.053 395.297 279.053 395.297 273.688 395.297 c 128,-1,4
 268.322 395.297 268.322 395.297 268.322 400.662 c 132,-1,5
262.822 387.763 m 132,-1,9
 262.822 393.128 262.822 393.128 268.188 393.128 c 128,-1,10
 273.553 393.128 273.553 393.128 273.553 387.763 c 128,-1,11
 273.553 382.396 273.553 382.396 268.188 382.396 c 128,-1,8
 262.822 382.396 262.822 382.396 262.822 387.763 c 132,-1,9
194 342 m 0,12,13
 191 358 191 358 196 377 c 0,14,15
 199 388 199 388 212.5 405 c 128,-1,16
 226 422 226 422 227 434 c 1,17,-1
 227 446 l 1,18,19
 234 446 234 446 235 430 c 1,20,-1
 233 415 l 1,21,22
 235 417 235 417 238.5 421 c 128,-1,23
 242 425 242 425 247.5 436 c 128,-1,24
 253 447 253 447 253 458 c 0,25,26
 253 468 253 468 245.5 475 c 128,-1,27
 238 482 238 482 227 482 c 0,28,29
 212 482 212 482 207 470 c 1,30,31
 202.169 462.484 202.169 462.484 205 451 c 1,32,33
 198 454 198 454 198.5 463.5 c 128,-1,34
 199 473 199 473 205 482 c 0,35,36
 212 491 212 491 228 490.5 c 128,-1,37
 244 490 244 490 253 480 c 0,38,39
 264 469 264 469 261 448 c 0,40,41
 259 434 259 434 248 420.5 c 128,-1,42
 237 407 237 407 227 401 c 2,43,-1
 217 395 l 1,44,45
 233 400 233 400 242 401 c 0,46,47
 259 402 259 402 260 398 c 0,48,49
 260 396 260 396 258.5 395 c 128,-1,50
 257 394 257 394 253 394 c 128,-1,51
 249 394 249 394 244.5 393.5 c 128,-1,52
 240 393 240 393 233.5 391.5 c 128,-1,53
 227 390 227 390 221 386 c 0,54,55
 202 375 202 375 206 352 c 1,56,57
 224 377 224 377 256 377 c 1,58,59
 277 376 277 376 291 366.5 c 128,-1,60
 305 357 305 357 303 338 c 0,61,62
 301.469 324.794 301.469 324.794 285.25 321.906 c 128,-1,63
 269 319.013 269 319.013 269 333 c 0,64,65
 269 344 269 344 274.5 347 c 128,-1,66
 280 350 280 350 285.5 347.5 c 2,67,-1
 291 345 l 1,68,69
 291 359 291 359 271 363.5 c 128,-1,70
 251 368 251 368 237 362 c 0,71,72
 204 349 204 349 200 324 c 1,73,74
 195 335 195 335 194 342 c 0,12,13
261.078 125.888 m 128,-1,76
 261.078 120.521 261.078 120.521 255.713 120.521 c 128,-1,77
 250.347 120.521 250.347 120.521 250.347 125.888 c 128,-1,78
 250.347 131.253 250.347 131.253 255.713 131.253 c 128,-1,75
 261.078 131.253 261.078 131.253 261.078 125.888 c 128,-1,76
253.678 138.338 m 128,-1,80
 253.678 132.972 253.678 132.972 248.312 132.972 c 128,-1,81
 242.947 132.972 242.947 132.972 242.947 138.338 c 128,-1,82
 242.947 143.703 242.947 143.703 248.312 143.703 c 128,-1,79
 253.678 143.703 253.678 143.703 253.678 138.338 c 128,-1,80
259.178 151.237 m 128,-1,84
 259.178 145.872 259.178 145.872 253.812 145.872 c 128,-1,85
 248.447 145.872 248.447 145.872 248.447 151.237 c 128,-1,86
 248.447 156.604 248.447 156.604 253.812 156.604 c 128,-1,83
 259.178 156.604 259.178 156.604 259.178 151.237 c 128,-1,84
328 197 m 0,87,88
 331 181 331 181 326 162 c 0,89,90
 323 151 323 151 309.5 134 c 128,-1,91
 296 117 296 117 295 105 c 1,92,-1
 295 93 l 1,93,94
 288 93 288 93 287 109 c 1,95,-1
 289 124 l 1,96,97
 287 122 287 122 283.5 118 c 128,-1,98
 280 114 280 114 274.5 103 c 128,-1,99
 269 92 269 92 269 81 c 0,100,101
 269 71 269 71 276.5 64 c 128,-1,102
 284 57 284 57 295 57 c 0,103,104
 310 57 310 57 315 69 c 1,105,106
 319.831 76.5158 319.831 76.5158 317 88 c 1,107,108
 324 85 324 85 323.5 75.5 c 128,-1,109
 323 66 323 66 317 57 c 0,110,111
 310 48 310 48 294 48.5 c 128,-1,112
 278 49 278 49 269 59 c 0,113,114
 258 70 258 70 261 91 c 0,115,116
 263 105 263 105 274 118.5 c 128,-1,117
 285 132 285 132 295 138 c 2,118,-1
 305 144 l 1,119,120
 289 139 289 139 280 138 c 0,121,122
 263 137 263 137 262 141 c 0,123,124
 262 143 262 143 263.5 144 c 128,-1,125
 265 145 265 145 269 145 c 128,-1,126
 273 145 273 145 277.5 145.5 c 128,-1,127
 282 146 282 146 288.5 147.5 c 128,-1,128
 295 149 295 149 301 153 c 0,129,130
 320 164 320 164 316 187 c 1,131,132
 298 162 298 162 266 162 c 1,133,134
 245 163 245 163 231 172.5 c 128,-1,135
 217 182 217 182 219 201 c 0,136,137
 220.531 214.206 220.531 214.206 236.75 217.094 c 128,-1,138
 253 219.987 253 219.987 253 206 c 0,139,140
 253 195 253 195 247.5 192 c 128,-1,141
 242 189 242 189 236.5 191.5 c 2,142,-1
 231 194 l 1,143,144
 231 180 231 180 251 175.5 c 128,-1,145
 271 171 271 171 285 177 c 0,146,147
 318 190 318 190 322 215 c 1,148,149
 327 204 327 204 328 197 c 0,87,88
163 322 m 128,-1,151
 183 297 183 297 209 288.5 c 128,-1,152
 235 280 235 280 276 277.5 c 128,-1,153
 317 275 317 275 340 270 c 0,154,155
 399 256 399 256 435 220.5 c 128,-1,156
 471 185 471 185 464 124 c 0,157,158
 457 67 457 67 419.5 34 c 128,-1,159
 382 1 382 1 336 -4 c 128,-1,160
 290 -9 290 -9 250.5 -5 c 128,-1,161
 211 -1 211 -1 194 9 c 128,-1,162
 177 19 177 19 161.5 33 c 128,-1,163
 146 47 146 47 139.5 52.5 c 128,-1,164
 133 58 133 58 117.5 56 c 128,-1,165
 102 54 102 54 76 39 c 0,166,167
 64 33 64 33 55 18 c 128,-1,168
 46 3 46 3 43 -9 c 2,169,-1
 40 -21 l 1,170,171
 36 -13 36 -13 36 -3 c 1,172,-1
 40 16 l 1,173,174
 23 2 23 2 14 -14 c 1,175,176
 4 -29 4 -29 11 -50.5 c 128,-1,177
 18 -72 18 -72 38 -72 c 1,178,179
 38 -71 38 -71 37 -68.5 c 128,-1,180
 36 -66 36 -66 36 -60 c 128,-1,181
 36 -54 36 -54 38.5 -50 c 128,-1,182
 41 -46 41 -46 47.5 -43.5 c 128,-1,183
 54 -41 54 -41 65 -42 c 0,184,185
 75 -43 75 -43 78.5 -53 c 128,-1,186
 82 -63 82 -63 75 -74.5 c 128,-1,187
 68 -86 68 -86 52 -89 c 0,188,189
 30 -94 30 -94 12 -79 c 128,-1,190
 -6 -64 -6 -64 -6 -40 c 0,191,192
 -6 17 -6 17 70 57 c 0,193,194
 109 77 109 77 135 82.5 c 128,-1,195
 161 88 161 88 193 74 c 128,-1,196
 225 60 225 60 256 19 c 0,197,198
 274 -5 274 -5 325 13 c 0,199,200
 373 31 373 31 389 86.5 c 128,-1,201
 405 142 405 142 382 193.5 c 128,-1,202
 359 245 359 245 308 252 c 0,203,204
 287 255 287 255 260.5 256 c 128,-1,205
 234 257 234 257 214.5 261 c 128,-1,206
 195 265 195 265 164 277 c 0,207,208
 116 296 116 296 93 329.5 c 128,-1,209
 70 363 70 363 76 427 c 0,210,211
 82 490 82 490 135 520 c 128,-1,212
 188 550 188 550 257 550 c 0,213,214
 444 550 444 550 444 439 c 1,215,-1
 470 439 l 1,216,-1
 470 427 l 1,217,-1
 342 427 l 1,218,-1
 342 439 l 1,219,-1
 368 439 l 1,220,221
 368 529 368 529 257 529 c 0,222,223
 215 529 215 529 185.5 506 c 128,-1,224
 156 483 156 483 145.5 450.5 c 128,-1,225
 135 418 135 418 139 382.5 c 128,-1,150
 143 347 143 347 163 322 c 128,-1,151
EndSplineSet
Substitution2: "'ss01' Style Set Simple Forms-1" uni0405.simple
Colour: ff00
EndChar

StartChar: uni0410
Encoding: 1040 1040 14
Width: 430
Flags: W
HStem: -128 10<33.9426 80.2298> -91 35<23 42.7725> 0 12<283 309 385 411> 407 32<174.091 201.919> 420 9<238.069 272.572> 441 13<240.064 289.953> 470 12<201.264 278.238> 488 10<213.001 223.998> 493 19<238.261 266> 503 10<204.002 214.999> 517 10<212.002 222.999> 538 12<283 309 385 411> 644 10<200.914 234.789>
VStem: 0 23<-112.364 -91> 160 14<436 451.349> 176 10<594.29 629.182> 204 11<503.023 512.977> 213 11<488.023 497.977 517.023 526.977> 226 12<554.811 584.372> 246 8<605.586 628.164> 309 76<12 143 154.273 418 437 461.733 465 491.155 495 538>
AnchorPoint: "Yerok" 351 585.8 basechar 0
AnchorPoint: "Diacritic" 347 585 basechar 0
LayerCount: 3
Fore
SplineSet
223 522 m 0xe63f38
 223 519 221 517 218 517 c 0
 215 517 212 519 212 522 c 0
 212 525 215 527 218 527 c 0
 221 527 223 525 223 522 c 0xe63f38
215 508 m 0xe67fb8
 215 505 213 503 210 503 c 0
 207 503 204 505 204 508 c 0
 204 511 207 513 210 513 c 0
 213 513 215 511 215 508 c 0xe67fb8
224 493 m 0xe6bf78
 224 490 221 488 218 488 c 0xe73f78
 215 488 213 490 213 493 c 0xe6bf78
 213 496 215 498 218 498 c 0xe73f78
 221 498 224 496 224 493 c 0xe6bf78
309 162 m 1
 309 418 l 1
 288 390 232 349 195 281 c 0
 151 199 146 60 146 18 c 1
 154 22 172 26 181 31 c 0
 201 43 214 70 219 83 c 0
 234 120 267 150 309 162 c 1
220 654 m 0
 241 654 254 640 254 620 c 0
 254 613 252 608 246 605 c 0
 240 603 252 611 243 629 c 0
 238 639 230 644 218 644 c 0
 201 644 186 631 186 612 c 0
 186 582 230 548 230 548 c 2
 230 548 226 554 226 566 c 0
 226 585 238 587 238 587 c 1
 238 587 237 581 238 572 c 0
 242 543 284 503 309 495 c 1
 309 538 l 1
 283 538 l 1
 283 550 l 1
 411 550 l 1
 411 538 l 1
 385 538 l 1
 385 12 l 1
 411 12 l 1
 411 0 l 1
 283 0 l 1
 283 12 l 1
 309 12 l 1
 309 143 l 1
 300 140 292 136 283 131 c 0
 263 119 246 93 237 72 c 0
 219 31 197 12 145 0 c 1
 145 -102 99 -128 69 -128 c 0
 26 -128 0 -115 0 -85 c 0
 0 -67 10 -56 23 -56 c 0
 33 -56 43 -63 43 -70 c 0
 43 -89 30 -91 26 -91 c 0
 23 -91 l 1
 23 -116 43 -118 55 -118 c 0
 56 -118 58 -118 59 -118 c 0
 133 -118 118 4 123 51 c 1
 123 51 118 34 96 17 c 0
 79 4 65 0 65 0 c 1
 65 0 82 8 87 38 c 0
 91 64 96 174 126 242 c 0
 169 338 233 363 283 409 c 1
 282 411 268 418 267 418 c 0
 261 421 255 422 251 422 c 0
 246 422 243 420 240 420 c 0
 239 420 238 421 238 424 c 0
 238 427 244 429 252 429 c 0xeebf38
 257 429 263 428 269 427 c 0
 278 425 292 417 292 417 c 1
 298 423 300 424 304 428 c 1
 299 432 290 438 278 441 c 0
 262 446 240 442 240 448 c 0
 240 451 249 454 261 454 c 0
 279 454 302 444 309 437 c 1
 309 453 l 1
 295 463 252 470 236 470 c 0
 210 470 174 460 174 436 c 1
 174 436 180 439 187 439 c 0
 194 439 202 436 202 421 c 0
 202 411 195 407 187 407 c 0
 172 407 160 416 160 432 c 0
 160 465 197 482 232 482 c 0
 257 482 293 476 309 465 c 1
 309 479 l 1
 298 485 287 491 284 493 c 0
 261 505 223 500 223 507 c 0
 223 510 229 512 234 512 c 0xf6bf38
 247 512 266 506 266 506 c 1
 266 506 177 560 177 600 c 0
 177 604 176 608 176 611 c 0
 176 622 179 633 186 641 c 0
 195 650 208 654 220 654 c 0
EndSplineSet
Validated: 1
Layer: 2
SplineSet
223.128 522.013 m 132,-1,1
 223.128 516.646 223.128 516.646 217.763 516.646 c 128,-1,2
 212.396 516.646 212.396 516.646 212.396 522.013 c 128,-1,3
 212.396 527.378 212.396 527.378 217.763 527.378 c 128,-1,0
 223.128 527.378 223.128 527.378 223.128 522.013 c 132,-1,1
215.128 508.013 m 132,-1,5
 215.128 502.646 215.128 502.646 209.763 502.646 c 128,-1,6
 204.396 502.646 204.396 502.646 204.396 508.013 c 128,-1,7
 204.396 513.378 204.396 513.378 209.763 513.378 c 128,-1,4
 215.128 513.378 215.128 513.378 215.128 508.013 c 132,-1,5
223.729 493.112 m 132,-1,9
 223.729 487.747 223.729 487.747 218.362 487.747 c 128,-1,10
 212.997 487.747 212.997 487.747 212.997 493.112 c 128,-1,11
 212.997 498.479 212.997 498.479 218.362 498.479 c 128,-1,8
 223.729 498.479 223.729 498.479 223.729 493.112 c 132,-1,9
309 162 m 1,12,-1
 309 418 l 1,13,-1
 263 370 l 2,14,15
 217 322 217 322 195 281 c 0,16,17
 146 190 146 190 146 18 c 1,18,19
 150 20 150 20 163 24 c 128,-1,20
 176 28 176 28 181 31 c 0,21,22
 204 45 204 45 219 83 c 0,23,24
 233 119 233 119 268 143 c 0,25,26
 284 155 284 155 309 162 c 1,12,-1
145 0 m 1,27,28
 145 -68 145 -68 121.5 -98 c 128,-1,29
 98 -128 98 -128 69 -128 c 0,30,31
 32 -128 32 -128 15 -115 c 128,-1,32
 -2 -102 -2 -102 2 -75 c 0,33,34
 4 -61 4 -61 14.5 -57.5 c 128,-1,35
 25 -54 25 -54 34.5 -58.5 c 128,-1,36
 44 -63 44 -63 43 -71 c 0,37,38
 42 -82 42 -82 37 -87 c 128,-1,39
 32 -92 32 -92 27.5 -91.5 c 2,40,-1
 23 -91 l 1,41,42
 23 -118 23 -118 59 -118 c 1,43,44
 80 -117 80 -117 93.5 -104.5 c 128,-1,45
 107 -92 107 -92 112.5 -70 c 128,-1,46
 118 -48 118 -48 119.5 -28.5 c 128,-1,47
 121 -9 121 -9 121.5 16.5 c 128,-1,48
 122 42 122 42 123 51 c 1,49,50
 118 34 118 34 96 17 c 1,51,52
 65 -2 l 2,53,54
 82 8 82 8 87 38 c 0,55,56
 88 42 88 42 90.5 70.5 c 128,-1,57
 93 99 93 99 96.5 125 c 128,-1,58
 100 151 100 151 108 185 c 128,-1,59
 116 219 116 219 126 242 c 0,60,61
 145 285 145 285 170.5 313.5 c 128,-1,62
 196 342 196 342 234 370.5 c 128,-1,63
 272 399 272 399 283 409 c 1,64,65
 282 410 282 410 275 414 c 128,-1,66
 268 418 268 418 267 418 c 0,67,68
 258 422 258 422 250.5 421.5 c 128,-1,69
 243 421 243 421 241.5 420 c 128,-1,70
 240 419 240 419 238 423 c 1,71,72
 238 426 238 426 242 427.5 c 128,-1,73
 246 429 246 429 253.5 429 c 128,-1,74
 261 429 261 429 269 427 c 1,75,-1
 292 417 l 1,76,77
 295 420 295 420 298.5 423 c 128,-1,78
 302 426 302 426 304 428 c 1,79,80
 292 437 292 437 278 441 c 0,81,82
 271 443 271 443 261.5 443.5 c 128,-1,83
 252 444 252 444 246.5 444.5 c 128,-1,84
 241 445 241 445 240 448 c 0,85,86
 239.206 449.693 239.206 449.693 243.359 451.54 c 0,87,88
 257.932 458.021 257.932 458.021 278 452 c 0,89,90
 302 444 302 444 309 437 c 1,91,-1
 309 453 l 1,92,93
 299 460 299 460 272 465.5 c 128,-1,94
 245 471 245 471 233 470 c 0,95,96
 175 465 175 465 174 436 c 1,97,98
 175 437 175 437 177 437.5 c 128,-1,99
 179 438 179 438 184 438.5 c 128,-1,100
 189 439 189 439 192.5 438.5 c 128,-1,101
 196 438 196 438 199 433.5 c 128,-1,102
 202 429 202 429 202 421 c 0,103,104
 202 403.421 202 403.421 181.75 407.125 c 1,105,106
 162.72 411.999 162.72 411.999 160 427 c 0,107,108
 157 450 157 450 175 464 c 128,-1,109
 193 478 193 478 219 481 c 0,110,111
 237 483 237 483 266.5 478.5 c 128,-1,112
 296 474 296 474 309 465 c 1,113,-1
 309 479 l 1,114,115
 287 491 287 491 284 493 c 0,116,117
 280 495 280 495 275.5 496.5 c 128,-1,118
 271 498 271 498 266.5 499 c 128,-1,119
 262 500 262 500 257 500.5 c 128,-1,120
 252 501 252 501 248 501.5 c 128,-1,121
 244 502 244 502 240 502.5 c 128,-1,122
 236 503 236 503 232.5 503 c 128,-1,123
 229 503 229 503 227 503.5 c 128,-1,124
 225 504 225 504 224 505 c 128,-1,125
 223 506 223 506 223 507 c 0,126,127
 226 512 226 512 235.5 511.5 c 128,-1,128
 245 511 245 511 255.5 508.5 c 2,129,-1
 266 506 l 1,130,131
 256 512 256 512 242 522 c 128,-1,132
 228 532 228 532 203 557 c 128,-1,133
 178 582 178 582 177 600 c 1,134,135
 173 627 173 627 186 641 c 0,136,137
 198 653 198 653 217 654 c 128,-1,138
 236 655 236 655 246 644 c 1,139,140
 253 634 253 634 254 622.5 c 128,-1,141
 255 611 255 611 246 605 c 0,142,143
 244 604 244 604 244.742 606.846 c 0,144,145
 245 608 245 608 245.5 609 c 128,-1,146
 246 610 246 610 246.5 612.5 c 128,-1,147
 247 615 247 615 246.5 617 c 128,-1,148
 246 619 246 619 245.5 622.5 c 128,-1,149
 245 626 245 626 243 629 c 0,150,151
 236 644 236 644 218 644 c 0,152,153
 205 644 205 644 196 635.5 c 128,-1,154
 187 627 187 627 186 614 c 128,-1,155
 185 601 185 601 196 584.5 c 128,-1,156
 207 568 207 568 218.5 558 c 2,157,-1
 230 548 l 1,158,159
 226 554 226 554 226 566 c 0,160,161
 226 574 226 574 229 579.5 c 128,-1,162
 232 585 232 585 235 586 c 2,163,-1
 238 587 l 1,164,165
 237 581 237 581 238 572 c 0,166,167
 241 551 241 551 265 526 c 128,-1,168
 289 501 289 501 309 495 c 1,169,-1
 309 538 l 1,170,-1
 283 538 l 1,171,-1
 283 550 l 1,172,-1
 411 550 l 1,173,-1
 411 538 l 1,174,-1
 385 538 l 1,175,-1
 385 12 l 1,176,-1
 411 12 l 1,177,-1
 411 0 l 1,178,-1
 283 0 l 1,179,-1
 283 12 l 1,180,-1
 309 12 l 1,181,-1
 309 143 l 1,182,183
 298 139 298 139 283 131 c 0,184,185
 255 114 255 114 237 72 c 0,186,187
 228 52 228 52 220 41 c 128,-1,188
 212 30 212 30 196 19 c 0,189,190
 182 9 182 9 145 0 c 1,27,28
EndSplineSet
Substitution2: "'salt' Stylistic Alternatives for Cyrillic-1" uni0410.alt
Substitution2: "'ss01' Style Set Simple Forms-1" uni0410.simple
Colour: ff00
EndChar

StartChar: uni0411
Encoding: 1041 1041 15
Width: 525
Flags: W
HStem: -10 11<187.962 283.962> 72 56<77.0088 131.673> 132 13<125.02 137.981> 152 13<125.02 137.981> 166 13<109.02 121.981> 269 13<30.4369 75.9884> 283 13<322.012 367.563> 397 13<292.02 304.981> 411 13<276.02 288.981> 431 13<276.02 288.981> 455 12<290.007 336.043> 533 17<270 343.521 370 403.531>
VStem: 1 12<213.226 251.27> 55 21<35.7701 94.4985> 96 14<195.569 249.212> 109 13<166.02 178.981> 125 13<132.02 144.981 152.02 164.981> 131 80<285.262 531.472> 167 40<81.3124 135.864> 215 36<46.6054 134.307> 276 13<411.02 423.981 431.02 443.981> 288 14<315.788 365.732 398.254 408.806> 299 48<350 428.19> 352 40<435.687 531.33> 385 12<313.73 351.774> 396 82<49.6809 207.185> 422 24<445.063 515.957>
AnchorPoint: "Yerok" 445.5 575 basechar 0
AnchorPoint: "Diacritic" 304 575 basechar 0
LayerCount: 3
Fore
SplineSet
289 438 m 0xfffc18
 289 434 286 431 283 431 c 0
 279 431 276 434 276 438 c 0
 276 441 279 444 283 444 c 0
 286 444 289 441 289 438 c 0xfffc18
289 418 m 0
 289 414 286 411 283 411 c 0
 279 411 276 414 276 418 c 0
 276 421 279 424 283 424 c 0
 286 424 289 421 289 418 c 0
305 404 m 0
 305 400 302 397 299 397 c 0
 295 397 292 400 292 404 c 0
 292 407 295 410 299 410 c 0xfffc12
 302 410 305 407 305 404 c 0
125 139 m 0xfffc90
 125 142 128 145 132 145 c 0
 135 145 138 142 138 139 c 0
 138 135 135 132 132 132 c 0
 128 132 125 135 125 139 c 0xfffc90
125 159 m 0
 125 162 128 165 132 165 c 0
 135 165 138 162 138 159 c 0
 138 155 135 152 132 152 c 0
 128 152 125 155 125 159 c 0
109 173 m 0xfffd10
 109 176 112 179 116 179 c 0
 119 179 122 176 122 173 c 0
 122 169 119 166 116 166 c 0
 112 166 109 169 109 173 c 0xfffd10
56 282 m 0
 87 282 110 258 110 231 c 0
 110 204 102 189 87 169 c 0
 80 160 68 151 61 145 c 0
 53 137 50 129 50 129 c 1
 50 129 61 143 78 150 c 0
 91 155 99 157 105 157 c 0
 111 157 115 155 115 151 c 0
 115 143 84 147 59 123 c 0
 53 117 47 99 47 99 c 1
 46 100 27 109 27 129 c 0
 27 160 50 175 50 200 c 0
 50 212 44 219 44 219 c 1
 44 219 44 219 45 219 c 0
 49 219 62 218 71 196 c 0
 76 183 74 173 74 173 c 1
 74 173 96 196 96 224 c 0xfffe10
 96 251 77 269 54 269 c 0
 30 269 13 253 13 231 c 0
 13 213 23 207 23 205 c 0
 23 205 22 205 21 205 c 0
 7 205 1 221 1 236 c 0
 1 266 27 282 56 282 c 0
315 467 m 0
 333 467 352 479 352 501 c 0
 352 515 345 527 333 533 c 1
 333 533 290 533 270 533 c 1
 270 533 290 526 302 513 c 0
 315 499 315 489 305 489 c 0
 299 489 296 499 277 515 c 0
 268 523 250 529 231 533 c 1
 224 501 211 431 211 382 c 0xfffc55
 211 369 211 357 212 345 c 1
 229 319 275 259 347 253 c 0
 426 246 478 227 478 118 c 0
 478 21 404 9 360 1 c 1
 321 -7 282 -10 246 -10 c 0
 191 -10 144 -4 116 0 c 0
 76 6 55 31 55 79 c 0
 55 109 76 128 99 128 c 0
 119 128 133 114 133 98 c 0
 133 82 117 72 103 72 c 0
 89 72 77 80 77 80 c 1
 77 80 76 76 76 71 c 0
 76 57 80 31 106 20 c 0
 118 15 130 12 143 12 c 0
 162 12 182 19 198 35 c 0
 211 48 215 67 215 86 c 0
 215 112 207 136 207 136 c 1
 207 136 206 108 188 80 c 0
 177 62 154 47 139 47 c 0
 137 47 l 0
 137 48 167 57 167 124 c 0xfffc3240
 167 141 165 163 160 189 c 0
 143 274 131 300 131 382 c 0
 131 431 141 501 147 533 c 1
 130 550 l 1
 512 550 l 1
 442 515 l 1
 442 515 446 502 446 486 c 0
 446 458 425 423 411 423 c 0
 408 423 406 425 406 427 c 0
 406 433 422 445 422 471 c 0
 422 496 412 533 384 533 c 2
 370 533 l 1
 384 524 392 503 392 481 c 0
 392 433 347 392 347 356 c 0
 347 344 353 337 353 337 c 1
 353 337 353 337 352 337 c 0xfffc5320
 348 337 335 338 326 360 c 0
 321 373 323 383 323 383 c 1
 323 383 302 367 302 341 c 0
 302 314 321 296 344 296 c 0
 368 296 385 312 385 334 c 0
 385 352 375 358 375 360 c 0
 375 360 376 360 377 360 c 0
 391 360 397 344 397 329 c 0
 397 299 371 283 342 283 c 0
 311 283 288 307 288 334 c 0xfffc1480
 288 361 298 374 310 387 c 0
 318 395 313 396 344 419 c 0
 364 434 364 447 364 447 c 1
 364 447 353 433 336 426 c 0
 323 421 315 419 309 419 c 0
 303 419 299 421 299 424 c 0xfffc12
 299 433 351 428 356 464 c 0
 356 467 357 469 357 472 c 1
 354 466 331 455 310 455 c 0
 291 455 264 470 264 479 c 0
 264 482 266 484 269 484 c 0
 276 484 289 467 315 467 c 0
216 307 m 1
 225 241 244 192 250 125 c 0
 250 119 251 114 251 108 c 0
 251 60 230 39 205 18 c 0
 199 13 193 9 187 6 c 1
 205 5 222 1 242 1 c 0
 270 1 305 8 360 38 c 0
 385 51 396 89 396 128 c 0xfffc1040
 396 179 377 231 343 233 c 0
 282 238 239 278 216 307 c 1
EndSplineSet
Validated: 1
Layer: 2
SplineSet
288.875 437.562 m 132,-1,1
 288.875 431.25 288.875 431.25 282.562 431.25 c 128,-1,2
 276.25 431.25 276.25 431.25 276.25 437.562 c 128,-1,3
 276.25 443.875 276.25 443.875 282.562 443.875 c 128,-1,0
 288.875 443.875 288.875 443.875 288.875 437.562 c 132,-1,1
288.875 417.562 m 132,-1,5
 288.875 411.25 288.875 411.25 282.562 411.25 c 128,-1,6
 276.25 411.25 276.25 411.25 276.25 417.562 c 128,-1,7
 276.25 423.875 276.25 423.875 282.562 423.875 c 128,-1,4
 288.875 423.875 288.875 423.875 288.875 417.562 c 132,-1,5
304.875 403.562 m 132,-1,9
 304.875 397.25 304.875 397.25 298.562 397.25 c 128,-1,10
 292.25 397.25 292.25 397.25 292.25 403.562 c 128,-1,11
 292.25 409.875 292.25 409.875 298.562 409.875 c 128,-1,8
 304.875 409.875 304.875 409.875 304.875 403.562 c 132,-1,9
125.25 138.562 m 128,-1,13
 125.25 144.875 125.25 144.875 131.562 144.875 c 128,-1,14
 137.875 144.875 137.875 144.875 137.875 138.562 c 128,-1,15
 137.875 132.25 137.875 132.25 131.562 132.25 c 128,-1,12
 125.25 132.25 125.25 132.25 125.25 138.562 c 128,-1,13
125.25 158.562 m 128,-1,17
 125.25 164.875 125.25 164.875 131.562 164.875 c 128,-1,18
 137.875 164.875 137.875 164.875 137.875 158.562 c 128,-1,19
 137.875 152.25 137.875 152.25 131.562 152.25 c 128,-1,16
 125.25 152.25 125.25 152.25 125.25 158.562 c 128,-1,17
109.25 172.562 m 128,-1,21
 109.25 178.875 109.25 178.875 115.562 178.875 c 128,-1,22
 121.875 178.875 121.875 178.875 121.875 172.562 c 128,-1,23
 121.875 166.25 121.875 166.25 115.562 166.25 c 128,-1,20
 109.25 166.25 109.25 166.25 109.25 172.562 c 128,-1,21
74 173 m 1,24,25
 75 174 75 174 77 176.5 c 128,-1,26
 79 179 79 179 84.5 187 c 128,-1,27
 90 195 90 195 92 203 c 128,-1,28
 94 211 94 211 96 222.5 c 128,-1,29
 98 234 98 234 92 244 c 1,30,31
 86 260 86 260 70 266 c 128,-1,32
 54 272 54 272 38 266 c 1,33,34
 16 256 16 256 13 237 c 0,35,36
 12 229 12 229 13.5 223 c 128,-1,37
 15 217 15 217 17 214 c 128,-1,38
 19 211 19 211 21 208.5 c 2,39,-1
 23 206 l 1,40,-1
 21 205 l 1,41,42
 8 205 8 205 3 222 c 128,-1,43
 -2 239 -2 239 4 252 c 1,44,45
 11 271 11 271 35.5 279 c 128,-1,46
 60 287 60 287 80 277 c 0,47,48
 110 263 110 263 110 231 c 0,49,50
 110 200 110 200 87 169 c 0,51,52
 83 164 83 164 61 145 c 1,53,-1
 50 129 l 1,54,55
 61 143 61 143 78 150 c 0,56,57
 110 163 110 163 115 153 c 0,58,59
 116 150 116 150 113 148.5 c 128,-1,60
 110 147 110 147 104 145.5 c 128,-1,61
 98 144 98 144 91 141.5 c 128,-1,62
 84 139 84 139 75 134.5 c 128,-1,63
 66 130 66 130 59 123 c 1,64,-1
 47 99 l 1,65,66
 28 107 28 107 27 125 c 0,67,68
 26 144 26 144 38 166.5 c 128,-1,69
 50 189 50 189 50 201 c 0,70,71
 50 206 50 206 48.5 210.5 c 128,-1,72
 47 215 47 215 45.5 217 c 2,73,-1
 44 219 l 1,74,75
 61 221 61 221 71 196 c 1,76,-1
 74 173 l 1,24,25
116 0 m 1,77,78
 55 9 55 9 55 79 c 0,79,80
 55 105 55 105 74 119 c 128,-1,81
 93 133 93 133 114 125 c 0,82,83
 129 119 129 119 132.5 104 c 128,-1,84
 136 89 136 89 125 80 c 0,85,86
 115 72 115 72 103 72 c 128,-1,87
 91 72 91 72 84 76 c 2,88,-1
 77 80 l 1,89,90
 78 78 78 78 76.5 68 c 128,-1,91
 75 58 75 58 82.5 42.5 c 128,-1,92
 90 27 90 27 106 20 c 0,93,94
 160 -3 160 -3 198 35 c 0,95,96
 212 49 212 49 214.5 74.5 c 128,-1,97
 217 100 217 100 212 118 c 2,98,-1
 207 136 l 1,99,100
 206 108 206 108 188 80 c 0,101,102
 180 67 180 67 165 57 c 128,-1,103
 150 47 150 47 139 47 c 0,104,105
 137.116 47 137.116 47 140.428 49.1554 c 0,106,107
 182.637 76.6234 182.637 76.6234 160 189 c 0,108,109
 156 210 156 210 149 242 c 128,-1,110
 142 274 142 274 139 288.5 c 128,-1,111
 136 303 136 303 133.5 328 c 128,-1,112
 131 353 131 353 131 382 c 0,113,114
 131 448 131 448 147 533 c 1,115,-1
 130 550 l 1,116,-1
 512 550 l 1,117,-1
 442 515 l 1,118,119
 451 486 451 486 442 461 c 0,120,121
 435 443 435 443 425 432 c 128,-1,122
 415 421 415 421 408 424 c 1,123,124
 404 429 404 429 407.5 432 c 128,-1,125
 411 435 411 435 417 448 c 128,-1,126
 423 461 423 461 422 475 c 0,127,128
 421 497 421 497 411.5 515 c 128,-1,129
 402 533 402 533 384 533 c 2,130,-1
 370 533 l 1,131,132
 385 523 385 523 390 498 c 128,-1,133
 395 473 395 473 386 451 c 0,134,135
 383 443 383 443 364.5 406.5 c 128,-1,136
 346 370 346 370 347 355 c 0,137,138
 347 350 347 350 348.5 345.5 c 128,-1,139
 350 341 350 341 351.5 339 c 2,140,-1
 353 337 l 1,141,142
 336 335 336 335 326 360 c 1,143,-1
 323 383 l 1,144,145
 322 382 322 382 320 380 c 128,-1,146
 318 378 318 378 313 371.5 c 128,-1,147
 308 365 308 365 305.5 358.5 c 128,-1,148
 303 352 303 352 302 341.5 c 128,-1,149
 301 331 301 331 306 321 c 1,150,151
 312 305 312 305 328 299 c 128,-1,152
 344 293 344 293 360 299 c 1,153,154
 382 309 382 309 385 328 c 0,155,156
 386 336 386 336 384.5 342 c 128,-1,157
 383 348 383 348 381 351 c 128,-1,158
 379 354 379 354 377 356.5 c 2,159,-1
 375 359 l 1,160,-1
 377 360 l 1,161,162
 390 360 390 360 395 343 c 128,-1,163
 400 326 400 326 394 313 c 1,164,165
 387 294 387 294 362.5 286 c 128,-1,166
 338 278 338 278 318 288 c 0,167,168
 288 302 288 302 288 334 c 0,169,170
 288 363 288 363 310 387 c 0,171,172
 312 389 312 389 315 393 c 128,-1,173
 318 397 318 397 324 403 c 128,-1,174
 330 409 330 409 344 419 c 0,175,176
 353 426 353 426 358 433 c 128,-1,177
 363 440 363 440 363.5 443.5 c 2,178,-1
 364 447 l 1,179,180
 353 433 353 433 336 426 c 0,181,182
 304 413 304 413 299 423 c 0,183,184
 298 426 298 426 303 427.5 c 128,-1,185
 308 429 308 429 316 431 c 128,-1,186
 324 433 324 433 332.5 436 c 128,-1,187
 341 439 341 439 348 446.5 c 128,-1,188
 355 454 355 454 356 464 c 0,189,190
 356 466 356 466 356.5 468 c 128,-1,191
 357 470 357 470 357 472 c 1,192,193
 353 465 353 465 332.5 458.5 c 128,-1,194
 312 452 312 452 296 457 c 0,195,196
 270.799 464 270.799 464 264.574 476.64 c 0,197,198
 262.569 480.713 262.569 480.713 266 483 c 0,199,200
 269 485 269 485 274.5 481.5 c 128,-1,201
 280 478 280 478 290.5 472.5 c 128,-1,202
 301 467 301 467 313 467 c 0,203,204
 325 466 325 466 336 472.5 c 128,-1,205
 347 479 347 479 351 491 c 0,206,207
 355 504 355 504 349.5 516 c 128,-1,208
 344 528 344 528 333 533 c 1,209,-1
 270 533 l 1,210,211
 290 526 290 526 302 513 c 0,212,213
 319 494 319 494 309 490 c 1,214,215
 306 490 306 490 304.5 489.5 c 128,-1,216
 303 489 303 489 300 491.5 c 128,-1,217
 297 494 297 494 295 496.5 c 128,-1,218
 293 499 293 499 288 504.5 c 128,-1,219
 283 510 283 510 277 515 c 0,220,221
 265 526 265 526 231 533 c 1,222,223
 211 442 211 442 211 382 c 0,224,225
 211 357 211 357 212 345 c 1,226,227
 268 260 268 260 347 253 c 0,228,229
 415 247 415 247 447 220 c 128,-1,230
 479 193 479 193 478 115 c 0,231,232
 478 88 478 88 468.5 67.5 c 128,-1,233
 459 47 459 47 449 36 c 128,-1,234
 439 25 439 25 419 17 c 128,-1,235
 399 9 399 9 389.5 7 c 128,-1,236
 380 5 380 5 360 1 c 0,237,238
 265 -19 265 -19 116 0 c 1,77,78
216 307 m 1,239,240
 220 278 220 278 233.5 219.5 c 128,-1,241
 247 161 247 161 250 125 c 0,242,243
 253 83 253 83 241.5 61 c 128,-1,244
 230 39 230 39 205 18 c 0,245,246
 196 10.5 196 10.5 187 6 c 1,247,248
 193 6 193 6 212 3.5 c 128,-1,249
 231 1 231 1 241 1.5 c 128,-1,250
 251 2 251 2 270 4 c 128,-1,251
 289 6 289 6 311 14.5 c 128,-1,252
 333 23 333 23 360 38 c 128,-1,253
 387 53 387 53 394.5 100 c 128,-1,254
 402 147 402 147 387 189 c 128,-1,255
 372 231 372 231 343 233 c 0,256,257
 270 239 270 239 216 307 c 1,239,240
EndSplineSet
Substitution2: "'ss01' Style Set Simple Forms-1" uni0411.simple
Colour: ff00
EndChar

StartChar: uni0412
Encoding: 1042 1042 16
Width: 455
Flags: W
HStem: -10 15<157.245 273.501> 72 56<77.0088 131.673> 132 13<125.02 137.981> 152 13<125.02 137.981> 166 13<109.02 121.981> 266 35<385.023 404> 269 13<30.4369 75.9884> 311 11<357.366 399.26> 318 10<330.001 340.998> 334 10<328.001 338.998> 340 10<313.002 323.999> 376 10<238.204 272.246> 388 16<297.397 325.929> 436 35<216.961 260.5> 535 16<248.316 308.15>
VStem: 1 12<213.226 251.27> 55 21<35.7701 94.4985> 96 14<195.569 249.212> 109 13<166.02 178.981> 123 68<337.984 426.007> 125 13<132.02 144.981 152.02 164.981> 176 31<86.5491 135.389> 214 11<329.708 363.23> 215 35<43.8696 134.754> 288 11<325.113 360.956> 313 11<340.023 349.977> 330 11<318.023 327.977 334.503 343.497> 337 56<409.678 521.185> 377 76<61.2915 182.677> 385 38<266.748 300.997>
AnchorPoint: "Yerok" 363 575.9 basechar 0
AnchorPoint: "Diacritic" 275 575 basechar 0
LayerCount: 3
Fore
SplineSet
330 323 m 0xf89f80e0
 330 326 332 328 335 328 c 0
 338 328 341 326 341 323 c 0
 341 320 338 318 335 318 c 0
 332 318 330 320 330 323 c 0xf89f80e0
328 339 m 0
 328 342 330 344 333 344 c 0
 336 344 339 342 339 339 c 0
 339 336 336 334 333 334 c 0xf85f80c0
 330 334 328 336 328 339 c 0
313 345 m 0
 313 348 316 350 319 350 c 0
 322 350 324 348 324 345 c 0
 324 342 322 340 319 340 c 0xf83f80c0
 316 340 313 342 313 345 c 0
125 139 m 0xf81f88c0
 125 142 128 145 132 145 c 0
 135 145 138 142 138 139 c 0
 138 135 135 132 132 132 c 0
 128 132 125 135 125 139 c 0xf81f88c0
125 159 m 0
 125 162 128 165 132 165 c 0
 135 165 138 162 138 159 c 0
 138 155 135 152 132 152 c 0
 128 152 125 155 125 159 c 0
109 173 m 0xf81fa0c0
 109 176 112 179 116 179 c 0
 119 179 122 176 122 173 c 0
 122 169 119 166 116 166 c 0
 112 166 109 169 109 173 c 0xf81fa0c0
192 428 m 1
 203 446 235 471 256 471 c 0
 265 471 272 467 275 455 c 0
 282 426 299 404 313 404 c 0
 326 404 337 421 337 462 c 0xf81f80d0
 337 490 329 535 280 535 c 0
 223 535 195 482 192 428 c 1
236 436 m 0
 218 436 200 416 191 401 c 1
 192 379 195 358 200 337 c 1
 210 323 224 300 254 277 c 1
 258 282 272 299 272 314 c 0
 272 324 260 340 259 341 c 1
 259 341 261 342 263 342 c 0
 269 342 278 339 285 325 c 1
 285 325 288 332 288 342 c 0
 288 361 274 376 254 376 c 0
 236 376 225 361 225 346 c 0
 225 345 225 345 225 344 c 0
 228 324 239 326 236 323 c 0
 235 323 233 322 232 322 c 0
 222 322 214 333 214 349 c 0
 214 351 214 352 214 354 c 0
 217 373 236 386 257 386 c 0
 280 386 299 367 299 343 c 0
 299 324 288 306 288 306 c 1
 288 306 309 332 320 332 c 0
 321 332 324 331 324 330 c 0
 324 324 301 310 284 293 c 0
 275 284 263 268 263 268 c 1
 267 264 272 261 272 261 c 1
 287 277 326 302 341 310 c 0
 354 316 370 322 385 322 c 0
 399 322 423 314 423 294 c 0
 423 281 411 266 400 266 c 0
 393 266 385 277 385 284 c 0
 385 297 404 301 404 301 c 0xfd5f92e4
 398 308 391 311 382 311 c 0
 367 311 349 303 335 295 c 0
 327 290 294 268 282 253 c 1
 296 245 l 1
 299 248 304 253 312 261 c 0
 324 273 343 282 349 282 c 0
 351 282 351 281 351 280 c 0
 350 272 333 268 318 254 c 0
 318 254 313 249 305 240 c 1
 320 234 l 1
 321 235 328 243 329 243 c 0
 337 252 345 256 350 256 c 0
 352 256 354 256 355 254 c 0
 358 247 343 248 335 238 c 1
 332 231 l 1
 332 231 453 225 453 114 c 0
 453 18 388 9 345 0 c 0
 309 -7 272 -10 238 -10 c 0
 170 -10 116 0 116 0 c 1
 76 6 55 31 55 79 c 0
 55 109 76 128 99 128 c 0
 119 128 133 114 133 98 c 0
 133 82 117 72 103 72 c 0
 89 72 77 80 77 80 c 1
 77 80 76 76 76 71 c 0
 76 57 80 31 106 20 c 0
 118 15 130 12 143 12 c 0
 162 12 182 19 198 35 c 0
 211 48 215 67 215 86 c 0
 215 112 207 136 207 136 c 1
 207 136 206 108 188 80 c 0
 177 62 154 47 139 47 c 0
 138 47 l 0
 138 49 176 58 176 115 c 0xfb1f8dc8
 176 134 172 158 160 189 c 0
 125 282 123 300 123 382 c 0xfb1f90c0
 123 467 173 545 256 550 c 0
 263 550 270 551 276 551 c 0
 359 551 393 516 393 463 c 0
 393 411 351 388 313 388 c 0
 296 388 280 393 268 401 c 0
 249 414 250 436 236 436 c 0
250 125 m 0xf81f81c8
 250 52 228 22 179 6 c 1
 188 5 199 5 210 5 c 0
 254 5 311 13 355 60 c 0
 369 75 377 102 377 129 c 0
 377 165 362 203 328 211 c 0
 281 222 240 261 213 292 c 1
 230 239 250 186 250 125 c 0xf81f81c8
56 282 m 0xfa1fc0c0
 87 282 110 258 110 231 c 0
 110 204 102 189 87 169 c 0
 80 160 68 151 61 145 c 0
 53 137 50 129 50 129 c 1
 50 129 61 143 78 150 c 0
 91 155 99 157 105 157 c 0
 111 157 115 155 115 151 c 0
 115 143 84 147 59 123 c 0
 53 117 47 99 47 99 c 1
 46 100 27 109 27 129 c 0
 27 160 50 175 50 200 c 0
 50 212 44 219 44 219 c 1
 44 219 44 219 45 219 c 0
 49 219 62 218 71 196 c 0
 76 183 74 173 74 173 c 1
 74 173 96 196 96 224 c 0
 96 251 77 269 54 269 c 0
 30 269 13 253 13 231 c 0
 13 213 23 207 23 205 c 0
 23 205 22 205 21 205 c 0
 7 205 1 221 1 236 c 0
 1 266 27 282 56 282 c 0xfa1fc0c0
EndSplineSet
Validated: 1
Layer: 2
SplineSet
329.997 323.112 m 128,-1,1
 329.997 328.479 329.997 328.479 335.362 328.479 c 128,-1,2
 340.729 328.479 340.729 328.479 340.729 323.112 c 128,-1,3
 340.729 317.747 340.729 317.747 335.362 317.747 c 128,-1,0
 329.997 317.747 329.997 317.747 329.997 323.112 c 128,-1,1
327.997 339.112 m 128,-1,5
 327.997 344.479 327.997 344.479 333.362 344.479 c 128,-1,6
 338.729 344.479 338.729 344.479 338.729 339.112 c 128,-1,7
 338.729 333.747 338.729 333.747 333.362 333.747 c 128,-1,4
 327.997 333.747 327.997 333.747 327.997 339.112 c 128,-1,5
313.396 345.013 m 128,-1,9
 313.396 350.378 313.396 350.378 318.763 350.378 c 128,-1,10
 324.128 350.378 324.128 350.378 324.128 345.013 c 128,-1,11
 324.128 339.646 324.128 339.646 318.763 339.646 c 128,-1,8
 313.396 339.646 313.396 339.646 313.396 345.013 c 128,-1,9
125.25 138.562 m 128,-1,13
 125.25 144.875 125.25 144.875 131.562 144.875 c 128,-1,14
 137.875 144.875 137.875 144.875 137.875 138.562 c 128,-1,15
 137.875 132.25 137.875 132.25 131.562 132.25 c 128,-1,12
 125.25 132.25 125.25 132.25 125.25 138.562 c 128,-1,13
125.25 158.562 m 128,-1,17
 125.25 164.875 125.25 164.875 131.562 164.875 c 128,-1,18
 137.875 164.875 137.875 164.875 137.875 158.562 c 128,-1,19
 137.875 152.25 137.875 152.25 131.562 152.25 c 128,-1,16
 125.25 152.25 125.25 152.25 125.25 158.562 c 128,-1,17
109.25 172.562 m 128,-1,21
 109.25 178.875 109.25 178.875 115.562 178.875 c 128,-1,22
 121.875 178.875 121.875 178.875 121.875 172.562 c 128,-1,23
 121.875 166.25 121.875 166.25 115.562 166.25 c 128,-1,20
 109.25 166.25 109.25 166.25 109.25 172.562 c 128,-1,21
192 428 m 1,24,25
 207 451 207 451 236 465.5 c 128,-1,26
 265 480 265 480 275 455 c 1,27,28
 282 427 282 427 297 412 c 128,-1,29
 312 397 312 397 324.5 409.5 c 128,-1,30
 337 422 337 422 337 465 c 0,31,32
 337 494 337 494 322.5 516 c 128,-1,33
 308 538 308 538 270 534 c 0,34,35
 235 530 235 530 214.5 499.5 c 128,-1,36
 194 469 194 469 192 428 c 1,24,25
200 337 m 0,37,38
 201.06 335.517 201.06 335.517 205.244 329.493 c 128,-1,39
 209.427 323.47 209.427 323.47 211.772 320.243 c 128,-1,40
 214.117 317.016 214.117 317.016 219.162 310.719 c 128,-1,41
 224.207 304.421 224.207 304.421 228.666 299.736 c 128,-1,42
 233.124 295.051 233.124 295.051 239.748 288.944 c 128,-1,43
 246.371 282.836 246.371 282.836 253.548 277.333 c 1,44,45
 257.733 281.519 257.733 281.519 262.184 288.025 c 128,-1,46
 266.634 294.531 266.634 294.531 270.92 305.531 c 128,-1,47
 275.205 316.531 275.205 316.531 270 324 c 2,48,-1
 259 341 l 1,49,50
 275 346 275 346 285 325 c 1,51,52
 294 346 294 346 281 364 c 1,53,54
 273 373 273 373 260 375.5 c 128,-1,55
 247 378 247 378 237 371 c 0,56,57
 223 361 223 361 225 344 c 0,58,59
 226 338 226 338 227.5 334 c 128,-1,60
 229 330 229 330 231 328.5 c 128,-1,61
 233 327 233 327 234.5 326 c 128,-1,62
 236 325 236 325 236.5 324.5 c 128,-1,63
 237 324 237 324 236 323 c 0,64,65
 226 320 226 320 219.5 329.5 c 128,-1,66
 213 339 213 339 214 354 c 0,67,68
 216 370 216 370 231.5 379 c 128,-1,69
 247 388 247 388 265 385 c 0,70,71
 287 382 287 382 296 358 c 0,72,73
 300 346 300 346 298.5 334.5 c 128,-1,74
 297 323 297 323 292.5 314.5 c 2,75,-1
 288 306 l 1,76,77
 288 306 288 306 306.792 325.656 c 1,78,79
 318.32 335.16 318.32 335.16 323 331 c 0,80,81
 325.215 329.228 325.215 329.228 319.96 324.143 c 128,-1,82
 314.705 319.058 314.705 319.058 302.921 309.477 c 128,-1,83
 291.136 299.896 291.136 299.896 284.214 293.001 c 0,84,85
 280.061 288.865 280.061 288.865 274.595 282.738 c 128,-1,86
 269.129 276.612 269.129 276.612 265.653 272.408 c 128,-1,87
 262.176 268.203 262.176 268.203 262.547 268.333 c 2,88,-1
 271.547 260.667 l 1,89,90
 293.755 284.356 293.755 284.356 341.214 309.667 c 1,91,92
 399.439 338.78 399.439 338.78 421 302 c 1,93,94
 425 293 425 293 419.5 281.5 c 128,-1,95
 414 270 414 270 405.5 267 c 128,-1,96
 397 264 397 264 389 273 c 1,97,98
 383 284 383 284 386.5 290 c 128,-1,99
 390 296 390 296 397 298.5 c 2,100,-1
 404 301 l 1,101,102
 387 324 387 324 335 295 c 1,103,104
 296 271 296 271 282 253 c 1,105,106
 295.901 244.829 295.901 244.829 296 245 c 0,107,108
 305.209 254.643 305.209 254.643 312.213 261.335 c 0,109,110
 331.708 279.961 331.708 279.961 348.386 281.693 c 0,111,112
 351.678 282.034 351.678 282.034 351 280 c 0,113,114
 350.567 276.534 350.567 276.534 345.787 273.162 c 128,-1,115
 341.007 269.789 341.007 269.789 332.467 264.616 c 128,-1,116
 323.926 259.442 323.926 259.442 317.999 253.999 c 0,117,118
 316.363 252.496 316.363 252.496 305 240 c 1,119,-1
 320 234 l 2,120,121
 320.237 234.237 320.237 234.237 322.306 236.643 c 128,-1,122
 324.376 239.049 324.376 239.049 326.24 241.025 c 128,-1,123
 328.103 243.001 328.103 243.001 328.546 243.001 c 0,124,125
 337.115 252.284 337.115 252.284 345.148 255.251 c 128,-1,126
 353.181 258.217 353.181 258.217 355 254 c 0,127,128
 356.275 251.024 356.275 251.024 353.143 249.302 c 128,-1,129
 350.01 247.58 350.01 247.58 344.182 244.809 c 128,-1,130
 338.355 242.037 338.355 242.037 335.213 237.667 c 2,131,-1
 332 231 l 1,132,133
 337 231 337 231 345 230 c 128,-1,134
 353 229 353 229 374 221.5 c 128,-1,135
 395 214 395 214 411 203 c 128,-1,136
 427 192 427 192 440 168 c 128,-1,137
 453 144 453 144 453 113 c 0,138,139
 453 86 453 86 444.5 65.5 c 128,-1,140
 436 45 436 45 428 35 c 128,-1,141
 420 25 420 25 400.5 16.5 c 128,-1,142
 381 8 381 8 374 6.5 c 128,-1,143
 367 5 367 5 345 0 c 0,144,145
 297 -10 297 -10 240 -10 c 128,-1,146
 183 -10 183 -10 149.5 -5 c 2,147,-1
 116 0 l 2,148,149
 55 9 55 9 55 79 c 0,150,151
 55 105 55 105 74 119 c 128,-1,152
 93 133 93 133 114 125 c 0,153,154
 129 119 129 119 132.5 104 c 128,-1,155
 136 89 136 89 125 80 c 0,156,157
 115 72 115 72 103 72 c 128,-1,158
 91 72 91 72 84 76 c 2,159,-1
 77 80 l 1,160,161
 78 78 78 78 76.5 68 c 128,-1,162
 75 58 75 58 82.5 42.5 c 128,-1,163
 90 27 90 27 106 20 c 0,164,165
 160 -3 160 -3 198 35 c 0,166,167
 212 49 212 49 214.5 74.5 c 128,-1,168
 217 100 217 100 212 118 c 2,169,-1
 207 136 l 1,170,171
 206 108 206 108 188 80 c 0,172,173
 180 67 180 67 165 57 c 128,-1,174
 150 47 150 47 139 47 c 0,175,176
 137 47 137 47 139 48 c 128,-1,177
 141 49 141 49 146.5 52.5 c 128,-1,178
 152 56 152 56 158 61.5 c 128,-1,179
 164 67 164 67 169 78 c 128,-1,180
 174 89 174 89 176 103 c 128,-1,181
 178 117 178 117 174 139.5 c 128,-1,182
 170 162 170 162 160 189 c 0,183,184
 134 257 134 257 128.5 288 c 128,-1,185
 123 319 123 319 123 382 c 0,186,187
 123 448 123 448 159.5 497 c 128,-1,188
 196 546 196 546 256 550 c 0,189,190
 393 558 393 558 393 463 c 0,191,192
 393 436 393 436 379 418 c 128,-1,193
 365 400 365 400 345 393.5 c 128,-1,194
 325 387 325 387 303.5 389 c 128,-1,195
 282 391 282 391 268 401 c 0,196,197
 260 406 260 406 254.5 415.5 c 128,-1,198
 249 425 249 425 246 430 c 128,-1,199
 243 435 243 435 235 435 c 128,-1,200
 227 435 227 435 212 426 c 0,201,202
 202 420 202 420 191 401 c 1,203,204
 192 369 192 369 200 337 c 0,37,38
179 6 m 1,205,206
 296 -2 296 -2 355 60 c 1,207,208
 382 86 382 86 376 143.5 c 128,-1,209
 370 201 370 201 328 211 c 0,210,211
 272 224 272 224 213 292 c 1,212,213
 215 287 215 287 220.5 270 c 128,-1,214
 226 253 226 253 228 246 c 128,-1,215
 230 239 230 239 234.5 224 c 128,-1,216
 239 209 239 209 241 199 c 128,-1,217
 243 189 243 189 245.5 176 c 128,-1,218
 248 163 248 163 249 150.5 c 128,-1,219
 250 138 250 138 250 125 c 0,220,221
 250 81 250 81 239.5 57.5 c 128,-1,222
 229 34 229 34 205 18 c 0,223,224
 194 11 194 11 179 6 c 1,205,206
74 173 m 1,225,226
 75 174 75 174 77 176.5 c 128,-1,227
 79 179 79 179 84.5 187 c 128,-1,228
 90 195 90 195 92 203 c 128,-1,229
 94 211 94 211 96 222.5 c 128,-1,230
 98 234 98 234 92 244 c 1,231,232
 86 260 86 260 70 266 c 128,-1,233
 54 272 54 272 38 266 c 1,234,235
 16 256 16 256 13 237 c 0,236,237
 12 229 12 229 13.5 223 c 128,-1,238
 15 217 15 217 17 214 c 128,-1,239
 19 211 19 211 21 208.5 c 2,240,-1
 23 206 l 1,241,-1
 21 205 l 1,242,243
 8 205 8 205 3 222 c 128,-1,244
 -2 239 -2 239 4 252 c 1,245,246
 11 271 11 271 35.5 279 c 128,-1,247
 60 287 60 287 80 277 c 0,248,249
 110 263 110 263 110 231 c 0,250,251
 110 200 110 200 87 169 c 0,252,253
 83 164 83 164 61 145 c 1,254,-1
 50 129 l 1,255,256
 61 143 61 143 78 150 c 0,257,258
 110 163 110 163 115 153 c 0,259,260
 116 150 116 150 113 148.5 c 128,-1,261
 110 147 110 147 104 145.5 c 128,-1,262
 98 144 98 144 91 141.5 c 128,-1,263
 84 139 84 139 75 134.5 c 128,-1,264
 66 130 66 130 59 123 c 1,265,-1
 47 99 l 1,266,267
 28 107 28 107 27 125 c 0,268,269
 26 144 26 144 38 166.5 c 128,-1,270
 50 189 50 189 50 201 c 0,271,272
 50 206 50 206 48.5 210.5 c 128,-1,273
 47 215 47 215 45.5 217 c 2,274,-1
 44 219 l 1,275,276
 61 221 61 221 71 196 c 1,277,-1
 74 173 l 1,225,226
EndSplineSet
Substitution2: "'ss01' Style Set Simple Forms-1" uni0412.simple
Colour: ff00
EndChar

StartChar: uni0410.simple
Encoding: 62736 62736 17
Width: 430
GlyphClass: 2
Flags: W
HStem: 0 14<30.9379 76.4139 283 309 385 411> 42 35<21 40.7725> 147 19<156 309> 538 12<283 309 385 411>
VStem: -0 21<20.9871 42> 91 65<38.1357 147> 309 76<12 147 166 418 420.428 538>
AnchorPoint: "Yerok" 348.5 581 basechar 0
AnchorPoint: "Diacritic" 348 579 basechar 0
LayerCount: 3
Fore
SplineSet
309 166 m 1
 309 418 l 1
 288 390 232 349 195 281 c 0
 167 230 159 195 156 166 c 1
 309 166 l 1
-0 51 m 0
 -0 68 8 77 20 77 c 0
 31 77 41 70 41 63 c 0
 41 44 28 42 24 42 c 0
 21 42 l 1
 21 23 36 14 52 14 c 0
 60 14 68 16 75 20 c 0
 91 29 92 62 92 62 c 1
 92 62 85 55 78 50 c 0
 69 44 59 46 59 46 c 1
 59 46 79 58 88 84 c 0
 90 90 91 98 91 108 c 0
 91 115 91 123 91 132 c 0
 91 158 93 193 112 236 c 0
 144 308 309 437 309 437 c 1
 309 538 l 1
 283 538 l 1
 283 550 l 1
 411 550 l 1
 411 538 l 1
 385 538 l 1
 385 12 l 1
 411 12 l 1
 411 0 l 1
 283 0 l 1
 283 12 l 1
 309 12 l 1
 309 147 l 1
 309 147 156 147 155 147 c 1
 155 135 156 124 156 113 c 0
 156 104 155 95 154 86 c 0
 148 31 98 0 49 0 c 0
 20 0 -0 24 -0 51 c 0
EndSplineSet
Validated: 1
Layer: 2
SplineSet
309 166 m 1,0,-1
 309 418 l 1,1,2
 263 370 l 2,3,4
 217 322 217 322 195 281 c 0,5,6
 162 220 162 220 156 166 c 1,7,-1
 309 166 l 1,0,-1
155 147 m 1,8,9
 155 93 155 93 154 86 c 0,10,11
 150 47 150 47 119 23.5 c 128,-1,12
 88 0 88 0 49 0 c 0,13,14
 26 0 26 0 11.5 18 c 128,-1,15
 -3 36 -3 36 0 58 c 0,16,17
 2 72 2 72 12.5 75.5 c 128,-1,18
 23 79 23 79 32.5 74.5 c 128,-1,19
 42 70 42 70 41 62 c 0,20,21
 40 51 40 51 35 46 c 128,-1,22
 30 41 30 41 25.5 41.5 c 2,23,-1
 21 42 l 1,24,25
 21 22 21 22 40.5 16 c 128,-1,26
 60 10 60 10 75 20 c 0,27,28
 82 24 82 24 86.5 34.5 c 128,-1,29
 91 45 91 45 91.5 53.5 c 2,30,-1
 92 62 l 1,31,32
 85 55 85 55 78 50 c 0,33,34
 74 47 74 47 69 46 c 128,-1,35
 64 45 64 45 61.5 45.5 c 2,36,-1
 59 46 l 1,37,38
 79 58 79 58 88 84 c 0,39,40
 89 88 89 88 90.5 139.5 c 128,-1,41
 92 191 92 191 112 236 c 0,42,43
 126 268 126 268 175.5 318 c 128,-1,44
 225 368 225 368 267 402.5 c 2,45,-1
 309 437 l 1,46,-1
 309 538 l 1,47,-1
 283 538 l 1,48,-1
 283 550 l 1,49,-1
 411 550 l 1,50,-1
 411 538 l 1,51,-1
 385 538 l 1,52,-1
 385 12 l 1,53,-1
 411 12 l 1,54,-1
 411 0 l 1,55,-1
 283 0 l 1,56,-1
 283 12 l 1,57,-1
 309 12 l 1,58,-1
 309 147 l 1,59,-1
 155 147 l 1,8,9
EndSplineSet
Colour: ff00
EndChar

StartChar: uni0411.simple
Encoding: 62737 62737 18
Width: 470
GlyphClass: 2
Flags: W
HStem: -10 11<132.962 228.962> 72 56<22.0088 76.6734> 283 13<267.012 312.563> 397 13<237.02 249.981> 411 13<221.02 233.981> 431 13<221.02 233.981> 455 12<235.007 281.043> 533 17<215 288.521 315 348.531>
VStem: 0 21<35.7701 94.4985> 76 80<285.262 531.472> 112 40<81.3124 135.864> 160 36<46.6054 134.307> 221 13<411.02 423.981 431.02 443.981> 233 14<315.788 365.732 398.254 408.806> 244 48<350 428.19> 297 40<435.687 531.33> 330 12<313.73 351.774> 341 82<49.6809 207.185> 367 24<445.063 515.957>
AnchorPoint: "Yerok" 391.5 575 basechar 0
AnchorPoint: "Diacritic" 257 575 basechar 0
LayerCount: 3
Fore
SplineSet
234 438 m 0xff98
 234 434 231 431 228 431 c 0
 224 431 221 434 221 438 c 0
 221 441 224 444 228 444 c 0
 231 444 234 441 234 438 c 0xff98
234 418 m 0
 234 414 231 411 228 411 c 0
 224 411 221 414 221 418 c 0
 221 421 224 424 228 424 c 0
 231 424 234 421 234 418 c 0
250 404 m 0
 250 400 247 397 244 397 c 0
 240 397 237 400 237 404 c 0
 237 407 240 410 244 410 c 0xff92
 247 410 250 407 250 404 c 0
260 467 m 0
 278 467 297 479 297 501 c 0
 297 515 290 527 278 533 c 1
 278 533 235 533 215 533 c 1
 215 533 235 526 247 513 c 0
 260 499 260 489 250 489 c 0
 244 489 241 499 222 515 c 0
 213 523 195 529 176 533 c 1
 169 501 156 431 156 382 c 0xffd5
 156 369 156 357 157 345 c 1
 174 319 220 259 292 253 c 0
 371 246 423 227 423 118 c 0
 423 21 349 9 305 1 c 1
 266 -7 227 -10 191 -10 c 0
 136 -10 89 -4 61 0 c 0
 21 6 0 31 0 79 c 0
 0 109 21 128 44 128 c 0
 64 128 78 114 78 98 c 0
 78 82 62 72 48 72 c 0
 34 72 22 80 22 80 c 1
 22 80 21 76 21 71 c 0
 21 57 25 31 51 20 c 0
 63 15 75 12 88 12 c 0
 107 12 127 19 143 35 c 0
 156 48 160 67 160 86 c 0
 160 112 152 136 152 136 c 1
 152 136 151 108 133 80 c 0
 122 62 99 47 84 47 c 0
 82 47 l 0
 82 48 112 57 112 124 c 0xffb240
 112 141 110 163 105 189 c 0
 88 274 76 300 76 382 c 0
 76 431 86 501 92 533 c 1
 75 550 l 1
 457 550 l 1
 387 515 l 1
 387 515 391 502 391 486 c 0
 391 458 370 423 356 423 c 0
 353 423 351 425 351 427 c 0
 351 433 367 445 367 471 c 0
 367 496 357 533 329 533 c 2
 315 533 l 1
 329 524 337 503 337 481 c 0
 337 433 292 392 292 356 c 0
 292 344 298 337 298 337 c 1
 298 337 298 337 297 337 c 0xffd320
 293 337 280 338 271 360 c 0
 266 373 268 383 268 383 c 1
 268 383 247 367 247 341 c 0
 247 314 266 296 289 296 c 0
 313 296 330 312 330 334 c 0
 330 352 320 358 320 360 c 0
 320 360 321 360 322 360 c 0
 336 360 342 344 342 329 c 0
 342 299 316 283 287 283 c 0
 256 283 233 307 233 334 c 0xff9480
 233 361 243 374 255 387 c 0
 263 395 258 396 289 419 c 0
 309 434 309 447 309 447 c 1
 309 447 298 433 281 426 c 0
 268 421 260 419 254 419 c 0
 248 419 244 421 244 424 c 0
 244 433 296 428 301 464 c 0
 301 467 302 469 302 472 c 1
 299 466 276 455 255 455 c 0
 236 455 209 470 209 479 c 0
 209 482 211 484 214 484 c 0
 221 484 234 467 260 467 c 0
161 307 m 1
 170 241 189 192 195 125 c 0
 195 119 196 114 196 108 c 0
 196 60 175 39 150 18 c 0
 144 13 138 9 132 6 c 1
 150 5 167 1 187 1 c 0
 215 1 250 8 305 38 c 0
 330 51 341 89 341 128 c 0xff9040
 341 179 322 231 288 233 c 0
 227 238 184 278 161 307 c 1
EndSplineSet
Validated: 1
Layer: 2
SplineSet
233.875 437.562 m 128,-1,1
 233.875 431.25 233.875 431.25 227.562 431.25 c 128,-1,2
 221.25 431.25 221.25 431.25 221.25 437.562 c 128,-1,3
 221.25 443.875 221.25 443.875 227.562 443.875 c 128,-1,0
 233.875 443.875 233.875 443.875 233.875 437.562 c 128,-1,1
233.875 417.562 m 128,-1,5
 233.875 411.25 233.875 411.25 227.562 411.25 c 128,-1,6
 221.25 411.25 221.25 411.25 221.25 417.562 c 128,-1,7
 221.25 423.875 221.25 423.875 227.562 423.875 c 128,-1,4
 233.875 423.875 233.875 423.875 233.875 417.562 c 128,-1,5
249.875 403.562 m 128,-1,9
 249.875 397.25 249.875 397.25 243.562 397.25 c 128,-1,10
 237.25 397.25 237.25 397.25 237.25 403.562 c 128,-1,11
 237.25 409.875 237.25 409.875 243.562 409.875 c 128,-1,8
 249.875 409.875 249.875 409.875 249.875 403.562 c 128,-1,9
61 0 m 1,12,13
 0 9 0 9 0 79 c 0,14,15
 0 105 0 105 19 119 c 128,-1,16
 38 133 38 133 59 125 c 0,17,18
 74 119 74 119 77.5 104 c 128,-1,19
 81 89 81 89 70 80 c 0,20,21
 60 72 60 72 48 72 c 128,-1,22
 36 72 36 72 29 76 c 2,23,-1
 22 80 l 1,24,25
 23 78 23 78 21.5 68 c 128,-1,26
 20 58 20 58 27.5 42.5 c 128,-1,27
 35 27 35 27 51 20 c 0,28,29
 105 -3 105 -3 143 35 c 0,30,31
 157 49 157 49 159.5 74.5 c 128,-1,32
 162 100 162 100 157 118 c 2,33,-1
 152 136 l 1,34,35
 151 108 151 108 133 80 c 0,36,37
 125 67 125 67 110 57 c 128,-1,38
 95 47 95 47 84 47 c 0,39,40
 82.1161 47 82.1161 47 85.4282 49.1554 c 0,41,42
 127.637 76.6234 127.637 76.6234 105 189 c 0,43,44
 101 210 101 210 94 242 c 128,-1,45
 87 274 87 274 84 288.5 c 128,-1,46
 81 303 81 303 78.5 328 c 128,-1,47
 76 353 76 353 76 382 c 0,48,49
 76 448 76 448 92 533 c 1,50,-1
 75 550 l 1,51,-1
 457 550 l 1,52,-1
 387 515 l 1,53,54
 396 486 396 486 387 461 c 0,55,56
 380 443 380 443 370 432 c 128,-1,57
 360 421 360 421 353 424 c 1,58,59
 349 429 349 429 352.5 432 c 128,-1,60
 356 435 356 435 362 448 c 128,-1,61
 368 461 368 461 367 475 c 0,62,63
 366 497 366 497 356.5 515 c 128,-1,64
 347 533 347 533 329 533 c 2,65,-1
 315 533 l 1,66,67
 330 523 330 523 335 498 c 128,-1,68
 340 473 340 473 331 451 c 0,69,70
 328 443 328 443 309.5 406.5 c 128,-1,71
 291 370 291 370 292 355 c 0,72,73
 292 350 292 350 293.5 345.5 c 128,-1,74
 295 341 295 341 296.5 339 c 2,75,-1
 298 337 l 1,76,77
 281 335 281 335 271 360 c 1,78,-1
 268 383 l 1,79,80
 267 382 267 382 265 380 c 128,-1,81
 263 378 263 378 258 371.5 c 128,-1,82
 253 365 253 365 250.5 358.5 c 128,-1,83
 248 352 248 352 247 341.5 c 128,-1,84
 246 331 246 331 251 321 c 1,85,86
 257 305 257 305 273 299 c 128,-1,87
 289 293 289 293 305 299 c 1,88,89
 327 309 327 309 330 328 c 0,90,91
 331 336 331 336 329.5 342 c 128,-1,92
 328 348 328 348 326 351 c 128,-1,93
 324 354 324 354 322 356.5 c 2,94,-1
 320 359 l 1,95,-1
 322 360 l 1,96,97
 335 360 335 360 340 343 c 128,-1,98
 345 326 345 326 339 313 c 1,99,100
 332 294 332 294 307.5 286 c 128,-1,101
 283 278 283 278 263 288 c 0,102,103
 233 302 233 302 233 334 c 0,104,105
 233 363 233 363 255 387 c 0,106,107
 257 389 257 389 260 393 c 128,-1,108
 263 397 263 397 269 403 c 128,-1,109
 275 409 275 409 289 419 c 0,110,111
 298 426 298 426 303 433 c 128,-1,112
 308 440 308 440 308.5 443.5 c 2,113,-1
 309 447 l 1,114,115
 298 433 298 433 281 426 c 0,116,117
 249 413 249 413 244 423 c 0,118,119
 243 426 243 426 248 427.5 c 128,-1,120
 253 429 253 429 261 431 c 128,-1,121
 269 433 269 433 277.5 436 c 128,-1,122
 286 439 286 439 293 446.5 c 128,-1,123
 300 454 300 454 301 464 c 0,124,125
 301 466 301 466 301.5 468 c 128,-1,126
 302 470 302 470 302 472 c 1,127,128
 298 465 298 465 277.5 458.5 c 128,-1,129
 257 452 257 452 241 457 c 0,130,131
 215.799 464 215.799 464 209.574 476.64 c 0,132,133
 207.569 480.713 207.569 480.713 211 483 c 0,134,135
 214 485 214 485 219.5 481.5 c 128,-1,136
 225 478 225 478 235.5 472.5 c 128,-1,137
 246 467 246 467 258 467 c 0,138,139
 270 466 270 466 281 472.5 c 128,-1,140
 292 479 292 479 296 491 c 0,141,142
 300 504 300 504 294.5 516 c 128,-1,143
 289 528 289 528 278 533 c 1,144,-1
 215 533 l 1,145,146
 235 526 235 526 247 513 c 0,147,148
 264 494 264 494 254 490 c 1,149,150
 251 490 251 490 249.5 489.5 c 128,-1,151
 248 489 248 489 245 491.5 c 128,-1,152
 242 494 242 494 240 496.5 c 128,-1,153
 238 499 238 499 233 504.5 c 128,-1,154
 228 510 228 510 222 515 c 0,155,156
 210 526 210 526 176 533 c 1,157,158
 156 442 156 442 156 382 c 0,159,160
 156 357 156 357 157 345 c 1,161,162
 213 260 213 260 292 253 c 0,163,164
 360 247 360 247 392 220 c 128,-1,165
 424 193 424 193 423 115 c 0,166,167
 423 88 423 88 413.5 67.5 c 128,-1,168
 404 47 404 47 394 36 c 128,-1,169
 384 25 384 25 364 17 c 128,-1,170
 344 9 344 9 334.5 7 c 128,-1,171
 325 5 325 5 305 1 c 0,172,173
 210 -19 210 -19 61 0 c 1,12,13
161 307 m 1,174,175
 165 278 165 278 178.5 219.5 c 128,-1,176
 192 161 192 161 195 125 c 0,177,178
 198 83 198 83 186.5 61 c 128,-1,179
 175 39 175 39 150 18 c 0,180,181
 141 10.5 141 10.5 132 6 c 1,182,183
 138 6 138 6 157 3.5 c 128,-1,184
 176 1 176 1 186 1.5 c 128,-1,185
 196 2 196 2 215 4 c 128,-1,186
 234 6 234 6 256 14.5 c 128,-1,187
 278 23 278 23 305 38 c 128,-1,188
 332 53 332 53 339.5 100 c 128,-1,189
 347 147 347 147 332 189 c 128,-1,190
 317 231 317 231 288 233 c 0,191,192
 215 239 215 239 161 307 c 1,174,175
EndSplineSet
Colour: ff00
EndChar

StartChar: uni0412.simple
Encoding: 62738 62738 19
Width: 405
GlyphClass: 2
Flags: W
HStem: -10 13<124.616 229.613> 72 56<22.0088 76.6734> 388 16<242.397 270.929> 436 35<161.893 205.5> 535 16<193.316 253.15>
VStem: 0 21<35.7701 94.4985> 68 68<362.966 426.325> 121 31<86.5491 135.389> 160 35<43.8696 134.834> 282 56<409.678 521.185> 320 78<58.1745 213.096>
AnchorPoint: "Yerok" 318 575.9 basechar 0
AnchorPoint: "Diacritic" 210 575 basechar 0
LayerCount: 3
Fore
SplineSet
137 428 m 1xfcc0
 148 446 180 471 201 471 c 0
 210 471 217 467 220 455 c 0
 227 426 244 404 258 404 c 0
 271 404 282 421 282 462 c 0
 282 490 274 535 225 535 c 0
 168 535 140 482 137 428 c 1xfcc0
78 98 m 0
 78 82 62 72 48 72 c 0
 34 72 22 80 22 80 c 1
 22 80 21 76 21 71 c 0
 21 57 25 31 51 20 c 0
 63 15 75 12 88 12 c 0
 107 12 127 19 143 35 c 0
 156 48 160 67 160 86 c 0
 160 112 152 136 152 136 c 1
 152 136 151 108 133 80 c 0
 122 62 99 47 84 47 c 0
 83 47 l 0
 83 49 121 58 121 115 c 0xfda0
 121 134 117 158 105 189 c 0
 70 282 68 300 68 382 c 0
 68 467 118 545 201 550 c 0
 208 550 215 551 221 551 c 0
 304 551 338 516 338 463 c 0xfec0
 338 411 296 388 258 388 c 0
 241 388 225 393 213 401 c 0
 194 414 195 436 181 436 c 0
 175 436 168 433 157 426 c 0
 149 421 145 413 136 401 c 1
 137 379 136 383 141 362 c 1
 141 362 194 275 263 262 c 0
 338 248 398 248 398 131 c 0xfea0
 398 38 333 9 290 0 c 0
 254 -7 217 -10 183 -10 c 0
 115 -10 61 0 61 0 c 0
 21 6 0 31 0 79 c 0
 0 109 21 128 44 128 c 0
 64 128 78 114 78 98 c 0
195 125 m 0
 195 52 173 22 124 6 c 1
 138 5 156 3 175 3 c 0
 219 3 270 12 300 60 c 0
 313 80 320 109 320 137 c 0
 320 184 300 231 259 242 c 0
 210 255 181 286 154 317 c 1
 171 264 195 186 195 125 c 0
EndSplineSet
Validated: 1
Layer: 2
SplineSet
137 428 m 1,0,1
 152 451 152 451 181 465.5 c 128,-1,2
 210 480 210 480 220 455 c 1,3,4
 227 427 227 427 242 412 c 128,-1,5
 257 397 257 397 269.5 409.5 c 128,-1,6
 282 422 282 422 282 465 c 0,7,8
 282 494 282 494 267.5 516 c 128,-1,9
 253 538 253 538 215 534 c 0,10,11
 180 530 180 530 159.5 499.5 c 128,-1,12
 139 469 139 469 137 428 c 1,0,1
141 362 m 1,13,14
 147 352 147 352 157.5 337.5 c 128,-1,15
 168 323 168 323 200 295.5 c 128,-1,16
 232 268 232 268 263 262 c 0,17,18
 269 261 269 261 287 258 c 128,-1,19
 305 255 305 255 310.5 253.5 c 128,-1,20
 316 252 316 252 330.5 248 c 128,-1,21
 345 244 345 244 350 240.5 c 128,-1,22
 355 237 355 237 365.5 230 c 128,-1,23
 376 223 376 223 379.5 214.5 c 128,-1,24
 383 206 383 206 388.5 194.5 c 128,-1,25
 394 183 394 183 396 167.5 c 128,-1,26
 398 152 398 152 398 133 c 0,27,28
 399 23 399 23 290 0 c 0,29,30
 242 -10 242 -10 185 -10 c 128,-1,31
 128 -10 128 -10 94.5 -5 c 2,32,-1
 61 0 l 2,33,34
 0 9 0 9 0 79 c 0,35,36
 0 105 0 105 19 119 c 128,-1,37
 38 133 38 133 59 125 c 0,38,39
 74 119 74 119 77.5 104 c 128,-1,40
 81 89 81 89 70 80 c 0,41,42
 60 72 60 72 48 72 c 128,-1,43
 36 72 36 72 29 76 c 2,44,-1
 22 80 l 1,45,46
 23 78 23 78 21.5 68 c 128,-1,47
 20 58 20 58 27.5 42.5 c 128,-1,48
 35 27 35 27 51 20 c 0,49,50
 105 -3 105 -3 143 35 c 0,51,52
 157 49 157 49 159.5 74.5 c 128,-1,53
 162 100 162 100 157 118 c 2,54,-1
 152 136 l 1,55,56
 151 108 151 108 133 80 c 0,57,58
 125 67 125 67 110 57 c 128,-1,59
 95 47 95 47 84 47 c 0,60,61
 82 47 82 47 84 48 c 128,-1,62
 86 49 86 49 91.5 52.5 c 128,-1,63
 97 56 97 56 103 61.5 c 128,-1,64
 109 67 109 67 114 78 c 128,-1,65
 119 89 119 89 121 103 c 128,-1,66
 123 117 123 117 119 139.5 c 128,-1,67
 115 162 115 162 105 189 c 0,68,69
 79 257 79 257 73.5 288 c 128,-1,70
 68 319 68 319 68 382 c 0,71,72
 68 448 68 448 104.5 497 c 128,-1,73
 141 546 141 546 201 550 c 0,74,75
 338 558 338 558 338 463 c 0,76,77
 338 436 338 436 324 418 c 128,-1,78
 310 400 310 400 290 393.5 c 128,-1,79
 270 387 270 387 248.5 389 c 128,-1,80
 227 391 227 391 213 401 c 0,81,82
 205 406 205 406 199.5 415.5 c 128,-1,83
 194 425 194 425 191 430 c 128,-1,84
 188 435 188 435 180 435 c 128,-1,85
 172 435 172 435 157 426 c 0,86,87
 153 423 153 423 136 401 c 1,88,89
 137 379 137 379 141 362 c 1,13,14
124 6 m 1,90,91
 150 6 150 6 180 3.5 c 128,-1,92
 210 1 210 1 245 15 c 128,-1,93
 280 29 280 29 300 60 c 0,94,95
 318 88 318 88 320 127.5 c 128,-1,96
 322 167 322 167 306 200.5 c 128,-1,97
 290 234 290 234 259 242 c 0,98,99
 207 256 207 256 154 317 c 1,100,101
 195 189 195 189 195 125 c 0,102,103
 195 81 195 81 184.5 57.5 c 128,-1,104
 174 34 174 34 150 18 c 0,105,106
 139 11 139 11 124 6 c 1,90,91
EndSplineSet
Colour: ff00
EndChar

StartChar: uni0413
Encoding: 1043 1043 20
Width: 525
Flags: W
HStem: -2 14<109.534 174.27> 72 56<77.0088 131.673> 132 13<125.02 137.981> 152 13<125.02 137.981> 166 13<109.02 121.981> 257 13<303.012 348.563> 269 13<30.4369 75.9884> 397 13<292.02 304.981> 411 13<276.02 288.981> 431 13<276.02 288.981> 455 12<290.007 336.043> 533 17<270 343.521 370 403.531>
VStem: 1 12<213.226 251.27> 55 21<35.704 94.4985> 96 14<195.569 249.212> 109 13<166.02 178.981> 125 13<132.02 144.981 152.02 164.981> 131 80<224.9 531.472> 167 40<81.3124 135.864> 215 36<46.6054 133.434> 269 14<289.788 343.431> 276 13<411.02 423.981 431.02 443.981> 292 13<397.02 409.981> 299 30<335.432 426.877> 352 40<435.687 531.33> 366 12<287.73 325.774> 422 24<445.063 515.957>
AnchorPoint: "Yerok" 421.5 575.8 basechar 0
AnchorPoint: "Diacritic" 314 575 basechar 0
LayerCount: 3
Fore
SplineSet
289 438 m 0xf9fc1420
 289 434 286 431 283 431 c 0xf9fc1820
 279 431 276 434 276 438 c 0xf9fc1420
 276 441 279 444 283 444 c 0xf9fc1820
 286 444 289 441 289 438 c 0xf9fc1420
289 418 m 0xf9fc1420
 289 414 286 411 283 411 c 0xf9fc1820
 279 411 276 414 276 418 c 0xf9fc1420
 276 421 279 424 283 424 c 0xf9fc1820
 286 424 289 421 289 418 c 0xf9fc1420
305 404 m 0xf9fc1220
 305 400 302 397 299 397 c 0xf9fc1120
 295 397 292 400 292 404 c 0xf9fc1220
 292 407 295 410 299 410 c 0xf9fc1120
 302 410 305 407 305 404 c 0xf9fc1220
125 139 m 0xf9fc9020
 125 142 128 145 132 145 c 0
 135 145 138 142 138 139 c 0
 138 135 135 132 132 132 c 0
 128 132 125 135 125 139 c 0xf9fc9020
125 159 m 0
 125 162 128 165 132 165 c 0
 135 165 138 162 138 159 c 0
 138 155 135 152 132 152 c 0
 128 152 125 155 125 159 c 0
109 173 m 0xf9fd1020
 109 176 112 179 116 179 c 0
 119 179 122 176 122 173 c 0
 122 169 119 166 116 166 c 0
 112 166 109 169 109 173 c 0xf9fd1020
56 282 m 0xfbfe1020
 87 282 110 258 110 231 c 0
 110 204 102 189 87 169 c 0
 80 160 68 151 61 145 c 0
 53 137 50 129 50 129 c 1
 50 129 61 143 78 150 c 0
 91 155 99 157 105 157 c 0
 111 157 115 155 115 151 c 0
 115 143 84 147 59 123 c 0
 53 117 47 99 47 99 c 1
 46 100 27 109 27 129 c 0
 27 160 50 175 50 200 c 0
 50 212 44 219 44 219 c 1
 44 219 44 219 45 219 c 0
 49 219 62 218 71 196 c 0
 76 183 74 173 74 173 c 1
 74 173 96 196 96 224 c 0
 96 251 77 269 54 269 c 0
 30 269 13 253 13 231 c 0
 13 213 23 207 23 205 c 0
 23 205 22 205 21 205 c 0
 7 205 1 221 1 236 c 0
 1 266 27 282 56 282 c 0xfbfe1020
315 467 m 0
 333 467 352 479 352 501 c 0
 352 515 345 527 333 533 c 1
 333 533 290 533 270 533 c 1
 270 533 290 526 302 513 c 0
 315 499 315 489 305 489 c 0
 299 489 296 499 277 515 c 0
 268 523 250 529 231 533 c 1
 224 501 211 431 211 382 c 0xfdfc5aa0
 211 273 242 216 250 125 c 0
 250 119 251 114 251 108 c 0
 251 60 230 39 205 18 c 0
 186 2 165 -2 144 -2 c 0
 87 -2 55 20 55 79 c 0
 55 109 76 128 99 128 c 0
 119 128 133 114 133 98 c 0
 133 82 117 72 103 72 c 0
 89 72 77 80 77 80 c 1
 77 80 76 76 76 71 c 0
 76 57 80 31 106 20 c 0
 118 15 130 12 143 12 c 0
 162 12 182 19 198 35 c 0
 211 48 215 67 215 86 c 0
 215 112 207 136 207 136 c 1
 207 136 206 108 188 80 c 0
 177 62 154 47 139 47 c 0
 137 47 l 0
 137 48 167 57 167 124 c 0xfdfc3020
 167 141 165 163 160 189 c 0
 143 274 131 300 131 382 c 0
 131 431 141 501 147 533 c 1
 130 550 l 1
 512 550 l 1
 442 515 l 1
 442 515 446 502 446 486 c 0
 446 458 425 423 411 423 c 0
 408 423 406 425 406 427 c 0
 406 433 422 445 422 471 c 0
 422 496 412 533 384 533 c 2
 370 533 l 1
 384 524 392 503 392 481 c 0
 392 429 329 377 329 339 c 0xfdfc51a0
 329 327 335 320 335 320 c 1
 335 320 335 320 334 320 c 0
 330 320 317 321 308 343 c 0
 303 356 305 366 305 366 c 1
 305 366 283 343 283 315 c 0
 283 288 302 270 325 270 c 0
 349 270 366 286 366 308 c 0
 366 326 356 332 356 334 c 0
 356 334 357 334 358 334 c 0
 372 334 378 318 378 303 c 0
 378 273 352 257 323 257 c 0
 292 257 269 281 269 308 c 0
 269 335 277 350 292 370 c 0xfdfc1a60
 299 379 313 396 344 419 c 0
 364 434 364 447 364 447 c 1
 364 447 353 433 336 426 c 0
 323 421 315 419 309 419 c 0
 303 419 299 421 299 424 c 0
 299 433 351 428 356 464 c 0
 356 467 357 469 357 472 c 1
 354 466 331 455 310 455 c 0
 291 455 264 470 264 479 c 0
 264 482 266 484 269 484 c 0xfdfc1920
 276 484 289 467 315 467 c 0
EndSplineSet
Validated: 1
Layer: 2
SplineSet
288.875 437.562 m 132,-1,1
 288.875 431.25 288.875 431.25 282.562 431.25 c 128,-1,2
 276.25 431.25 276.25 431.25 276.25 437.562 c 128,-1,3
 276.25 443.875 276.25 443.875 282.562 443.875 c 128,-1,0
 288.875 443.875 288.875 443.875 288.875 437.562 c 132,-1,1
288.875 417.562 m 132,-1,5
 288.875 411.25 288.875 411.25 282.562 411.25 c 128,-1,6
 276.25 411.25 276.25 411.25 276.25 417.562 c 128,-1,7
 276.25 423.875 276.25 423.875 282.562 423.875 c 128,-1,4
 288.875 423.875 288.875 423.875 288.875 417.562 c 132,-1,5
304.875 403.562 m 132,-1,9
 304.875 397.25 304.875 397.25 298.562 397.25 c 128,-1,10
 292.25 397.25 292.25 397.25 292.25 403.562 c 128,-1,11
 292.25 409.875 292.25 409.875 298.562 409.875 c 128,-1,8
 304.875 409.875 304.875 409.875 304.875 403.562 c 132,-1,9
125.25 138.562 m 128,-1,13
 125.25 144.875 125.25 144.875 131.562 144.875 c 128,-1,14
 137.875 144.875 137.875 144.875 137.875 138.562 c 128,-1,15
 137.875 132.25 137.875 132.25 131.562 132.25 c 128,-1,12
 125.25 132.25 125.25 132.25 125.25 138.562 c 128,-1,13
125.25 158.562 m 128,-1,17
 125.25 164.875 125.25 164.875 131.562 164.875 c 128,-1,18
 137.875 164.875 137.875 164.875 137.875 158.562 c 128,-1,19
 137.875 152.25 137.875 152.25 131.562 152.25 c 128,-1,16
 125.25 152.25 125.25 152.25 125.25 158.562 c 128,-1,17
109.25 172.562 m 128,-1,21
 109.25 178.875 109.25 178.875 115.562 178.875 c 128,-1,22
 121.875 178.875 121.875 178.875 121.875 172.562 c 128,-1,23
 121.875 166.25 121.875 166.25 115.562 166.25 c 128,-1,20
 109.25 166.25 109.25 166.25 109.25 172.562 c 128,-1,21
74 173 m 1,24,25
 75 174 75 174 77 176.5 c 128,-1,26
 79 179 79 179 84.5 187 c 128,-1,27
 90 195 90 195 92 203 c 128,-1,28
 94 211 94 211 96 222.5 c 128,-1,29
 98 234 98 234 92 244 c 1,30,31
 86 260 86 260 70 266 c 128,-1,32
 54 272 54 272 38 266 c 1,33,34
 16 256 16 256 13 237 c 0,35,36
 12 229 12 229 13.5 223 c 128,-1,37
 15 217 15 217 17 214 c 128,-1,38
 19 211 19 211 21 208.5 c 2,39,-1
 23 206 l 1,40,-1
 21 205 l 1,41,42
 8 205 8 205 3 222 c 128,-1,43
 -2 239 -2 239 4 252 c 1,44,45
 11 271 11 271 35.5 279 c 128,-1,46
 60 287 60 287 80 277 c 0,47,48
 110 263 110 263 110 231 c 0,49,50
 110 200 110 200 87 169 c 0,51,52
 83 164 83 164 61 145 c 1,53,-1
 50 129 l 1,54,55
 61 143 61 143 78 150 c 0,56,57
 110 163 110 163 115 153 c 0,58,59
 116 150 116 150 113 148.5 c 128,-1,60
 110 147 110 147 104 145.5 c 128,-1,61
 98 144 98 144 91 141.5 c 128,-1,62
 84 139 84 139 75 134.5 c 128,-1,63
 66 130 66 130 59 123 c 1,64,-1
 47 99 l 1,65,66
 28 107 28 107 27 125 c 0,67,68
 26 144 26 144 38 166.5 c 128,-1,69
 50 189 50 189 50 201 c 0,70,71
 50 206 50 206 48.5 210.5 c 128,-1,72
 47 215 47 215 45.5 217 c 2,73,-1
 44 219 l 1,74,75
 61 221 61 221 71 196 c 1,76,-1
 74 173 l 1,24,25
231 533 m 1,77,78
 211 442 211 442 211 382 c 0,79,80
 211 321 211 321 229 240 c 128,-1,81
 247 159 247 159 250 125 c 0,82,83
 253 83 253 83 241.5 61 c 128,-1,84
 230 39 230 39 205 18 c 0,85,86
 173 -8 173 -8 116 0 c 0,87,88
 55 9 55 9 55 79 c 0,89,90
 55 105 55 105 74 119 c 128,-1,91
 93 133 93 133 114 125 c 0,92,93
 129 119 129 119 132.5 104 c 128,-1,94
 136 89 136 89 125 80 c 0,95,96
 115 72 115 72 103 72 c 128,-1,97
 91 72 91 72 84 76 c 2,98,-1
 77 80 l 1,99,100
 78 78 78 78 76.5 68 c 128,-1,101
 75 58 75 58 82.5 42.5 c 128,-1,102
 90 27 90 27 106 20 c 0,103,104
 160 -3 160 -3 198 35 c 0,105,106
 212 49 212 49 214.5 74.5 c 128,-1,107
 217 100 217 100 212 118 c 2,108,-1
 207 136 l 1,109,110
 206 108 206 108 188 80 c 0,111,112
 180 67 180 67 165 57 c 128,-1,113
 150 47 150 47 139 47 c 0,114,115
 137.116 47 137.116 47 140.428 49.1554 c 0,116,117
 182.637 76.6234 182.637 76.6234 160 189 c 0,118,119
 156 210 156 210 149 242 c 128,-1,120
 142 274 142 274 139 288.5 c 128,-1,121
 136 303 136 303 133.5 328 c 128,-1,122
 131 353 131 353 131 382 c 0,123,124
 131 448 131 448 147 533 c 1,125,-1
 130 550 l 1,126,-1
 512 550 l 1,127,-1
 442 515 l 1,128,129
 451 486 451 486 442 461 c 0,130,131
 435 443 435 443 425 432 c 128,-1,132
 415 421 415 421 408 424 c 1,133,134
 404 429 404 429 407.5 432 c 128,-1,135
 411 435 411 435 417 448 c 128,-1,136
 423 461 423 461 422 475 c 0,137,138
 421 497 421 497 411.5 515 c 128,-1,139
 402 533 402 533 384 533 c 2,140,-1
 370 533 l 1,141,142
 385 523 385 523 390 498 c 128,-1,143
 395 473 395 473 386 451 c 0,144,145
 382 439 382 439 355 396 c 128,-1,146
 328 353 328 353 329 338 c 0,147,148
 329 333 329 333 330.5 328.5 c 128,-1,149
 332 324 332 324 333.5 322 c 2,150,-1
 335 320 l 1,151,152
 318 318 318 318 308 343 c 1,153,-1
 305 366 l 1,154,155
 304 365 304 365 302 362.5 c 128,-1,156
 300 360 300 360 294.5 352 c 128,-1,157
 289 344 289 344 287 336 c 128,-1,158
 285 328 285 328 283 316.5 c 128,-1,159
 281 305 281 305 287 295 c 1,160,161
 293 279 293 279 309 273 c 128,-1,162
 325 267 325 267 341 273 c 1,163,164
 363 283 363 283 366 302 c 0,165,166
 367 310 367 310 365.5 316 c 128,-1,167
 364 322 364 322 362 325 c 128,-1,168
 360 328 360 328 358 330.5 c 2,169,-1
 356 333 l 1,170,-1
 358 334 l 1,171,172
 371 334 371 334 376 317 c 128,-1,173
 381 300 381 300 375 287 c 1,174,175
 368 268 368 268 343.5 260 c 128,-1,176
 319 252 319 252 299 262 c 0,177,178
 269 276 269 276 269 308 c 0,179,180
 269 339 269 339 292 370 c 0,181,182
 311 395 311 395 344 419 c 0,183,184
 353 426 353 426 358 433 c 128,-1,185
 363 440 363 440 363.5 443.5 c 2,186,-1
 364 447 l 1,187,188
 353 433 353 433 336 426 c 0,189,190
 304 413 304 413 299 423 c 0,191,192
 298 426 298 426 303 427.5 c 128,-1,193
 308 429 308 429 316 431 c 128,-1,194
 324 433 324 433 332.5 436 c 128,-1,195
 341 439 341 439 348 446.5 c 128,-1,196
 355 454 355 454 356 464 c 0,197,198
 356 466 356 466 356.5 468 c 128,-1,199
 357 470 357 470 357 472 c 1,200,201
 353 465 353 465 332.5 458.5 c 128,-1,202
 312 452 312 452 296 457 c 0,203,204
 270.799 464 270.799 464 264.574 476.64 c 0,205,206
 262.569 480.713 262.569 480.713 266 483 c 0,207,208
 269 485 269 485 274.5 481.5 c 128,-1,209
 280 478 280 478 290.5 472.5 c 128,-1,210
 301 467 301 467 313 467 c 0,211,212
 325 466 325 466 336 472.5 c 128,-1,213
 347 479 347 479 351 491 c 0,214,215
 355 504 355 504 349.5 516 c 128,-1,216
 344 528 344 528 333 533 c 1,217,-1
 270 533 l 1,218,219
 290 526 290 526 302 513 c 0,220,221
 319 494 319 494 309 490 c 1,222,223
 306 490 306 490 304.5 489.5 c 128,-1,224
 303 489 303 489 300 491.5 c 128,-1,225
 297 494 297 494 295 496.5 c 128,-1,226
 293 499 293 499 288 504.5 c 128,-1,227
 283 510 283 510 277 515 c 0,228,229
 265 526 265 526 231 533 c 1,77,78
EndSplineSet
Substitution2: "'ss01' Style Set Simple Forms-1" uni0413.simple
Colour: ff00
EndChar

StartChar: uni0413.simple
Encoding: 62739 62739 21
Width: 470
GlyphClass: 2
Flags: W
HStem: -2 14<54.5344 119.27> 72 56<22.0088 76.6734> 257 13<248.012 293.563> 397 13<237.02 249.981> 411 13<221.02 233.981> 431 13<221.02 233.981> 455 12<235.007 281.043> 533 17<215 288.521 315 348.531>
VStem: 0 21<35.704 94.4985> 76 80<224.9 531.472> 112 40<81.3124 135.864> 160 36<46.6054 133.434> 214 14<289.788 343.431> 221 13<411.02 423.981 431.02 443.981> 237 13<397.02 409.981> 244 30<335.432 426.877> 297 40<435.687 531.33> 311 12<287.73 325.774> 367 24<445.063 515.957>
AnchorPoint: "Yerok" 367.5 575.8 basechar 0
AnchorPoint: "Diacritic" 238 575 basechar 0
LayerCount: 3
Fore
SplineSet
234 438 m 0xff9420
 234 434 231 431 228 431 c 0xff9820
 224 431 221 434 221 438 c 0xff9420
 221 441 224 444 228 444 c 0xff9820
 231 444 234 441 234 438 c 0xff9420
234 418 m 0xff9420
 234 414 231 411 228 411 c 0xff9820
 224 411 221 414 221 418 c 0xff9420
 221 421 224 424 228 424 c 0xff9820
 231 424 234 421 234 418 c 0xff9420
250 404 m 0xff9220
 250 400 247 397 244 397 c 0xff9120
 240 397 237 400 237 404 c 0xff9220
 237 407 240 410 244 410 c 0xff9120
 247 410 250 407 250 404 c 0xff9220
260 467 m 0
 278 467 297 479 297 501 c 0
 297 515 290 527 278 533 c 1
 278 533 235 533 215 533 c 1
 215 533 235 526 247 513 c 0
 260 499 260 489 250 489 c 0
 244 489 241 499 222 515 c 0
 213 523 195 529 176 533 c 1
 169 501 156 431 156 382 c 0xffdaa0
 156 273 187 216 195 125 c 0
 195 119 196 114 196 108 c 0
 196 60 175 39 150 18 c 0
 131 2 110 -2 89 -2 c 0
 32 -2 0 20 0 79 c 0
 0 109 21 128 44 128 c 0
 64 128 78 114 78 98 c 0
 78 82 62 72 48 72 c 0
 34 72 22 80 22 80 c 1
 22 80 21 76 21 71 c 0
 21 57 25 31 51 20 c 0
 63 15 75 12 88 12 c 0
 107 12 127 19 143 35 c 0
 156 48 160 67 160 86 c 0
 160 112 152 136 152 136 c 1
 152 136 151 108 133 80 c 0
 122 62 99 47 84 47 c 0
 82 47 l 0
 82 48 112 57 112 124 c 0xffb020
 112 141 110 163 105 189 c 0
 88 274 76 300 76 382 c 0
 76 431 86 501 92 533 c 1
 75 550 l 1
 457 550 l 1
 387 515 l 1
 387 515 391 502 391 486 c 0
 391 458 370 423 356 423 c 0
 353 423 351 425 351 427 c 0
 351 433 367 445 367 471 c 0
 367 496 357 533 329 533 c 2
 315 533 l 1
 329 524 337 503 337 481 c 0
 337 429 274 377 274 339 c 0xffd1a0
 274 327 280 320 280 320 c 1
 280 320 280 320 279 320 c 0
 275 320 262 321 253 343 c 0
 248 356 250 366 250 366 c 1
 250 366 228 343 228 315 c 0
 228 288 247 270 270 270 c 0
 294 270 311 286 311 308 c 0
 311 326 301 332 301 334 c 0
 301 334 302 334 303 334 c 0
 317 334 323 318 323 303 c 0
 323 273 297 257 268 257 c 0
 237 257 214 281 214 308 c 0
 214 335 222 350 237 370 c 0xff9a60
 244 379 258 396 289 419 c 0
 309 434 309 447 309 447 c 1
 309 447 298 433 281 426 c 0
 268 421 260 419 254 419 c 0
 248 419 244 421 244 424 c 0
 244 433 296 428 301 464 c 0
 301 467 302 469 302 472 c 1
 299 466 276 455 255 455 c 0
 236 455 209 470 209 479 c 0
 209 482 211 484 214 484 c 0xff9920
 221 484 234 467 260 467 c 0
EndSplineSet
Validated: 1
Layer: 2
SplineSet
233.875 437.562 m 128,-1,1
 233.875 431.25 233.875 431.25 227.562 431.25 c 128,-1,2
 221.25 431.25 221.25 431.25 221.25 437.562 c 128,-1,3
 221.25 443.875 221.25 443.875 227.562 443.875 c 128,-1,0
 233.875 443.875 233.875 443.875 233.875 437.562 c 128,-1,1
233.875 417.562 m 128,-1,5
 233.875 411.25 233.875 411.25 227.562 411.25 c 128,-1,6
 221.25 411.25 221.25 411.25 221.25 417.562 c 128,-1,7
 221.25 423.875 221.25 423.875 227.562 423.875 c 128,-1,4
 233.875 423.875 233.875 423.875 233.875 417.562 c 128,-1,5
249.875 403.562 m 128,-1,9
 249.875 397.25 249.875 397.25 243.562 397.25 c 128,-1,10
 237.25 397.25 237.25 397.25 237.25 403.562 c 128,-1,11
 237.25 409.875 237.25 409.875 243.562 409.875 c 128,-1,8
 249.875 409.875 249.875 409.875 249.875 403.562 c 128,-1,9
176 533 m 1,12,13
 156 442 156 442 156 382 c 0,14,15
 156 321 156 321 174 240 c 128,-1,16
 192 159 192 159 195 125 c 0,17,18
 198 83 198 83 186.5 61 c 128,-1,19
 175 39 175 39 150 18 c 0,20,21
 118 -8 118 -8 61 0 c 0,22,23
 0 9 0 9 0 79 c 0,24,25
 0 105 0 105 19 119 c 128,-1,26
 38 133 38 133 59 125 c 0,27,28
 74 119 74 119 77.5 104 c 128,-1,29
 81 89 81 89 70 80 c 0,30,31
 60 72 60 72 48 72 c 128,-1,32
 36 72 36 72 29 76 c 2,33,-1
 22 80 l 1,34,35
 23 78 23 78 21.5 68 c 128,-1,36
 20 58 20 58 27.5 42.5 c 128,-1,37
 35 27 35 27 51 20 c 0,38,39
 105 -3 105 -3 143 35 c 0,40,41
 157 49 157 49 159.5 74.5 c 128,-1,42
 162 100 162 100 157 118 c 2,43,-1
 152 136 l 1,44,45
 151 108 151 108 133 80 c 0,46,47
 125 67 125 67 110 57 c 128,-1,48
 95 47 95 47 84 47 c 0,49,50
 82.1161 47 82.1161 47 85.4282 49.1554 c 0,51,52
 127.637 76.6234 127.637 76.6234 105 189 c 0,53,54
 101 210 101 210 94 242 c 128,-1,55
 87 274 87 274 84 288.5 c 128,-1,56
 81 303 81 303 78.5 328 c 128,-1,57
 76 353 76 353 76 382 c 0,58,59
 76 448 76 448 92 533 c 1,60,-1
 75 550 l 1,61,-1
 457 550 l 1,62,-1
 387 515 l 1,63,64
 396 486 396 486 387 461 c 0,65,66
 380 443 380 443 370 432 c 128,-1,67
 360 421 360 421 353 424 c 1,68,69
 349 429 349 429 352.5 432 c 128,-1,70
 356 435 356 435 362 448 c 128,-1,71
 368 461 368 461 367 475 c 0,72,73
 366 497 366 497 356.5 515 c 128,-1,74
 347 533 347 533 329 533 c 2,75,-1
 315 533 l 1,76,77
 330 523 330 523 335 498 c 128,-1,78
 340 473 340 473 331 451 c 0,79,80
 327 439 327 439 300 396 c 128,-1,81
 273 353 273 353 274 338 c 0,82,83
 274 333 274 333 275.5 328.5 c 128,-1,84
 277 324 277 324 278.5 322 c 2,85,-1
 280 320 l 1,86,87
 263 318 263 318 253 343 c 1,88,-1
 250 366 l 1,89,90
 249 365 249 365 247 362.5 c 128,-1,91
 245 360 245 360 239.5 352 c 128,-1,92
 234 344 234 344 232 336 c 128,-1,93
 230 328 230 328 228 316.5 c 128,-1,94
 226 305 226 305 232 295 c 1,95,96
 238 279 238 279 254 273 c 128,-1,97
 270 267 270 267 286 273 c 1,98,99
 308 283 308 283 311 302 c 0,100,101
 312 310 312 310 310.5 316 c 128,-1,102
 309 322 309 322 307 325 c 128,-1,103
 305 328 305 328 303 330.5 c 2,104,-1
 301 333 l 1,105,-1
 303 334 l 1,106,107
 316 334 316 334 321 317 c 128,-1,108
 326 300 326 300 320 287 c 1,109,110
 313 268 313 268 288.5 260 c 128,-1,111
 264 252 264 252 244 262 c 0,112,113
 214 276 214 276 214 308 c 0,114,115
 214 339 214 339 237 370 c 0,116,117
 256 395 256 395 289 419 c 0,118,119
 298 426 298 426 303 433 c 128,-1,120
 308 440 308 440 308.5 443.5 c 2,121,-1
 309 447 l 1,122,123
 298 433 298 433 281 426 c 0,124,125
 249 413 249 413 244 423 c 0,126,127
 243 426 243 426 248 427.5 c 128,-1,128
 253 429 253 429 261 431 c 128,-1,129
 269 433 269 433 277.5 436 c 128,-1,130
 286 439 286 439 293 446.5 c 128,-1,131
 300 454 300 454 301 464 c 0,132,133
 301 466 301 466 301.5 468 c 128,-1,134
 302 470 302 470 302 472 c 1,135,136
 298 465 298 465 277.5 458.5 c 128,-1,137
 257 452 257 452 241 457 c 0,138,139
 215.799 464 215.799 464 209.574 476.64 c 0,140,141
 207.569 480.713 207.569 480.713 211 483 c 0,142,143
 214 485 214 485 219.5 481.5 c 128,-1,144
 225 478 225 478 235.5 472.5 c 128,-1,145
 246 467 246 467 258 467 c 0,146,147
 270 466 270 466 281 472.5 c 128,-1,148
 292 479 292 479 296 491 c 0,149,150
 300 504 300 504 294.5 516 c 128,-1,151
 289 528 289 528 278 533 c 1,152,-1
 215 533 l 1,153,154
 235 526 235 526 247 513 c 0,155,156
 264 494 264 494 254 490 c 1,157,158
 251 490 251 490 249.5 489.5 c 128,-1,159
 248 489 248 489 245 491.5 c 128,-1,160
 242 494 242 494 240 496.5 c 128,-1,161
 238 499 238 499 233 504.5 c 128,-1,162
 228 510 228 510 222 515 c 0,163,164
 210 526 210 526 176 533 c 1,12,13
EndSplineSet
Colour: ff00
EndChar

StartChar: uni0414
Encoding: 1044 1044 22
Width: 530
Flags: W
HStem: 0 12<96.0742 121.649 149 359 435 444> 42 35<71 90.7725> 407 32<224.091 251.919> 420 9<288.069 322.572> 441 13<290.064 340.43> 470 12<251.264 328.238> 488 10<263.001 273.998> 493 19<288.261 316> 503 10<254.002 264.999> 517 10<262.002 272.999> 538 12<333 359 435 461> 644 10<250.914 284.789>
VStem: 46 33<-95.125 -59.6195> 46 23<-88.7718 -20.414 24.4746 42> 141 65<54.6736 235.988> 210 14<436 451.349> 226 10<594.29 629.182> 254 11<503.023 512.977> 263 11<488.023 497.977 517.023 526.977> 276 12<554.811 584.372> 296 8<605.586 628.164> 359 76<12 418 437 461.733 465 491.155 495 538> 447 33<-95.125 -59.6195> 457 23<-88.7718 -20.414>
AnchorPoint: "Yerok" 399 587.2 basechar 0
AnchorPoint: "Diacritic" 400 588 basechar 0
LayerCount: 3
Fore
SplineSet
273 522 m 0xcc739c
 273 519 271 517 268 517 c 0
 265 517 262 519 262 522 c 0
 262 525 265 527 268 527 c 0
 271 527 273 525 273 522 c 0xcc739c
265 508 m 0xccf3dc
 265 505 263 503 260 503 c 0
 257 503 254 505 254 508 c 0
 254 511 257 513 260 513 c 0
 263 513 265 511 265 508 c 0xccf3dc
274 493 m 0xcd73bc
 274 490 271 488 268 488 c 0xce73bc
 265 488 263 490 263 493 c 0xcd73bc
 263 496 265 498 268 498 c 0xce73bc
 271 498 274 496 274 493 c 0xcd73bc
206 115 m 0
 206 61 186 29 149 12 c 1
 359 12 l 1
 359 418 l 1
 338 390 282 349 244 281 c 1
 209 216 205 178 205 145 c 0
 205 135 206 125 206 115 c 0
270 654 m 0
 291 654 304 640 304 620 c 0
 304 613 302 608 296 605 c 0
 290 603 302 611 293 629 c 0
 288 639 280 644 268 644 c 0
 251 644 236 631 236 612 c 0
 236 582 280 548 280 548 c 2
 280 548 276 554 276 566 c 0
 276 585 288 587 288 587 c 1
 288 587 287 581 288 572 c 0
 292 543 334 503 359 495 c 1
 359 538 l 1
 333 538 l 1
 333 550 l 1
 461 550 l 1
 461 538 l 1
 435 538 l 1
 435 12 l 1
 525 12 l 1
 474 -23 l 1
 474 -23 480 -28 480 -45 c 0xed779d
 480 -51 479 -59 477 -69 c 0
 472 -92 456 -104 450 -104 c 0
 449 -104 447 -103 447 -102 c 0xed739e
 447 -99 457 -93 457 -58 c 0
 457 -23 444 0 396 0 c 2
 130 0 l 2
 82 0 69 -23 69 -58 c 0xed779d
 69 -93 79 -99 79 -102 c 0xed7b9c
 79 -103 77 -104 76 -104 c 0
 70 -104 54 -92 49 -69 c 0
 47 -59 46 -51 46 -45 c 0
 46 -28 52 -23 52 -23 c 2
 0 12 l 1
 68 12 l 1
 56 22 50 36 50 52 c 0
 50 69 59 77 70 77 c 0
 81 77 91 70 91 63 c 0
 91 44 78 42 74 42 c 0
 71 42 l 1
 71 23 86 13 102 13 c 0
 110 13 118 15 125 20 c 0
 140 31 142 62 142 62 c 1
 142 62 135 55 128 50 c 0
 119 44 109 46 109 46 c 1
 109 46 129 58 138 84 c 0
 141 91 141 101 141 113 c 0
 141 118 141 124 141 131 c 0
 141 160 143 197 162 236 c 0
 197 308 283 363 333 409 c 1
 332 411 318 418 317 418 c 0
 311 421 305 422 301 422 c 0
 296 422 293 420 290 420 c 0
 289 420 288 421 288 424 c 0
 288 427 294 429 302 429 c 0xdd779c
 307 429 313 428 319 427 c 0
 328 425 342 417 342 417 c 1
 348 423 350 424 354 428 c 1
 349 432 340 438 328 441 c 0
 312 445 290 442 290 448 c 0
 290 451 299 454 312 454 c 0
 330 454 352 444 359 437 c 1
 359 453 l 1
 345 463 302 470 286 470 c 0
 260 470 224 460 224 436 c 1
 224 436 230 439 237 439 c 0
 244 439 252 436 252 421 c 0
 252 411 245 407 237 407 c 0
 222 407 210 416 210 432 c 0
 210 465 247 482 282 482 c 0
 307 482 343 476 359 465 c 1
 359 479 l 1
 348 485 337 491 334 493 c 0
 311 505 273 500 273 507 c 0
 273 510 279 512 284 512 c 0xed779c
 297 512 316 506 316 506 c 1
 316 506 227 560 227 600 c 0
 227 604 226 608 226 611 c 0
 226 622 229 633 236 641 c 0
 245 650 258 654 270 654 c 0
EndSplineSet
Validated: 1
Layer: 2
SplineSet
273.128 522.013 m 128,-1,1
 273.128 516.646 273.128 516.646 267.763 516.646 c 128,-1,2
 262.396 516.646 262.396 516.646 262.396 522.013 c 128,-1,3
 262.396 527.378 262.396 527.378 267.763 527.378 c 128,-1,0
 273.128 527.378 273.128 527.378 273.128 522.013 c 128,-1,1
265.128 508.013 m 128,-1,5
 265.128 502.646 265.128 502.646 259.763 502.646 c 128,-1,6
 254.396 502.646 254.396 502.646 254.396 508.013 c 128,-1,7
 254.396 513.378 254.396 513.378 259.763 513.378 c 128,-1,4
 265.128 513.378 265.128 513.378 265.128 508.013 c 128,-1,5
273.729 493.112 m 128,-1,9
 273.729 487.747 273.729 487.747 268.362 487.747 c 128,-1,10
 262.997 487.747 262.997 487.747 262.997 493.112 c 128,-1,11
 262.997 498.479 262.997 498.479 268.362 498.479 c 128,-1,8
 273.729 498.479 273.729 498.479 273.729 493.112 c 128,-1,9
149 12 m 1,12,-1
 359 12 l 1,13,-1
 359 418 l 1,14,15
 358 417 358 417 312.5 369.5 c 128,-1,16
 267 322 267 322 244 281 c 0,17,18
 219 235 219 235 210.5 197.5 c 128,-1,19
 202 160 202 160 205 139 c 128,-1,20
 208 118 208 118 204 86 c 0,21,22
 197 34 197 34 149 12 c 1,12,-1
435 12 m 1,23,-1
 525 12 l 1,24,-1
 474 -23 l 1,25,26
 475 -24 475 -24 476.5 -27 c 128,-1,27
 478 -30 478 -30 480 -41 c 128,-1,28
 482 -52 482 -52 477 -69 c 0,29,30
 474 -80 474 -80 468 -89.5 c 128,-1,31
 462 -99 462 -99 456.5 -102.5 c 128,-1,32
 451 -106 451 -106 449 -104 c 0,33,34
 446 -100 446 -100 448 -100 c 128,-1,35
 450 -100 450 -100 453.5 -87 c 128,-1,36
 457 -74 457 -74 457 -54 c 0,37,38
 455 0 455 0 396 0 c 2,39,-1
 130 0 l 2,40,41
 71 0 71 0 69 -54 c 0,42,43
 68 -84 68 -84 77.4613 -99.1138 c 0,44,45
 80 -103 80 -103 77 -104 c 1,46,47
 75 -106 75 -106 69.5 -102.5 c 128,-1,48
 64 -99 64 -99 58 -89.5 c 128,-1,49
 52 -80 52 -80 49 -69 c 0,50,51
 45 -51 45 -51 45.5 -41 c 128,-1,52
 46 -31 46 -31 49 -27 c 2,53,-1
 52 -23 l 1,54,-1
 1 12 l 1,55,-1
 68 12 l 1,56,57
 47 30 47 30 50 58 c 0,58,59
 52 72 52 72 62.5 75.5 c 128,-1,60
 73 79 73 79 82.5 74.5 c 128,-1,61
 92 70 92 70 91 62 c 0,62,63
 90 51 90 51 85 46 c 128,-1,64
 80 41 80 41 75.5 41.5 c 2,65,-1
 71 42 l 1,66,67
 71 21 71 21 90 14.5 c 128,-1,68
 109 8 109 8 125 20 c 0,69,70
 132 25 132 25 136 35.5 c 128,-1,71
 140 46 140 46 141 54 c 2,72,-1
 142 62 l 1,73,74
 135 55 135 55 128 50 c 0,75,76
 124 47 124 47 119 46 c 128,-1,77
 114 45 114 45 111.5 45.5 c 2,78,-1
 109 46 l 1,79,80
 129 58 129 58 138 84 c 0,81,82
 143 101 143 101 141 119.5 c 128,-1,83
 139 138 139 138 143.5 172.5 c 128,-1,84
 148 207 148 207 162 236 c 0,85,86
 178 268 178 268 206.5 298 c 128,-1,87
 235 328 235 328 279 364 c 128,-1,88
 323 400 323 400 333 409 c 1,89,90
 332 410 332 410 325 414 c 128,-1,91
 318 418 318 418 317 418 c 0,92,93
 308 422 308 422 300.5 421.5 c 128,-1,94
 293 421 293 421 291.5 420 c 128,-1,95
 290 419 290 419 288 423 c 1,96,97
 288 426 288 426 292 427.5 c 128,-1,98
 296 429 296 429 303.5 429 c 128,-1,99
 311 429 311 429 319 427 c 1,100,-1
 342 417 l 1,101,102
 345 420 345 420 348.5 423 c 128,-1,103
 352 426 352 426 354 428 c 1,104,105
 342 437 342 437 328 441 c 0,106,107
 321 443 321 443 311.5 443.5 c 128,-1,108
 302 444 302 444 297 444.5 c 128,-1,109
 292 445 292 445 290 448 c 0,110,111
 289.182 449.227 289.182 449.227 292.591 450.89 c 0,112,113
 307.488 458.154 307.488 458.154 328 452 c 0,114,115
 352 444 352 444 359 437 c 1,116,-1
 359 453 l 1,117,118
 349 460 349 460 322 465.5 c 128,-1,119
 295 471 295 471 283 470 c 0,120,121
 225 465 225 465 224 436 c 1,122,123
 225 437 225 437 227 437.5 c 128,-1,124
 229 438 229 438 234 438.5 c 128,-1,125
 239 439 239 439 242.5 438.5 c 128,-1,126
 246 438 246 438 249 433.5 c 128,-1,127
 252 429 252 429 252 421 c 0,128,129
 252 403.421 252 403.421 231.75 407.125 c 1,130,131
 212.72 411.999 212.72 411.999 210 427 c 0,132,133
 207 450 207 450 225 464 c 128,-1,134
 243 478 243 478 269 481 c 0,135,136
 287 483 287 483 316.5 478.5 c 128,-1,137
 346 474 346 474 359 465 c 1,138,-1
 359 479 l 1,139,140
 337 491 337 491 334 493 c 0,141,142
 330 495 330 495 325.5 496.5 c 128,-1,143
 321 498 321 498 316.5 499 c 128,-1,144
 312 500 312 500 307 500.5 c 128,-1,145
 302 501 302 501 298 501.5 c 128,-1,146
 294 502 294 502 290 502.5 c 128,-1,147
 286 503 286 503 282.5 503 c 128,-1,148
 279 503 279 503 277 503.5 c 128,-1,149
 275 504 275 504 274 505 c 128,-1,150
 273 506 273 506 273 507 c 0,151,152
 276 512 276 512 285.5 511.5 c 128,-1,153
 295 511 295 511 305.5 508.5 c 2,154,-1
 316 506 l 1,155,156
 306 512 306 512 292 522 c 128,-1,157
 278 532 278 532 253 557 c 128,-1,158
 228 582 228 582 227 600 c 1,159,160
 223 627 223 627 236 641 c 0,161,162
 248 653 248 653 267 654 c 128,-1,163
 286 655 286 655 296 644 c 1,164,165
 303 634 303 634 304 622.5 c 128,-1,166
 305 611 305 611 296 605 c 0,167,168
 294 604 294 604 294.742 606.846 c 0,169,170
 295 608 295 608 295.5 609 c 128,-1,171
 296 610 296 610 296.5 612.5 c 128,-1,172
 297 615 297 615 296.5 617 c 128,-1,173
 296 619 296 619 295.5 622.5 c 128,-1,174
 295 626 295 626 293 629 c 0,175,176
 286 644 286 644 268 644 c 0,177,178
 255 644 255 644 246 635.5 c 128,-1,179
 237 627 237 627 236 614 c 128,-1,180
 235 601 235 601 246 584.5 c 128,-1,181
 257 568 257 568 268.5 558 c 2,182,-1
 280 548 l 1,183,184
 276 554 276 554 276 566 c 0,185,186
 276 574 276 574 279 579.5 c 128,-1,187
 282 585 282 585 285 586 c 2,188,-1
 288 587 l 1,189,190
 287 581 287 581 288 572 c 0,191,192
 291 551 291 551 315 526 c 128,-1,193
 339 501 339 501 359 495 c 1,194,-1
 359 538 l 1,195,-1
 333 538 l 1,196,-1
 333 550 l 1,197,-1
 461 550 l 1,198,-1
 461 538 l 1,199,-1
 435 538 l 1,200,-1
 435 12 l 1,23,-1
EndSplineSet
Substitution2: "'ss01' Style Set Simple Forms-1" uni0414.simple
Colour: ff00
EndChar

StartChar: uni0415
Encoding: 1045 1045 23
Width: 475
Flags: W
HStem: -5 13<123.783 271.356> 72 56<77.0088 131.673> 132 35<411.228 431> 132 13<125.02 137.981> 152 13<125.02 137.981> 166 13<109.02 121.981> 195 14<375.906 421.062> 242 43<305.161 341.326> 269 13<30.4369 75.9884> 309 19<270.517 333.096> 380 21<313.69 343.399> 535 16<252.134 324.587>
VStem: 1 12<213.226 251.27> 55 21<35.5096 94.4985> 96 14<195.569 249.212> 109 13<166.02 178.981> 123 76<269.001 473.536> 125 13<132.02 144.981 152.02 164.981> 176 31<86.5491 135.389> 215 35<47.0598 135.567> 273 65<401.594 463.34> 305 56<22.3705 180.993 244.677 281.857> 342 19<281 300.279> 364 46<410.267 515.06> 431 21<167 188.013>
AnchorPoint: "Yerok" 383.5 574.4 basechar 0
AnchorPoint: "Diacritic" 275 575 basechar 0
LayerCount: 3
Fore
SplineSet
125 139 m 0xd27c5180
 125 142 128 145 132 145 c 0
 135 145 138 142 138 139 c 0
 138 135 135 132 132 132 c 0
 128 132 125 135 125 139 c 0xd27c5180
125 159 m 0
 125 162 128 165 132 165 c 0
 135 165 138 162 138 159 c 0
 138 155 135 152 132 152 c 0xca7c5180
 128 152 125 155 125 159 c 0
109 173 m 0xc67d1180
 109 176 112 179 116 179 c 0
 119 179 122 176 122 173 c 0
 122 169 119 166 116 166 c 0
 112 166 109 169 109 173 c 0xc67d1180
56 282 m 0xd2fe1180
 87 282 110 258 110 231 c 0
 110 204 102 189 87 169 c 0
 80 160 68 151 61 145 c 0
 53 137 50 129 50 129 c 1
 50 129 61 143 78 150 c 0
 91 155 99 157 105 157 c 0
 111 157 115 155 115 151 c 0
 115 143 84 147 59 123 c 0
 53 117 47 99 47 99 c 1
 46 100 27 109 27 129 c 0
 27 160 50 175 50 200 c 0
 50 212 44 219 44 219 c 1
 44 219 44 219 45 219 c 0
 49 219 62 218 71 196 c 0
 76 183 74 173 74 173 c 1
 74 173 96 196 96 224 c 0
 96 251 77 269 54 269 c 0
 30 269 13 253 13 231 c 0
 13 213 23 207 23 205 c 0
 23 205 22 205 21 205 c 0
 7 205 1 221 1 236 c 0
 1 266 27 282 56 282 c 0xd2fe1180
361 277 m 0xe27c9580
 361 255 343 242 325 242 c 0
 314 242 305 247 305 260 c 0xe37c9580
 305 280 315 285 325 285 c 0
 333 285 342 281 342 281 c 1xe37c1380
 342 300 323 309 304 309 c 0
 257 309 237 263 230 238 c 1
 241 204 250 169 250 125 c 0
 250 56 228 31 190 8 c 1
 196 8 203 8 209 8 c 0
 212 8 215 8 218 8 c 0
 245 8 267 9 281 20 c 0
 301 36 305 50 305 67 c 0
 305 81 302 97 302 116 c 0
 302 124 302 132 304 141 c 0
 311 180 354 209 403 209 c 0
 432 209 452 185 452 158 c 0
 452 141 444 132 432 132 c 0xd37c1580
 421 132 411 139 411 146 c 0
 411 165 424 167 428 167 c 0
 431 167 l 1
 431 186 416 195 400 195 c 0
 392 195 384 193 377 189 c 0
 361 180 360 147 360 147 c 1
 360 147 367 154 374 159 c 0
 383 165 393 163 393 163 c 1
 393 163 373 151 364 125 c 0
 362 119 361 114 361 108 c 0
 361 96 364 85 364 71 c 0
 364 63 363 54 359 44 c 0
 344 5 265 -5 198 -5 c 0
 114 -5 55 -4 55 79 c 0
 55 109 76 128 99 128 c 0
 119 128 133 114 133 98 c 0
 133 82 117 72 103 72 c 0
 89 72 77 80 77 80 c 1
 77 80 76 76 76 71 c 0
 76 57 80 31 106 20 c 0
 118 15 130 12 143 12 c 0
 162 12 182 19 198 35 c 0
 211 48 215 67 215 86 c 0
 215 112 207 136 207 136 c 1
 207 136 206 108 188 80 c 0
 177 62 154 47 139 47 c 0
 138 47 l 0
 138 49 176 58 176 115 c 0xe27c7580
 176 134 172 158 160 189 c 0
 125 282 123 300 123 382 c 0
 123 467 173 545 256 550 c 0
 267 551 277 551 287 551 c 0
 366 551 410 528 410 448 c 0
 410 408 373 380 332 380 c 0
 301 380 273 395 273 426 c 0
 273 449 289 466 306 466 c 0
 324 466 338 456 338 438 c 0xe27c9980
 338 436 338 433 337 430 c 0
 332 402 313 401 313 401 c 1
 313 401 362 401 364 451 c 0
 364 453 364 455 364 457 c 0
 364 501 342 535 284 535 c 0
 280 535 275 534 270 534 c 0
 215 529 199 433 199 384 c 0
 199 339 210 303 221 267 c 1
 233 301 266 328 310 328 c 0
 340 328 361 303 361 277 c 0xe27c9580
EndSplineSet
Validated: 1
Layer: 2
SplineSet
125.25 138.562 m 128,-1,1
 125.25 144.875 125.25 144.875 131.562 144.875 c 128,-1,2
 137.875 144.875 137.875 144.875 137.875 138.562 c 128,-1,3
 137.875 132.25 137.875 132.25 131.562 132.25 c 128,-1,0
 125.25 132.25 125.25 132.25 125.25 138.562 c 128,-1,1
125.25 158.562 m 128,-1,5
 125.25 164.875 125.25 164.875 131.562 164.875 c 128,-1,6
 137.875 164.875 137.875 164.875 137.875 158.562 c 128,-1,7
 137.875 152.25 137.875 152.25 131.562 152.25 c 128,-1,4
 125.25 152.25 125.25 152.25 125.25 158.562 c 128,-1,5
109.25 172.562 m 128,-1,9
 109.25 178.875 109.25 178.875 115.562 178.875 c 128,-1,10
 121.875 178.875 121.875 178.875 121.875 172.562 c 128,-1,11
 121.875 166.25 121.875 166.25 115.562 166.25 c 128,-1,8
 109.25 166.25 109.25 166.25 109.25 172.562 c 128,-1,9
74 173 m 1,12,13
 75 174 75 174 77 176.5 c 128,-1,14
 79 179 79 179 84.5 187 c 128,-1,15
 90 195 90 195 92 203 c 128,-1,16
 94 211 94 211 96 222.5 c 128,-1,17
 98 234 98 234 92 244 c 1,18,19
 86 260 86 260 70 266 c 128,-1,20
 54 272 54 272 38 266 c 1,21,22
 16 256 16 256 13 237 c 0,23,24
 12 229 12 229 13.5 223 c 128,-1,25
 15 217 15 217 17 214 c 128,-1,26
 19 211 19 211 21 208.5 c 2,27,-1
 23 206 l 1,28,-1
 21 205 l 1,29,30
 8 205 8 205 3 222 c 128,-1,31
 -2 239 -2 239 4 252 c 1,32,33
 11 271 11 271 35.5 279 c 128,-1,34
 60 287 60 287 80 277 c 0,35,36
 110 263 110 263 110 231 c 0,37,38
 110 200 110 200 87 169 c 0,39,40
 83 164 83 164 61 145 c 1,41,-1
 50 129 l 1,42,43
 61 143 61 143 78 150 c 0,44,45
 110 163 110 163 115 153 c 0,46,47
 116 150 116 150 113 148.5 c 128,-1,48
 110 147 110 147 104 145.5 c 128,-1,49
 98 144 98 144 91 141.5 c 128,-1,50
 84 139 84 139 75 134.5 c 128,-1,51
 66 130 66 130 59 123 c 1,52,-1
 47 99 l 1,53,54
 28 107 28 107 27 125 c 0,55,56
 26 144 26 144 38 166.5 c 128,-1,57
 50 189 50 189 50 201 c 0,58,59
 50 206 50 206 48.5 210.5 c 128,-1,60
 47 215 47 215 45.5 217 c 2,61,-1
 44 219 l 1,62,63
 61 221 61 221 71 196 c 1,64,-1
 74 173 l 1,12,13
230 238 m 1,65,66
 250 176 250 176 250 125 c 0,67,68
 250 82 250 82 239 59.5 c 128,-1,69
 228 37 228 37 205 18 c 0,70,71
 200 14 200 14 190 8 c 1,72,73
 197 8 197 8 216.5 8 c 128,-1,74
 236 8 236 8 244 8.5 c 128,-1,75
 252 9 252 9 263 12 c 128,-1,76
 274 15 274 15 281 20 c 0,77,78
 301 36 301 36 304.5 54.5 c 128,-1,79
 308 73 308 73 303.5 92 c 128,-1,80
 299 111 299 111 304 141 c 0,81,82
 309 170 309 170 337.5 189.5 c 128,-1,83
 366 209 366 209 403 209 c 0,84,85
 426 209 426 209 440.5 191 c 128,-1,86
 455 173 455 173 452 151 c 0,87,88
 450 137 450 137 439.5 133.5 c 128,-1,89
 429 130 429 130 419.5 134.5 c 128,-1,90
 410 139 410 139 411 147 c 0,91,92
 412 158 412 158 417 163 c 128,-1,93
 422 168 422 168 426.5 167.5 c 2,94,-1
 431 167 l 1,95,96
 431 187 431 187 411.5 193 c 128,-1,97
 392 199 392 199 377 189 c 0,98,99
 370 185 370 185 365.5 174.5 c 128,-1,100
 361 164 361 164 360.5 155.5 c 2,101,-1
 360 147 l 1,102,103
 367 154 367 154 374 159 c 0,104,105
 378 162 378 162 383 163 c 128,-1,106
 388 164 388 164 390.5 163.5 c 2,107,-1
 393 163 l 1,108,109
 373 151 373 151 364 125 c 0,110,111
 360 114 360 114 363 87.5 c 128,-1,112
 366 61 366 61 359 44 c 0,113,114
 349 18 349 18 299 5.5 c 128,-1,115
 249 -7 249 -7 200 -5 c 128,-1,116
 151 -3 151 -3 116 0 c 1,117,118
 55 8 55 8 55 79 c 0,119,120
 55 105 55 105 74 119 c 128,-1,121
 93 133 93 133 114 125 c 0,122,123
 129 119 129 119 132.5 104 c 128,-1,124
 136 89 136 89 125 80 c 0,125,126
 115 72 115 72 103 72 c 128,-1,127
 91 72 91 72 84 76 c 2,128,-1
 77 80 l 1,129,130
 78 78 78 78 76.5 68 c 128,-1,131
 75 58 75 58 82.5 42.5 c 128,-1,132
 90 27 90 27 106 20 c 0,133,134
 160 -3 160 -3 198 35 c 0,135,136
 212 49 212 49 214.5 74.5 c 128,-1,137
 217 100 217 100 212 118 c 2,138,-1
 207 136 l 1,139,140
 206 108 206 108 188 80 c 0,141,142
 180 67 180 67 165 57 c 128,-1,143
 150 47 150 47 139 47 c 0,144,145
 137 47 137 47 139 48 c 128,-1,146
 141 49 141 49 146.5 52.5 c 128,-1,147
 152 56 152 56 158 61.5 c 128,-1,148
 164 67 164 67 169 78 c 128,-1,149
 174 89 174 89 176 103 c 128,-1,150
 178 117 178 117 174 139.5 c 128,-1,151
 170 162 170 162 160 189 c 0,152,153
 134 257 134 257 128.5 288 c 128,-1,154
 123 319 123 319 123 382 c 0,155,156
 123 448 123 448 159.5 497 c 128,-1,157
 196 546 196 546 256 550 c 0,158,159
 335 555 335 555 372.5 533.5 c 128,-1,160
 410 512 410 512 410 448 c 0,161,162
 410 412 410 412 376.5 392.5 c 128,-1,163
 343 373 343 373 306 384 c 0,164,165
 290 389 290 389 280 403.5 c 128,-1,166
 270 418 270 418 274 436 c 0,167,168
 283 471 283 471 311 466 c 0,169,170
 342 461 342 461 337 430 c 0,171,172
 335 418 335 418 329 410.5 c 128,-1,173
 323 403 323 403 318 402 c 2,174,-1
 313 401 l 2,175,176
 315 401 315 401 318.5 401.5 c 128,-1,177
 322 402 322 402 330.5 404.5 c 128,-1,178
 339 407 339 407 345.5 411.5 c 128,-1,179
 352 416 352 416 357.5 426.5 c 128,-1,180
 363 437 363 437 364 451 c 0,181,182
 366 492 366 492 343 515 c 128,-1,183
 320 538 320 538 270 534 c 0,184,185
 251 532 251 532 236 515.5 c 128,-1,186
 221 499 221 499 213.5 475 c 128,-1,187
 206 451 206 451 202.5 428 c 128,-1,188
 199 405 199 405 199 384 c 0,189,190
 199 339 199 339 221 267 c 1,191,192
 230 294 230 294 254 311 c 128,-1,193
 278 328 278 328 310 328 c 0,194,195
 334 328 334 328 349 310 c 128,-1,196
 364 292 364 292 361 270 c 0,197,198
 358.258 249.436 358.258 249.436 334.396 243.15 c 0,199,200
 310.769 236.925 310.769 236.925 305.79 254.069 c 0,201,202
 305 256.79 305 256.79 305 260 c 0,203,204
 305 277 305 277 314.5 282.5 c 128,-1,205
 324 288 324 288 333 284.5 c 2,206,-1
 342 281 l 1,207,208
 342 301 342 301 319.5 307 c 128,-1,209
 297 313 297 313 278 304 c 0,210,211
 243 289 243 289 230 238 c 1,65,66
EndSplineSet
Substitution2: "'ss01' Style Set Simple Forms-1" uni0415.simple
Colour: ff00
EndChar

StartChar: uni0416
Encoding: 1046 1046 24
Width: 600
Flags: W
HStem: 0 12<31.4049 73.5251 232 258 334 360 522.741 557.97> 42 35<20 39.9626 552.228 572> 226 32<20 43.9609 548.039 572> 242 17<80.9612 111.985 475.094 502.858> 278 9<39.9924 84.8393 497.421 557.116> 296 11<71.0344 81.9768 510.023 520.966> 312 11<67.0232 77.9656 514.034 524.977> 324 10<78.0022 88.9985 503.001 513.998> 447 10<91.0538 125.428 463.828 503.501> 453 20<180.676 245.709 346.291 411.324> 538 12<82 108 159 185 232 258 334 360 407 433 484 510>
VStem: 0 40<40 74.9737 226.699 256> 0 20<18.875 40> 67 11<312.034 322.977 383.533 435.053> 78 11<324.023 333.977> 86 31<307.096 371> 108 51<483.308 538> 136 10<406.131 436.758> 258 76<12 332 346.786 471 474.827 538> 433 51<483.308 538> 446 10<406.341 438.432> 475 31<308.902 373> 503 11<324.023 333.977> 510 11<296.034 306.977> 514 11<312.034 322.977 385.533 437.053> 552 41<42.0015 76.9934 228.979 257.999> 572 21<20.9871 42>
AnchorPoint: "Yerok" 461.5 576 basechar 0
AnchorPoint: "Diacritic" 299 575 basechar 0
LayerCount: 3
Fore
SplineSet
108 447 m 0xefa0a0
 91 447 76 434 76 413 c 0
 76 385 103 350 103 350 c 1
 103 350 101 357 104 368 c 0
 110 386 121 385 121 385 c 1
 121 385 117 375 117 367 c 0xefa120
 117 345 136 309 156 287 c 1
 204 342 258 351 258 351 c 1
 258 471 l 1
 247 462 229 453 205 453 c 0
 193 453 180 456 165 461 c 0
 113 481 108 517 108 532 c 0
 108 538 l 1
 82 538 l 1
 82 550 l 1
 185 550 l 1
 185 538 l 1
 159 538 l 1
 159 538 159 536 159 533 c 0
 159 520 162 482 200 475 c 0
 208 473 214 473 220 473 c 0
 241 473 252 481 258 486 c 1
 258 538 l 1
 232 538 l 1
 232 550 l 1
 360 550 l 1
 360 538 l 1
 334 538 l 1
 334 486 l 1
 340 481 351 473 372 473 c 0
 378 473 384 473 392 475 c 0
 430 482 433 520 433 533 c 0
 433 538 l 1
 407 538 l 1
 407 550 l 1
 510 550 l 1
 510 538 l 1
 484 538 l 1
 484 538 484 536 484 532 c 0xcf60b1
 484 517 479 481 427 461 c 0
 412 456 399 453 387 453 c 0
 363 453 345 462 334 471 c 1
 334 353 l 1
 334 353 388 344 436 289 c 1
 456 311 475 347 475 369 c 0xcf6024
 475 377 471 387 471 387 c 1
 471 387 482 388 488 370 c 0
 491 359 489 352 489 352 c 1
 489 352 516 387 516 415 c 0
 516 436 501 449 484 449 c 0xcf6030
 468 449 458 440 456 427 c 0
 451 407 465 402 459 402 c 0
 449 402 446 415 446 426 c 0
 446 449 463 459 485 459 c 0
 513 459 528 436 528 411 c 0
 528 370 465 302 465 302 c 2
 465 302 489 317 500 317 c 0
 503 317 506 316 506 313 c 0
 506 306 456 299 445 278 c 1
 449 274 455 265 455 265 c 1
 481 280 506 287 535 287 c 0
 559 287 588 279 588 251 c 0
 588 237 573 226 562 226 c 0
 554 226 548 233 548 243 c 0
 548 256 560 258 567 258 c 0
 572 258 l 1xef602c20
 567 274 550 278 531 278 c 0
 523 278 514 277 506 276 c 0
 497 274 476 267 460 256 c 1
 461 254 466 245 466 245 c 0
 477 253 493 259 508 259 c 0
 513 259 516 258 516 257 c 0
 516 250 492 251 477 242 c 1xdf202c20
 477 242 473 239 470 237 c 1
 476 225 l 2
 477 225 478 226 479 226 c 0
 488 231 497 233 503 233 c 0xef2022
 508 233 510 232 510 229 c 0
 510 223 501 230 483 218 c 2
 483 218 482 217 480 216 c 1
 503 162 497 106 505 84 c 0
 514 58 534 46 534 46 c 1
 534 46 524 44 515 50 c 0
 508 55 501 62 501 62 c 1
 501 62 502 29 518 20 c 0
 525 16 533 14 541 14 c 0
 557 14 572 23 572 42 c 1xef202120
 572 42 571 42 569 42 c 0
 565 42 552 44 552 63 c 0
 552 70 562 77 573 77 c 0
 585 77 593 68 593 51 c 0
 593 24 573 0 544 0 c 0
 495 0 446 31 439 86 c 0
 432 143 436 192 420 239 c 0
 393 317 334 334 334 334 c 1
 334 12 l 1
 360 12 l 1
 360 0 l 1
 232 0 l 1
 232 12 l 1
 258 12 l 1
 258 332 l 1
 258 332 199 315 172 237 c 0
 156 190 160 141 153 84 c 0
 146 29 97 0 48 0 c 0
 19 0 0 22 0 49 c 0
 0 66 7 75 19 75 c 0
 30 75 40 68 40 61 c 0xef302040
 40 42 27 40 23 40 c 0
 20 40 l 1
 20 21 35 12 51 12 c 0
 59 12 67 14 74 18 c 0
 90 27 91 60 91 60 c 1
 91 60 84 53 77 48 c 0
 68 42 58 44 58 44 c 1
 58 44 78 56 87 82 c 0
 96 107 86 143 108 203 c 0
 109 207 112 214 112 214 c 1
 110 215 109 216 109 216 c 2
 91 228 82 221 82 227 c 0
 82 230 84 231 89 231 c 0xef2aa0
 95 231 104 229 113 224 c 0
 114 224 115 223 116 223 c 2
 122 235 l 1
 119 237 115 240 115 240 c 1
 100 248 76 248 76 255 c 0
 76 256 79 257 84 257 c 0
 97 257 115 251 126 243 c 1
 132 254 l 1
 116 264 95 272 86 274 c 0
 78 275 69 276 61 276 c 0
 42 276 25 272 20 256 c 1
 20 256 22 256 25 256 c 0
 32 256 44 254 44 241 c 0
 44 231 38 224 30 224 c 0
 19 224 4 235 4 249 c 0
 4 277 33 285 57 285 c 0
 86 285 111 278 137 263 c 1
 137 263 143 272 147 276 c 1
 134 295 86 306 86 311 c 0
 86 314 89 315 92 315 c 0
 103 315 127 300 127 300 c 1
 127 300 64 368 64 409 c 0
 64 434 79 457 106 457 c 0
 129 457 146 446 146 422 c 0
 146 412 142 403 133 402 c 0
 127 401 141 405 136 425 c 0xefa960
 134 438 124 447 108 447 c 0xefa0a0
510 302 m 0xcf2021
 510 305 512 307 515 307 c 0
 518 307 521 305 521 302 c 0
 521 299 518 296 515 296 c 0
 512 296 510 299 510 302 c 0xcf2021
514 318 m 0xcf202080
 514 321 517 323 520 323 c 0
 523 323 525 321 525 318 c 0
 525 315 523 312 520 312 c 0
 517 312 514 315 514 318 c 0xcf202080
503 329 m 0xcf2022
 503 332 505 334 508 334 c 0
 511 334 514 332 514 329 c 0
 514 326 511 324 508 324 c 0
 505 324 503 326 503 329 c 0xcf2022
82 302 m 0
 82 299 80 296 77 296 c 0
 74 296 71 299 71 302 c 0
 71 305 74 307 77 307 c 0
 80 307 82 305 82 302 c 0
78 318 m 0xcf2420
 78 315 75 312 72 312 c 0
 69 312 67 315 67 318 c 0
 67 321 69 323 72 323 c 0
 75 323 78 321 78 318 c 0xcf2420
89 329 m 0xcf2220
 89 326 87 324 84 324 c 0
 81 324 78 326 78 329 c 0
 78 332 81 334 84 334 c 0
 87 334 89 332 89 329 c 0xcf2220
EndSplineSet
Validated: 1
Layer: 2
SplineSet
89.0527 329.112 m 128,-1,1
 89.0527 323.747 89.0527 323.747 83.6875 323.747 c 128,-1,2
 78.3213 323.747 78.3213 323.747 78.3213 329.112 c 128,-1,3
 78.3213 334.479 78.3213 334.479 83.6875 334.479 c 128,-1,0
 89.0527 334.479 89.0527 334.479 89.0527 329.112 c 128,-1,1
77.6523 317.662 m 128,-1,5
 77.6523 312.297 77.6523 312.297 72.2871 312.297 c 128,-1,6
 66.9219 312.297 66.9219 312.297 66.9219 317.662 c 128,-1,7
 66.9219 323.028 66.9219 323.028 72.2871 323.028 c 128,-1,4
 77.6523 323.028 77.6523 323.028 77.6523 317.662 c 128,-1,5
82.1523 301.763 m 128,-1,9
 82.1523 296.396 82.1523 296.396 76.7871 296.396 c 128,-1,10
 71.4219 296.396 71.4219 296.396 71.4219 301.763 c 128,-1,11
 71.4219 307.128 71.4219 307.128 76.7871 307.128 c 128,-1,8
 82.1523 307.128 82.1523 307.128 82.1523 301.763 c 128,-1,9
502.922 329.112 m 132,-1,13
 502.922 334.479 502.922 334.479 508.287 334.479 c 128,-1,14
 513.653 334.479 513.653 334.479 513.653 329.112 c 128,-1,15
 513.653 323.747 513.653 323.747 508.287 323.747 c 128,-1,12
 502.922 323.747 502.922 323.747 502.922 329.112 c 132,-1,13
514.322 317.662 m 132,-1,17
 514.322 323.028 514.322 323.028 519.688 323.028 c 128,-1,18
 525.053 323.028 525.053 323.028 525.053 317.662 c 128,-1,19
 525.053 312.297 525.053 312.297 519.688 312.297 c 128,-1,16
 514.322 312.297 514.322 312.297 514.322 317.662 c 132,-1,17
509.822 301.763 m 132,-1,21
 509.822 307.128 509.822 307.128 515.188 307.128 c 128,-1,22
 520.553 307.128 520.553 307.128 520.553 301.763 c 128,-1,23
 520.553 296.396 520.553 296.396 515.188 296.396 c 128,-1,20
 509.822 296.396 509.822 296.396 509.822 301.763 c 132,-1,21
258 471 m 1,24,25
 222 440 222 440 165 461 c 0,26,27
 136 472 136 472 121.5 491.5 c 128,-1,28
 107 511 107 511 107.5 524.5 c 2,29,-1
 108 538 l 1,30,-1
 82 538 l 1,31,-1
 82 550 l 1,32,-1
 185 550 l 1,33,-1
 185 538 l 1,34,-1
 159 538 l 1,35,36
 160 537 160 537 159 532 c 128,-1,37
 158 527 158 527 160 518.5 c 128,-1,38
 162 510 162 510 165.5 501 c 128,-1,39
 169 492 169 492 178 485 c 128,-1,40
 187 478 187 478 200 475 c 0,41,42
 237 467 237 467 258 486 c 1,43,-1
 258 538 l 1,44,-1
 232 538 l 1,45,-1
 232 550 l 1,46,-1
 360 550 l 1,47,-1
 360 538 l 1,48,-1
 334 538 l 1,49,-1
 334 486 l 1,50,51
 355 467 355 467 392 475 c 0,52,53
 412 479 412 479 422.5 495 c 128,-1,54
 433 511 433 511 433 524.5 c 2,55,-1
 433 538 l 1,56,-1
 407 538 l 1,57,-1
 407 550 l 1,58,-1
 510 550 l 1,59,-1
 510 538 l 1,60,-1
 484 538 l 1,61,62
 484 536 484 536 484.5 532.5 c 128,-1,63
 485 529 485 529 483 518.5 c 128,-1,64
 481 508 481 508 476 499 c 128,-1,65
 471 490 471 490 458 479 c 128,-1,66
 445 468 445 468 427 461 c 0,67,68
 370 440 370 440 334 471 c 1,69,-1
 334 353 l 1,70,71
 388 344 388 344 436 289 c 1,72,73
 453 308 453 308 465 333 c 128,-1,74
 477 358 477 358 475 373 c 1,75,-1
 471 387 l 1,76,77
 482 388 482 388 488 370 c 1,78,-1
 489 352 l 1,79,80
 493 357 493 357 498.5 365.5 c 128,-1,81
 504 374 504 374 511 394 c 128,-1,82
 518 414 518 414 514 427 c 0,83,84
 510 439 510 439 499 445 c 128,-1,85
 488 451 488 451 476 448 c 0,86,87
 459 444 459 444 456 427 c 0,88,89
 454 418 454 418 456 411.5 c 128,-1,90
 458 405 458 405 460 404.5 c 128,-1,91
 462 404 462 404 459 403 c 1,92,93
 449 404 449 404 446.5 417 c 128,-1,94
 444 430 444 430 448 440 c 0,95,96
 454 453 454 453 473.5 457 c 128,-1,97
 493 461 493 461 507 453 c 0,98,99
 524 442 524 442 528 416 c 0,100,101
 531 398 531 398 515 369.5 c 128,-1,102
 499 341 499 341 482 321.5 c 2,103,-1
 465 302 l 1,104,105
 465 302 465 302 492.702 315.201 c 1,106,107
 503.731 318.539 503.731 318.539 506 314 c 0,108,109
 507 312 507 312 504 310 c 128,-1,110
 501 308 501 308 494.5 306 c 128,-1,111
 488 304 488 304 480.5 301 c 128,-1,112
 473 298 473 298 464.5 294 c 128,-1,113
 456 290 456 290 451 285 c 128,-1,114
 446 280 446 280 445 278 c 1,115,-1
 455 265 l 1,116,117
 484 282 484 282 517 286 c 0,118,119
 582 295 582 295 588 253 c 0,120,121
 590.391 236.266 590.391 236.266 571.152 227.665 c 0,122,123
 553.261 219.666 553.261 219.666 549 236 c 0,124,125
 546 248 546 248 551.5 253.5 c 128,-1,126
 557 259 557 259 564.5 258.5 c 2,127,-1
 572 258 l 1,128,129
 564 285 564 285 506 276 c 1,130,131
 484 271 484 271 460 256 c 1,132,133
 466 245 466 245 466 245 c 1,134,135
 468 246 468 246 471 248 c 128,-1,136
 474 250 474 250 475 250 c 0,137,138
 495.141 263.033 495.141 263.033 513.422 258.679 c 0,139,140
 517.084 257.807 517.084 257.807 516 256 c 0,141,142
 514 253 514 253 508.5 251.5 c 128,-1,143
 503 250 503 250 493.5 248 c 128,-1,144
 484 246 484 246 477 242 c 0,145,146
 473 239 473 239 470 237 c 1,147,148
 476 225 476 225 476 225 c 1,149,-1
 477 225.5 l 2,150,151
 478 226 478 226 479 226 c 0,152,153
 490 232 490 232 499.5 233 c 128,-1,154
 509 234 509 234 510 230 c 0,155,156
 510 227 510 227 508 226.5 c 128,-1,157
 506 226 506 226 498.5 224.5 c 128,-1,158
 491 223 491 223 483 218 c 0,159,160
 482 217 482 217 480 216 c 1,161,-1
 484 205 l 2,162,163
 497 171 497 171 499.5 131.5 c 128,-1,164
 502 92 502 92 505 84 c 0,165,166
 509 72 509 72 516.5 62.5 c 128,-1,167
 524 53 524 53 529 49.5 c 2,168,-1
 534 46 l 1,169,170
 524 44 524 44 515 50 c 1,171,-1
 501 62 l 1,172,173
 502 29 502 29 518 20 c 1,174,175
 533 10 533 10 552.5 16 c 128,-1,176
 572 22 572 22 572 42 c 1,177,178
 571 43 571 43 567 42 c 128,-1,179
 563 41 563 41 558 46 c 128,-1,180
 553 51 553 51 552 62 c 0,181,182
 551 70 551 70 560.5 74.5 c 128,-1,183
 570 79 570 79 580.5 75.5 c 128,-1,184
 591 72 591 72 593 58 c 0,185,186
 596 36 596 36 581.5 18 c 128,-1,187
 567 0 567 0 544 0 c 0,188,189
 505 0 505 0 474.5 23 c 128,-1,190
 444 46 444 46 439 86 c 0,191,192
 437 106 437 106 435 138 c 128,-1,193
 433 170 433 170 430 194 c 128,-1,194
 427 218 427 218 420 239 c 0,195,196
 408 274 408 274 386.5 297.5 c 128,-1,197
 365 321 365 321 349.5 327.5 c 2,198,-1
 334 334 l 1,199,-1
 334 12 l 1,200,-1
 360 12 l 1,201,-1
 360 0 l 1,202,-1
 232 0 l 1,203,-1
 232 12 l 1,204,-1
 258 12 l 1,205,-1
 258 332 l 1,206,207
 251 330 251 330 240.5 325 c 128,-1,208
 230 320 230 320 207 296 c 128,-1,209
 184 272 184 272 172 237 c 0,210,211
 165 216 165 216 162 192 c 128,-1,212
 159 168 159 168 157 136 c 128,-1,213
 155 104 155 104 153 84 c 0,214,215
 148 44 148 44 117.5 21 c 128,-1,216
 87 -2 87 -2 48 -2 c 0,217,218
 25 -2 25 -2 10.5 16 c 128,-1,219
 -4 34 -4 34 -1 56 c 0,220,221
 1 70 1 70 11.5 73.5 c 128,-1,222
 22 77 22 77 31.5 72.5 c 128,-1,223
 41 68 41 68 40 60 c 0,224,225
 39 49 39 49 34 44 c 128,-1,226
 29 39 29 39 24.5 39.5 c 2,227,-1
 20 40 l 1,228,229
 20 20 20 20 39.5 14 c 128,-1,230
 59 8 59 8 74 18 c 0,231,232
 81 22 81 22 85.5 32.5 c 128,-1,233
 90 43 90 43 90.5 51.5 c 2,234,-1
 91 60 l 1,235,236
 84 53 84 53 77 48 c 0,237,238
 73 45 73 45 68.5 44 c 128,-1,239
 64 43 64 43 61 43.5 c 2,240,-1
 58 44 l 1,241,242
 78 56 78 56 87 82 c 0,243,244
 90 90 90 90 92.5 129.5 c 128,-1,245
 95 169 95 169 108 203 c 2,246,-1
 112 214 l 1,247,-1
 109 216 l 2,248,249
 104 220 104 220 99 221.5 c 128,-1,250
 94 223 94 223 91 223.5 c 128,-1,251
 88 224 88 224 85.5 224 c 128,-1,252
 83 224 83 224 82.5 225 c 128,-1,253
 82 226 82 226 82 228 c 0,254,255
 83 232 83 232 92.5 231 c 128,-1,256
 102 230 102 230 113 224 c 0,257,258
 114 224 114 224 114.5 223.5 c 2,259,-1
 116 223 l 1,260,261
 116 223 116 223 122 235 c 1,262,-1
 115 240 l 2,263,264
 108 244 108 244 98.5 246 c 128,-1,265
 89 248 89 248 83.5 249.5 c 128,-1,266
 78 251 78 251 76 254 c 0,267,268
 74.9159 255.807 74.9159 255.807 78.5785 256.679 c 0,269,270
 96.8586 261.033 96.8586 261.033 117 248 c 0,271,272
 118 248 118 248 121 246 c 128,-1,273
 124 244 124 244 126 243 c 1,274,275
 126 243 126 243 132 254 c 1,276,277
 108 269 108 269 86 274 c 1,278,279
 28 283 28 283 20 256 c 1,280,281
 21 255 21 255 27.5 256 c 128,-1,282
 34 257 34 257 40 251.5 c 128,-1,283
 46 246 46 246 43 234 c 0,284,285
 38.4558 216.581 38.4558 216.581 19.4062 226.357 c 0,286,287
 1.77238 235.407 1.77238 235.407 4 251 c 0,288,289
 10 293 10 293 75 284 c 0,290,291
 108 280 108 280 137 263 c 1,292,293
 143 272 143 272 147 276 c 1,294,295
 145 279 145 279 141 283 c 0,296,297
 136 288 136 288 127.5 292 c 128,-1,298
 119 296 119 296 111.5 299 c 128,-1,299
 104 302 104 302 97.5 304 c 128,-1,300
 91 306 91 306 88 308 c 128,-1,301
 85 310 85 310 86 312 c 0,302,303
 90 316 90 316 99 313.5 c 128,-1,304
 108 311 108 311 117.5 305.5 c 2,305,-1
 127 300 l 1,306,307
 119 308 119 308 108 321.5 c 128,-1,308
 97 335 97 335 79 365.5 c 128,-1,309
 61 396 61 396 64 414 c 0,310,311
 68 440 68 440 84 451 c 1,312,313
 98 459 98 459 117.5 455 c 128,-1,314
 137 451 137 451 143 438 c 0,315,316
 148 428 148 428 145.5 415 c 128,-1,317
 143 402 143 402 133 401 c 0,318,319
 131 401 131 401 132 402.5 c 128,-1,320
 133 404 133 404 136 409.5 c 128,-1,321
 139 415 139 415 136 425 c 1,322,323
 133 442 133 442 116 446 c 0,324,325
 104 449 104 449 93 443 c 128,-1,326
 82 437 82 437 78 425 c 0,327,328
 74 412 74 412 80 393.5 c 128,-1,329
 86 375 86 375 94.5 362.5 c 2,330,-1
 103 350 l 1,331,332
 101 357 101 357 104 368 c 0,333,334
 107 376 107 376 111 380 c 128,-1,335
 115 384 115 384 118 384.5 c 2,336,-1
 121 385 l 1,337,338
 118 380 118 380 117 371 c 0,339,340
 115 356 115 356 127 331 c 128,-1,341
 139 306 139 306 156 287 c 1,342,343
 177 311 177 311 202.5 327 c 128,-1,344
 228 343 228 343 243 347 c 2,345,-1
 258 351 l 1,346,-1
 258 471 l 1,24,25
EndSplineSet
Substitution2: "'ss01' Style Set Simple Forms-1" uni0416.simple
Colour: ff00
EndChar

StartChar: uni0417
Encoding: 1047 1047 25
Width: 480
Flags: W
HStem: -90 18<18.0634 38> -4 9<268.123 313.242> 48 9<280.14 309.497> 57 27<98.6576 171.5> 121 10<250.002 260.999> 133 11<243.023 253.966> 138 15<278.327 304.985> 146 11<248.034 258.977> 162 12<239.985 290.572> 191 26<231.051 252.931> 235 66<193.028 254.889> 322 26<231.051 252.931> 365 12<239.985 290.572> 382 11<248.034 258.977> 386 15<278.327 304.985> 395 11<243.172 253.749> 408 10<250.002 260.999> 427 12<52 78 154 180> 482 9<280.14 309.497> 529 21<204.111 314.923>
VStem: -6 14<-59.7527 -12.4207> 36 43<-71.6383 -42.0073> 36 4<-20.9942 -13.5938> 78 76<439 499.364> 191 65<272 299.084> 219 12<182.242 194 345 356.758> 243 11<133.023 143.966 395.046 405.988> 248 11<121.503 130.497 146.023 156.966 382.034 392.977 408.503 417.497> 261 8<68.7036 100.41 438.59 470.296> 287 8<93.206 120.094 418.906 445.794> 315 9<62.5723 87.0136 451.05 469.35> 317 13<160.887 187 194.183 212.804 327.296 344.817 352 378.113> 384 62<329.304 477.922> 391 73<57.3992 197.871>
AnchorPoint: "Yerok" 417 568 basechar 0
AnchorPoint: "Diacritic" 257 575 basechar 0
LayerCount: 3
Fore
SplineSet
261 413 m 0xc8f8f88c
 261 410 259 408 256 408 c 0
 253 408 250 410 250 413 c 0
 250 416 253 418 256 418 c 0
 259 418 261 416 261 413 c 0xc8f8f88c
254 402 m 0xc8f9f82c
 254 399 251 395 248 395 c 0xc8f9f81c
 245 395 243 399 243 402 c 0xc8f9f82c
 243 405 245 406 248 406 c 0xc8f9f81c
 251 406 254 405 254 402 c 0xc8f9f82c
259 388 m 0
 259 385 257 382 254 382 c 0xc8fcf82c
 251 382 248 385 248 388 c 0xc8fcf81c
 248 391 251 393 254 393 c 0xc8fcf82c
 257 393 259 391 259 388 c 0
296 491 m 0
 313 491 324 478 324 462 c 0xc8f9f80e
 324 457 322 452 317 451 c 0xc8f9f80d
 312 450 322 456 315 470 c 0xc8f9f80e
 311 479 304 482 295 482 c 0
 280 482 269 471 269 456 c 0
 269 433 289 415 289 415 c 1
 289 415 287 420 287 430 c 0
 287 446 295 446 295 446 c 1
 295 434 l 1
 295 411 319 402 326 377 c 0
 328 369 330 363 330 356 c 0
 330 347 323 327 322 324 c 1
 320 338 299 365 265 365 c 0
 248 365 231 359 231 345 c 1
 231 345 236 348 242 348 c 0
 248 348 253 345 253 333 c 0
 253 325 247 322 241 322 c 0
 229 322 219 329 219 342 c 0
 219 366 243 377 266 377 c 0
 285 377 305 367 316 352 c 1
 316 355 317 357 317 360 c 0
 317 370 313 379 301 386 c 0
 281 399 262 390 262 397 c 0
 262 400 266 401 271 401 c 0xc8faf84d
 284 401 305 395 305 395 c 2xc8f9f84d
 304 396 261 419 261 455 c 0
 261 476 275 491 296 491 c 0
261 126 m 0
 261 123 259 121 256 121 c 0
 253 121 250 123 250 126 c 0
 250 129 253 131 256 131 c 0xc8f8f88c
 259 131 261 129 261 126 c 0
254 138 m 0xcaf8f82c
 254 135 251 133 248 133 c 0xccf8f81c
 245 133 243 135 243 138 c 0xcaf8f82c
 243 141 245 144 248 144 c 0xccf8f81c
 251 144 254 141 254 138 c 0xcaf8f82c
259 151 m 0
 259 148 257 146 254 146 c 0xc9f8f82c
 251 146 248 148 248 151 c 0xc9f8f81c
 248 154 251 157 254 157 c 0xc9f8f82c
 257 157 259 154 259 151 c 0
224 301 m 0
 240 301 256 289 256 272 c 1
 280 278 326 280 359 322 c 0
 376 343 384 373 384 402 c 0
 384 465 345 529 265 529 c 0
 193 529 154 499 154 439 c 1
 180 439 l 1
 180 427 l 1
 52 427 l 1
 52 439 l 1
 78 439 l 1
 78 481 99 550 265 550 c 0
 345 550 446 535 446 427 c 0xd8f8f98c80
 446 335 414 303 358 277 c 0
 352 274 346 272 340 270 c 1
 409 254 464 196 464 124 c 0
 464 23 358 -4 277 -4 c 0
 239 -4 207 2 194 9 c 0
 153 32 147 57 124 57 c 0
 113 57 99 52 76 39 c 0
 50 25 40 -21 40 -21 c 1
 40 -21 36 -13 36 -3 c 0
 36 4 40 16 40 16 c 1xd8f8fa0c40
 40 16 23 2 14 -14 c 0
 10 -20 8 -28 8 -36 c 0
 8 -54 18 -72 38 -72 c 1
 38 -72 36 -67 36 -61 c 0
 36 -52 40 -42 58 -42 c 0
 71 -42 79 -48 79 -61 c 0
 79 -74 66 -90 43 -90 c 0
 17 -90 -6 -69 -6 -40 c 0
 -6 9 38 40 70 57 c 0
 100 73 128 84 155 84 c 0
 188 84 220 67 256 19 c 0
 264 9 276 5 289 5 c 0
 301 5 314 9 325 13 c 0
 370 31 391 75 391 121 c 0
 391 174 362 230 308 252 c 0
 286 261 268 264 257 264 c 1
 255 248 241 235 224 235 c 0
 205 235 191 250 191 268 c 0xd8f8fc8c40
 191 287 206 301 224 301 c 0
322 215 m 1
 324 212 330 192 330 183 c 0xcaf8f84d
 330 176 328 170 326 162 c 0
 319 137 295 128 295 105 c 1
 295 93 l 1
 295 93 287 93 287 109 c 0
 287 119 289 124 289 124 c 1
 289 124 269 106 269 83 c 0
 269 68 280 57 295 57 c 0
 304 57 311 60 315 69 c 0xeaf8f80e
 322 83 312 89 317 88 c 0xeaf8f80d
 322 87 324 82 324 77 c 0
 324 61 313 48 296 48 c 0xeaf8f80e
 275 48 261 63 261 84 c 0
 261 120 304 143 305 144 c 2xdcf8f80e
 305 144 284 138 271 138 c 0
 266 138 262 139 262 142 c 0
 262 149 281 140 301 153 c 0
 313 160 317 169 317 179 c 0
 317 182 316 184 316 187 c 1
 305 172 285 162 266 162 c 0
 243 162 219 173 219 197 c 0
 219 210 229 217 241 217 c 0
 247 217 253 214 253 206 c 0
 253 194 248 191 242 191 c 0
 236 191 231 194 231 194 c 1xcaf8f84d
 231 180 248 174 265 174 c 0
 299 174 320 201 322 215 c 1
EndSplineSet
Validated: 1
Layer: 2
SplineSet
261.078 413.112 m 128,-1,1
 261.078 407.747 261.078 407.747 255.713 407.747 c 128,-1,2
 250.347 407.747 250.347 407.747 250.347 413.112 c 128,-1,3
 250.347 418.479 250.347 418.479 255.713 418.479 c 128,-1,0
 261.078 418.479 261.078 418.479 261.078 413.112 c 128,-1,1
253.678 400.662 m 128,-1,5
 253.678 395.297 253.678 395.297 248.312 395.297 c 128,-1,6
 242.947 395.297 242.947 395.297 242.947 400.662 c 128,-1,7
 242.947 406.028 242.947 406.028 248.312 406.028 c 128,-1,4
 253.678 406.028 253.678 406.028 253.678 400.662 c 128,-1,5
259.178 387.763 m 128,-1,9
 259.178 382.396 259.178 382.396 253.812 382.396 c 128,-1,10
 248.447 382.396 248.447 382.396 248.447 387.763 c 128,-1,11
 248.447 393.128 248.447 393.128 253.812 393.128 c 128,-1,8
 259.178 393.128 259.178 393.128 259.178 387.763 c 128,-1,9
328 342 m 1,12,-1
 322 324 l 1,13,14
 318 349 318 349 285 362 c 0,15,16
 271 368 271 368 251 363.5 c 128,-1,17
 231 359 231 359 231 345 c 1,18,19
 253 357 253 357 253 333 c 0,20,21
 253 319.013 253 319.013 236.75 321.906 c 128,-1,22
 220.531 324.794 220.531 324.794 219 338 c 0,23,24
 217 357 217 357 231 366.5 c 128,-1,25
 245 376 245 376 266 377 c 1,26,27
 298 377 298 377 316 352 c 1,28,29
 320 375 320 375 301 386 c 0,30,31
 295 390 295 390 288.5 391.5 c 128,-1,32
 282 393 282 393 277.5 393.5 c 128,-1,33
 273 394 273 394 269 394 c 128,-1,34
 265 394 265 394 263.5 395 c 128,-1,35
 262 396 262 396 262 398 c 0,36,37
 263 402 263 402 280 401 c 1,38,-1
 305 395 l 1,39,40
 265 416 265 416 261 448 c 0,41,42
 258 469 258 469 269 480 c 0,43,44
 278 490 278 490 294 490.5 c 128,-1,45
 310 491 310 491 317 482 c 0,46,47
 323 473 323 473 323.5 463.5 c 128,-1,48
 324 454 324 454 317 451 c 0,49,50
 315 451 315 451 315.5 452.5 c 128,-1,51
 316 454 316 454 317.5 458.5 c 128,-1,52
 319 463 319 463 315 470 c 1,53,54
 310 482 310 482 295 482 c 0,55,56
 284 482 284 482 276.5 475 c 128,-1,57
 269 468 269 468 269 458 c 0,58,59
 269 447 269 447 274 436.5 c 128,-1,60
 279 426 279 426 284 420.5 c 2,61,-1
 289 415 l 1,62,63
 287 430 l 1,64,65
 288 437 288 437 290 441 c 128,-1,66
 292 445 292 445 293.5 445.5 c 2,67,-1
 295 446 l 1,68,-1
 295 434 l 1,69,70
 296 422 296 422 309.5 405 c 128,-1,71
 323 388 323 388 326 377 c 0,72,73
 331 358 331 358 328 342 c 1,12,-1
261.078 125.888 m 132,-1,75
 261.078 120.521 261.078 120.521 255.713 120.521 c 128,-1,76
 250.347 120.521 250.347 120.521 250.347 125.888 c 128,-1,77
 250.347 131.253 250.347 131.253 255.713 131.253 c 128,-1,74
 261.078 131.253 261.078 131.253 261.078 125.888 c 132,-1,75
253.678 138.338 m 132,-1,79
 253.678 132.972 253.678 132.972 248.312 132.972 c 128,-1,80
 242.947 132.972 242.947 132.972 242.947 138.338 c 128,-1,81
 242.947 143.703 242.947 143.703 248.312 143.703 c 128,-1,78
 253.678 143.703 253.678 143.703 253.678 138.338 c 132,-1,79
259.178 151.237 m 132,-1,83
 259.178 145.872 259.178 145.872 253.812 145.872 c 128,-1,84
 248.447 145.872 248.447 145.872 248.447 151.237 c 128,-1,85
 248.447 156.604 248.447 156.604 253.812 156.604 c 128,-1,82
 259.178 156.604 259.178 156.604 259.178 151.237 c 132,-1,83
464 124 m 0,86,87
 464 72 464 72 427.5 40.5 c 128,-1,88
 391 9 391 9 343 2 c 128,-1,89
 295 -5 295 -5 253 -2.5 c 128,-1,90
 211 -0 211 -0 194 9 c 0,91,92
 177 19 177 19 161.5 33 c 128,-1,93
 146 47 146 47 139.5 52.5 c 128,-1,94
 133 58 133 58 117.5 56 c 128,-1,95
 102 54 102 54 76 39 c 0,96,97
 64 33 64 33 55 18 c 128,-1,98
 46 3 46 3 43 -9 c 2,99,-1
 40 -21 l 1,100,101
 36 -13 36 -13 36 -3 c 1,102,-1
 40 16 l 1,103,104
 23 2 23 2 14 -14 c 1,105,106
 4 -29 4 -29 11 -50.5 c 128,-1,107
 18 -72 18 -72 38 -72 c 1,108,109
 38 -71 38 -71 37 -68.5 c 128,-1,110
 36 -66 36 -66 36 -60 c 128,-1,111
 36 -54 36 -54 38.5 -50 c 128,-1,112
 41 -46 41 -46 47.5 -43.5 c 128,-1,113
 54 -41 54 -41 65 -42 c 0,114,115
 75 -43 75 -43 78.5 -53 c 128,-1,116
 82 -63 82 -63 75 -74.5 c 128,-1,117
 68 -86 68 -86 52 -89 c 0,118,119
 30 -94 30 -94 12 -79 c 128,-1,120
 -6 -64 -6 -64 -6 -40 c 0,121,122
 -6 17 -6 17 70 57 c 0,123,124
 109 77 109 77 135 82.5 c 128,-1,125
 161 88 161 88 193 74 c 128,-1,126
 225 60 225 60 256 19 c 0,127,128
 276 -7 276 -7 325 13 c 0,129,130
 372 32 372 32 386.5 82.5 c 128,-1,131
 401 133 401 133 378.5 183 c 128,-1,132
 356 233 356 233 308 252 c 0,133,134
 279 264 279 264 257 264 c 1,135,136
 255 251 255 251 247 244 c 0,137,138
 237 235 237 235 223 235 c 128,-1,139
 209 235 209 235 200 245 c 128,-1,140
 191 255 191 255 191 269 c 128,-1,141
 191 283 191 283 201 292 c 128,-1,142
 211 301 211 301 225 301 c 128,-1,143
 239 301 239 301 248 291 c 0,144,145
 256 283 256 283 256 272 c 1,146,147
 259 273 259 273 272 275.5 c 128,-1,148
 285 278 285 278 293.5 280.5 c 128,-1,149
 302 283 302 283 314.5 288 c 128,-1,150
 327 293 327 293 338.5 301.5 c 128,-1,151
 350 310 350 310 359 322 c 0,152,153
 379 347 379 347 383 382.5 c 128,-1,154
 387 418 387 418 376.5 450.5 c 128,-1,155
 366 483 366 483 336.5 506 c 128,-1,156
 307 529 307 529 265 529 c 0,157,158
 154 529 154 529 154 439 c 1,159,-1
 180 439 l 1,160,-1
 180 427 l 1,161,-1
 52 427 l 1,162,-1
 52 439 l 1,163,-1
 78 439 l 1,164,165
 78 550 78 550 265 550 c 0,166,167
 446 550 446 550 446 427 c 0,168,169
 446 362 446 362 425 330 c 128,-1,170
 404 298 404 298 358 277 c 0,171,172
 352 274 352 274 340 270 c 1,173,174
 393 258 393 258 428.5 217.5 c 128,-1,175
 464 177 464 177 464 124 c 0,86,87
328 197 m 4,176,177
 331 181 331 181 326 162 c 0,178,179
 323 151 323 151 309.5 134 c 128,-1,180
 296 117 296 117 295 105 c 1,181,-1
 295 93 l 1,182,183
 288 93 288 93 287 109 c 1,184,-1
 289 124 l 1,185,186
 287 122 287 122 283.5 118 c 128,-1,187
 280 114 280 114 274.5 103 c 128,-1,188
 269 92 269 92 269 81 c 0,189,190
 269 71 269 71 276.5 64 c 128,-1,191
 284 57 284 57 295 57 c 0,192,193
 310 57 310 57 315 69 c 1,194,195
 319.831 76.5158 319.831 76.5158 317 88 c 1,196,197
 324 85 324 85 323.5 75.5 c 128,-1,198
 323 66 323 66 317 57 c 0,199,200
 310 48 310 48 294 48.5 c 128,-1,201
 278 49 278 49 269 59 c 0,202,203
 258 70 258 70 261 91 c 0,204,205
 263 105 263 105 274 118.5 c 128,-1,206
 285 132 285 132 295 138 c 2,207,-1
 305 144 l 1,208,209
 289 139 289 139 280 138 c 0,210,211
 263 137 263 137 262 141 c 0,212,213
 262 143 262 143 263.5 144 c 128,-1,214
 265 145 265 145 269 145 c 128,-1,215
 273 145 273 145 277.5 145.5 c 128,-1,216
 282 146 282 146 288.5 147.5 c 128,-1,217
 295 149 295 149 301 153 c 0,218,219
 320 164 320 164 316 187 c 1,220,221
 298 162 298 162 266 162 c 1,222,223
 245 163 245 163 231 172.5 c 128,-1,224
 217 182 217 182 219 201 c 0,225,226
 220.531 214.206 220.531 214.206 236.75 217.094 c 128,-1,227
 253 219.987 253 219.987 253 206 c 0,228,229
 253 195 253 195 247.5 192 c 128,-1,230
 242 189 242 189 236.5 191.5 c 2,231,-1
 231 194 l 1,232,233
 231 180 231 180 251 175.5 c 128,-1,234
 271 171 271 171 285 177 c 0,235,236
 318 190 318 190 322 215 c 1,237,238
 327 204 327 204 328 197 c 4,176,177
EndSplineSet
Substitution2: "'ss01' Style Set Simple Forms-1" uni0417.simple
Colour: ff00
EndChar

StartChar: uni0414.simple
Encoding: 62740 62740 26
Width: 530
GlyphClass: 2
Flags: W
HStem: 0 12<97.0742 122.649 150 360 436 445> 42 35<72 91.7725> 538 12<334 360 436 462>
VStem: 47 33<-95.125 -59.6195> 47 23<-88.7718 -20.414 24.4746 42> 142 65<54.6736 235.989> 360 76<12 418 422.891 538> 448 33<-95.125 -59.6195> 458 23<-88.7718 -20.414>
AnchorPoint: "Yerok" 400 576.6 basechar 0
AnchorPoint: "Diacritic" 400 576 basechar 0
LayerCount: 3
Fore
SplineSet
207 115 m 0xe6
 207 61 187 29 150 12 c 1
 360 12 l 1
 360 418 l 1
 339 390 283 349 245 281 c 1
 210 216 206 178 206 145 c 0
 206 135 207 125 207 115 c 0xe6
51 52 m 0
 51 69 60 77 71 77 c 0
 82 77 92 70 92 63 c 0
 92 44 79 42 75 42 c 0
 72 42 l 1
 72 23 87 13 103 13 c 0
 111 13 119 15 126 20 c 0
 141 31 143 62 143 62 c 1
 143 62 136 55 129 50 c 0
 120 44 110 46 110 46 c 1
 110 46 130 58 139 84 c 0
 141 90 142 99 142 110 c 0
 142 117 142 126 142 135 c 0
 142 163 144 199 163 236 c 0
 226 359 360 437 360 437 c 1
 360 538 l 1
 334 538 l 1
 334 550 l 1
 462 550 l 1
 462 538 l 1
 436 538 l 1
 436 12 l 1
 526 12 l 1
 475 -23 l 1
 475 -23 481 -28 481 -45 c 0xee80
 481 -51 480 -59 478 -69 c 0
 473 -92 457 -104 451 -104 c 0
 450 -104 448 -103 448 -102 c 0xe7
 448 -99 458 -93 458 -58 c 0
 458 -23 445 0 397 0 c 2
 131 0 l 2
 83 0 70 -23 70 -58 c 0xee80
 70 -93 80 -99 80 -102 c 0xf6
 80 -103 78 -104 77 -104 c 0
 71 -104 55 -92 50 -69 c 0
 48 -59 47 -51 47 -45 c 0xee
 47 -28 53 -23 53 -23 c 2
 0 12 l 1
 69 12 l 1
 57 22 51 36 51 52 c 0
EndSplineSet
Validated: 1
Layer: 2
SplineSet
150 12 m 1,0,-1
 360 12 l 1,1,-1
 360 418 l 1,2,3
 359 417 359 417 313.5 369.5 c 128,-1,4
 268 322 268 322 245 281 c 0,5,6
 220 235 220 235 211.5 197.5 c 128,-1,7
 203 160 203 160 206 139 c 128,-1,8
 209 118 209 118 205 86 c 0,9,10
 198 34 198 34 150 12 c 1,0,-1
436 12 m 1,11,-1
 526 12 l 1,12,-1
 475 -23 l 1,13,14
 476 -24 476 -24 477.5 -27 c 128,-1,15
 479 -30 479 -30 481 -41 c 128,-1,16
 483 -52 483 -52 478 -69 c 0,17,18
 475 -80 475 -80 469 -89.5 c 128,-1,19
 463 -99 463 -99 457.5 -102.5 c 128,-1,20
 452 -106 452 -106 450 -104 c 0,21,22
 447 -100 447 -100 449 -100 c 128,-1,23
 451 -100 451 -100 454.5 -87 c 128,-1,24
 458 -74 458 -74 458 -54 c 0,25,26
 456 0 456 0 397 0 c 2,27,-1
 131 0 l 2,28,29
 72 0 72 0 70 -54 c 0,30,31
 69 -84 69 -84 78.4613 -99.1138 c 0,32,33
 81 -103 81 -103 78 -104 c 1,34,35
 76 -106 76 -106 70.5 -102.5 c 128,-1,36
 65 -99 65 -99 59 -89.5 c 128,-1,37
 53 -80 53 -80 50 -69 c 0,38,39
 46 -51 46 -51 46.5 -41 c 128,-1,40
 47 -31 47 -31 50 -27 c 2,41,-1
 53 -23 l 1,42,-1
 2 12 l 1,43,-1
 69 12 l 1,44,45
 48 30 48 30 51 58 c 0,46,47
 53 72 53 72 63.5 75.5 c 128,-1,48
 74 79 74 79 83.5 74.5 c 128,-1,49
 93 70 93 70 92 62 c 0,50,51
 91 51 91 51 86 46 c 128,-1,52
 81 41 81 41 76.5 41.5 c 2,53,-1
 72 42 l 1,54,55
 72 21 72 21 91 14.5 c 128,-1,56
 110 8 110 8 126 20 c 0,57,58
 133 25 133 25 137 35.5 c 128,-1,59
 141 46 141 46 142 54 c 2,60,-1
 143 62 l 1,61,62
 136 55 136 55 129 50 c 0,63,64
 125 47 125 47 120.5 46 c 128,-1,65
 116 45 116 45 113 45.5 c 2,66,-1
 110 46 l 1,67,68
 130 58 130 58 139 84 c 0,69,70
 140 88 140 88 141.5 142.5 c 128,-1,71
 143 197 143 197 163 236 c 0,72,73
 191 291 191 291 240.5 341 c 128,-1,74
 290 391 290 391 325 414 c 2,75,-1
 360 437 l 1,76,-1
 360 538 l 1,77,-1
 334 538 l 1,78,-1
 334 550 l 1,79,-1
 462 550 l 1,80,-1
 462 538 l 1,81,-1
 436 538 l 1,82,-1
 436 12 l 1,11,-1
EndSplineSet
Colour: ff00
EndChar

StartChar: uni0415.simple
Encoding: 62741 62741 27
Width: 420
GlyphClass: 2
Flags: W
HStem: -5 13<68.7833 216.356> 72 56<22.0088 76.6734> 132 35<356.228 376> 195 14<320.906 366.062> 242 43<250.161 286.326> 309 19<215.517 278.096> 380 21<258.69 288.399> 535 16<197.134 269.587>
VStem: 0 21<35.5096 94.4985> 68 76<269.001 473.536> 121 31<86.5491 135.389> 160 35<47.0598 135.567> 218 65<401.594 463.34> 250 56<22.3705 180.993 244.677 281.857> 287 19<281 300.279> 309 46<410.267 515.06> 376 21<167 188.013>
AnchorPoint: "Yerok" 333.5 575.4 basechar 0
AnchorPoint: "Diacritic" 226 575 basechar 0
LayerCount: 3
Fore
SplineSet
306 277 m 0xffd580
 306 255 288 242 270 242 c 0
 259 242 250 247 250 260 c 0xffd580
 250 280 260 285 270 285 c 0
 278 285 287 281 287 281 c 1xff9380
 287 300 268 309 249 309 c 0
 202 309 182 263 175 238 c 1
 186 204 195 169 195 125 c 0
 195 56 173 31 135 8 c 1
 142 8 148 8 154 8 c 0
 157 8 160 8 163 8 c 0
 190 8 212 9 226 20 c 0
 246 36 250 50 250 67 c 0
 250 81 247 97 247 116 c 0
 247 124 247 132 249 141 c 0
 256 180 299 209 348 209 c 0
 377 209 397 185 397 158 c 0
 397 141 389 132 377 132 c 0
 366 132 356 139 356 146 c 0
 356 165 369 167 373 167 c 0
 376 167 l 1
 376 186 361 195 345 195 c 0
 337 195 329 193 322 189 c 0
 306 180 305 147 305 147 c 1
 305 147 312 154 319 159 c 0
 328 165 338 163 338 163 c 1
 338 163 318 151 309 125 c 0
 307 119 306 114 306 108 c 0
 306 96 309 85 309 71 c 0
 309 63 308 54 304 44 c 0
 289 5 210 -5 143 -5 c 0
 59 -5 0 -4 0 79 c 0
 0 109 21 128 44 128 c 0
 64 128 78 114 78 98 c 0
 78 82 62 72 48 72 c 0
 34 72 22 80 22 80 c 1
 22 80 21 76 21 71 c 0
 21 57 25 31 51 20 c 0
 63 15 75 12 88 12 c 0
 107 12 127 19 143 35 c 0
 156 48 160 67 160 86 c 0
 160 112 152 136 152 136 c 1
 152 136 151 108 133 80 c 0
 122 62 99 47 84 47 c 0
 83 47 l 0
 83 49 121 58 121 115 c 0xffb580
 121 134 117 158 105 189 c 0
 70 282 68 300 68 382 c 0
 68 467 118 545 201 550 c 0
 212 551 222 551 232 551 c 0
 311 551 355 528 355 448 c 0
 355 408 318 380 277 380 c 0
 246 380 218 395 218 426 c 0
 218 449 234 466 251 466 c 0
 269 466 283 456 283 438 c 0xffd980
 283 436 283 433 282 430 c 0
 277 402 258 401 258 401 c 1
 258 401 307 401 309 451 c 0
 309 453 309 455 309 457 c 0
 309 501 287 535 229 535 c 0
 225 535 220 534 215 534 c 0
 160 529 144 433 144 384 c 0
 144 339 155 303 166 267 c 1
 178 301 211 328 255 328 c 0
 285 328 306 303 306 277 c 0xffd580
EndSplineSet
Validated: 1
Layer: 2
SplineSet
175 238 m 1,0,1
 195 176 195 176 195 125 c 0,2,3
 195 82 195 82 184 59.5 c 128,-1,4
 173 37 173 37 150 18 c 0,5,6
 145 14 145 14 135 8 c 1,7,8
 142 8 142 8 161.5 8 c 128,-1,9
 181 8 181 8 189 8.5 c 128,-1,10
 197 9 197 9 208 12 c 128,-1,11
 219 15 219 15 226 20 c 0,12,13
 246 36 246 36 249.5 54.5 c 128,-1,14
 253 73 253 73 248.5 92 c 128,-1,15
 244 111 244 111 249 141 c 0,16,17
 254 170 254 170 282.5 189.5 c 128,-1,18
 311 209 311 209 348 209 c 0,19,20
 371 209 371 209 385.5 191 c 128,-1,21
 400 173 400 173 397 151 c 0,22,23
 395 137 395 137 384.5 133.5 c 128,-1,24
 374 130 374 130 364.5 134.5 c 128,-1,25
 355 139 355 139 356 147 c 0,26,27
 357 158 357 158 362 163 c 128,-1,28
 367 168 367 168 371.5 167.5 c 2,29,-1
 376 167 l 1,30,31
 376 187 376 187 356.5 193 c 128,-1,32
 337 199 337 199 322 189 c 0,33,34
 315 185 315 185 310.5 174.5 c 128,-1,35
 306 164 306 164 305.5 155.5 c 2,36,-1
 305 147 l 1,37,38
 312 154 312 154 319 159 c 0,39,40
 323 162 323 162 327.5 163 c 128,-1,41
 332 164 332 164 335 163.5 c 2,42,-1
 338 163 l 1,43,44
 318 151 318 151 309 125 c 0,45,46
 305 114 305 114 308 87.5 c 128,-1,47
 311 61 311 61 304 44 c 0,48,49
 294 18 294 18 244 5.5 c 128,-1,50
 194 -7 194 -7 145 -5 c 128,-1,51
 96 -3 96 -3 61 0 c 1,52,53
 0 8 0 8 0 79 c 0,54,55
 0 105 0 105 19 119 c 128,-1,56
 38 133 38 133 59 125 c 0,57,58
 74 119 74 119 77.5 104 c 128,-1,59
 81 89 81 89 70 80 c 0,60,61
 60 72 60 72 48 72 c 128,-1,62
 36 72 36 72 29 76 c 2,63,-1
 22 80 l 1,64,65
 23 78 23 78 21.5 68 c 128,-1,66
 20 58 20 58 27.5 42.5 c 128,-1,67
 35 27 35 27 51 20 c 0,68,69
 105 -3 105 -3 143 35 c 0,70,71
 157 49 157 49 159.5 74.5 c 128,-1,72
 162 100 162 100 157 118 c 2,73,-1
 152 136 l 1,74,75
 151 108 151 108 133 80 c 0,76,77
 125 67 125 67 110 57 c 128,-1,78
 95 47 95 47 84 47 c 0,79,80
 82 47 82 47 84 48 c 128,-1,81
 86 49 86 49 91.5 52.5 c 128,-1,82
 97 56 97 56 103 61.5 c 128,-1,83
 109 67 109 67 114 78 c 128,-1,84
 119 89 119 89 121 103 c 128,-1,85
 123 117 123 117 119 139.5 c 128,-1,86
 115 162 115 162 105 189 c 0,87,88
 79 257 79 257 73.5 288 c 128,-1,89
 68 319 68 319 68 382 c 0,90,91
 68 448 68 448 104.5 497 c 128,-1,92
 141 546 141 546 201 550 c 0,93,94
 280 555 280 555 317.5 533.5 c 128,-1,95
 355 512 355 512 355 448 c 0,96,97
 355 412 355 412 321.5 392.5 c 128,-1,98
 288 373 288 373 251 384 c 0,99,100
 235 389 235 389 225 403.5 c 128,-1,101
 215 418 215 418 219 436 c 0,102,103
 228 471 228 471 256 466 c 0,104,105
 287 461 287 461 282 430 c 0,106,107
 280 418 280 418 274 410.5 c 128,-1,108
 268 403 268 403 263 402 c 2,109,-1
 258 401 l 2,110,111
 260 401 260 401 263.5 401.5 c 128,-1,112
 267 402 267 402 275.5 404.5 c 128,-1,113
 284 407 284 407 290.5 411.5 c 128,-1,114
 297 416 297 416 302.5 426.5 c 128,-1,115
 308 437 308 437 309 451 c 0,116,117
 311 492 311 492 288 515 c 128,-1,118
 265 538 265 538 215 534 c 0,119,120
 196 532 196 532 181 515.5 c 128,-1,121
 166 499 166 499 158.5 475 c 128,-1,122
 151 451 151 451 147.5 428 c 128,-1,123
 144 405 144 405 144 384 c 0,124,125
 144 339 144 339 166 267 c 1,126,127
 175 294 175 294 199 311 c 128,-1,128
 223 328 223 328 255 328 c 0,129,130
 279 328 279 328 294 310 c 128,-1,131
 309 292 309 292 306 270 c 0,132,133
 303.258 249.436 303.258 249.436 279.396 243.15 c 0,134,135
 255.769 236.925 255.769 236.925 250.79 254.069 c 0,136,137
 250 256.79 250 256.79 250 260 c 0,138,139
 250 277 250 277 259 282.5 c 128,-1,140
 268 288 268 288 277.5 284.5 c 2,141,-1
 287 281 l 1,142,143
 287 301 287 301 264.5 307 c 128,-1,144
 242 313 242 313 223 304 c 0,145,146
 188 289 188 289 175 238 c 1,0,1
EndSplineSet
Colour: ff00
EndChar

StartChar: uni0416.simple
Encoding: 62742 62742 28
Width: 600
GlyphClass: 2
Flags: W
HStem: 0 14<29.4366 75.3711 232 258 334 360 516.629 562.062> 42 35<20 39.7725 552.228 572> 492 26<98 112.194 479.168 494> 540 10<106.381 137.466 232 258 334 360 454.946 484.435>
VStem: 0 20<20.9871 42> 82 16<516.583 534.427> 258 76<12 359 363.255 388 398 538> 494 16<516.966 533.673> 572 21<20.9871 42>
AnchorPoint: "Yerok" 469.5 577 basechar 0
AnchorPoint: "Diacritic" 300 575 basechar 0
LayerCount: 3
Fore
SplineSet
98 492 m 0
 89 492 82 498 82 511 c 0
 82 531 97 550 119 550 c 0
 162 550 192 535 199 501 c 0
 206 467 195 451 213 427 c 0
 228 407 243 401 258 398 c 1
 258 538 l 1
 232 538 l 1
 232 550 l 1
 360 550 l 1
 360 538 l 1
 334 538 l 1
 334 398 l 1
 349 401 364 407 379 427 c 0
 397 451 386 467 393 501 c 0
 400 535 430 550 473 550 c 0
 495 550 510 531 510 511 c 0
 510 498 503 492 494 492 c 0
 487 492 479 496 479 502 c 0
 479 521 494 518 494 518 c 1
 494 532 482 539 470 539 c 0
 464 539 459 538 454 535 c 0
 442 527 441 503 441 503 c 1
 451 513 457 517 466 515 c 1
 466 515 451 506 444 487 c 0
 437 467 443 451 435 432 c 0
 419 395 367 388 334 388 c 1
 334 378 l 1
 334 378 446 304 484 205 c 0
 507 146 496 109 505 84 c 0
 514 58 534 46 534 46 c 1
 534 46 524 44 515 50 c 0
 508 55 501 62 501 62 c 1
 501 62 502 29 518 20 c 0
 525 16 533 14 541 14 c 0
 557 14 572 23 572 42 c 1
 572 42 571 42 569 42 c 0
 565 42 552 44 552 63 c 0
 552 70 562 77 573 77 c 0
 585 77 593 68 593 51 c 0
 593 24 573 0 544 0 c 0
 495 0 446 31 439 86 c 0
 432 143 436 192 420 239 c 0
 393 317 334 359 334 359 c 1
 334 12 l 1
 360 12 l 1
 360 0 l 1
 232 0 l 1
 232 12 l 1
 258 12 l 1
 258 359 l 1
 258 359 199 317 172 239 c 0
 156 192 160 143 153 86 c 0
 146 31 97 0 48 0 c 0
 19 0 0 24 0 51 c 0
 0 68 7 77 19 77 c 0
 30 77 40 70 40 63 c 0
 40 44 27 42 23 42 c 0
 20 42 l 1
 20 23 35 14 51 14 c 0
 59 14 67 16 74 20 c 0
 90 29 91 62 91 62 c 1
 91 62 84 55 77 50 c 0
 68 44 58 46 58 46 c 1
 58 46 78 58 87 84 c 0
 96 109 85 146 108 205 c 0
 146 304 258 378 258 378 c 1
 258 388 l 1
 225 388 173 395 157 432 c 0
 149 451 155 467 148 487 c 0
 141 506 126 515 126 515 c 1
 139 519 147 505 151 503 c 1
 151 503 149 528 137 536 c 0
 132 539 127 540 121 540 c 0
 109 540 98 532 98 518 c 1
 100 516 109 523 113 502 c 1
 113 496 105 492 98 492 c 0
EndSplineSet
Validated: 1
Layer: 2
SplineSet
334 398 m 1,0,1
 361 403 361 403 379 427 c 0,2,3
 387 438 387 438 389 448 c 128,-1,4
 391 458 391 458 390.5 473 c 128,-1,5
 390 488 390 488 393 501 c 0,6,7
 403 550 403 550 473 550 c 0,8,9
 490 550 490 550 501 536 c 128,-1,10
 512 522 512 522 510 506 c 0,11,12
 509 496 509 496 501 493 c 128,-1,13
 493 490 493 490 486 493.5 c 128,-1,14
 479 497 479 497 479 503 c 0,15,16
 480 511 480 511 483.5 514.5 c 128,-1,17
 487 518 487 518 490.5 518 c 2,18,-1
 494 518 l 1,19,20
 494 533 494 533 479.5 538 c 128,-1,21
 465 543 465 543 454 535 c 0,22,23
 449 531 449 531 445.5 523 c 128,-1,24
 442 515 442 515 441.5 509 c 2,25,-1
 441 503 l 1,26,27
 446 508 446 508 451 512 c 0,28,29
 454 514 454 514 458 515 c 128,-1,30
 462 516 462 516 464 515.5 c 2,31,-1
 466 515 l 1,32,33
 451 506 451 506 444 487 c 0,34,35
 441 477 441 477 440 459.5 c 128,-1,36
 439 442 439 442 435 432 c 0,37,38
 416 388 416 388 334 388 c 1,39,-1
 334 378 l 1,40,41
 339 375 339 375 346.5 369.5 c 128,-1,42
 354 364 354 364 375.5 346 c 128,-1,43
 397 328 397 328 415 309 c 128,-1,44
 433 290 433 290 453 261.5 c 128,-1,45
 473 233 473 233 484 205 c 0,46,47
 497 171 497 171 499.5 131.5 c 128,-1,48
 502 92 502 92 505 84 c 0,49,50
 509 72 509 72 516.5 62.5 c 128,-1,51
 524 53 524 53 529 49.5 c 2,52,-1
 534 46 l 1,53,54
 524 44 524 44 515 50 c 1,55,-1
 501 62 l 1,56,57
 502 29 502 29 518 20 c 1,58,59
 533 10 533 10 552.5 16 c 128,-1,60
 572 22 572 22 572 42 c 1,61,62
 571 43 571 43 567 42 c 128,-1,63
 563 41 563 41 558 46 c 128,-1,64
 553 51 553 51 552 62 c 0,65,66
 551 70 551 70 560.5 74.5 c 128,-1,67
 570 79 570 79 580.5 75.5 c 128,-1,68
 591 72 591 72 593 58 c 0,69,70
 596 36 596 36 581.5 18 c 128,-1,71
 567 0 567 0 544 0 c 0,72,73
 505 0 505 0 474.5 23 c 128,-1,74
 444 46 444 46 439 86 c 0,75,76
 437 106 437 106 435 138 c 128,-1,77
 433 170 433 170 430 194 c 128,-1,78
 427 218 427 218 420 239 c 0,79,80
 408 274 408 274 386.5 304 c 128,-1,81
 365 334 365 334 349.5 346.5 c 2,82,-1
 334 359 l 1,83,-1
 334 12 l 1,84,-1
 360 12 l 1,85,-1
 360 0 l 1,86,-1
 232 0 l 1,87,-1
 232 12 l 1,88,-1
 258 12 l 1,89,-1
 258 359 l 1,90,91
 251 354 251 354 240.5 345 c 128,-1,92
 230 336 230 336 207 305 c 128,-1,93
 184 274 184 274 172 239 c 0,94,95
 165 218 165 218 162 194 c 128,-1,96
 159 170 159 170 157 138 c 128,-1,97
 155 106 155 106 153 86 c 0,98,99
 148 46 148 46 117.5 23 c 128,-1,100
 87 0 87 0 48 0 c 0,101,102
 25 0 25 0 10.5 18 c 128,-1,103
 -4 36 -4 36 -1 58 c 0,104,105
 1 72 1 72 11.5 75.5 c 128,-1,106
 22 79 22 79 31.5 74.5 c 128,-1,107
 41 70 41 70 40 62 c 0,108,109
 39 51 39 51 34 46 c 128,-1,110
 29 41 29 41 24.5 41.5 c 2,111,-1
 20 42 l 1,112,113
 20 22 20 22 39.5 16 c 128,-1,114
 59 10 59 10 74 20 c 0,115,116
 81 24 81 24 85.5 34.5 c 128,-1,117
 90 45 90 45 90.5 53.5 c 2,118,-1
 91 62 l 1,119,120
 84 55 84 55 77 50 c 0,121,122
 73 47 73 47 68.5 46 c 128,-1,123
 64 45 64 45 61 45.5 c 2,124,-1
 58 46 l 1,125,126
 78 58 78 58 87 84 c 0,127,128
 90 92 90 92 92.5 131.5 c 128,-1,129
 95 171 95 171 108 205 c 0,130,131
 125 249 125 249 162.5 292.5 c 128,-1,132
 200 336 200 336 229 357 c 2,133,-1
 258 378 l 1,134,-1
 258 388 l 1,135,136
 176 388 176 388 157 432 c 0,137,138
 153 442 153 442 152 459.5 c 128,-1,139
 151 477 151 477 148 487 c 0,140,141
 145 495 145 495 139.5 502 c 128,-1,142
 134 509 134 509 130 512 c 2,143,-1
 126 515 l 1,144,145
 134 517 134 517 141 512 c 2,146,-1
 151 503 l 1,147,148
 150 527 150 527 138 535 c 0,149,150
 127 543 127 543 112.5 538 c 128,-1,151
 98 533 98 533 98 518 c 1,152,153
 99 517 99 517 101.5 518 c 128,-1,154
 104 519 104 519 108 515 c 128,-1,155
 112 511 112 511 113 503 c 0,156,157
 113 497 113 497 106 493.5 c 128,-1,158
 99 490 99 490 91 493 c 128,-1,159
 83 496 83 496 82 506 c 0,160,161
 80 522 80 522 91 536 c 128,-1,162
 102 550 102 550 119 550 c 0,163,164
 189 550 189 550 199 501 c 0,165,166
 202 488 202 488 201.5 473 c 128,-1,167
 201 458 201 458 203 448 c 128,-1,168
 205 438 205 438 213 427 c 0,169,170
 231 403 231 403 258 398 c 1,171,-1
 258 538 l 1,172,-1
 232 538 l 1,173,-1
 232 550 l 1,174,-1
 360 550 l 1,175,-1
 360 538 l 1,176,-1
 334 538 l 1,177,-1
 334 398 l 1,0,1
EndSplineSet
Colour: ff00
EndChar

StartChar: uni0417.simple
Encoding: 62743 62743 29
Width: 480
GlyphClass: 2
Flags: W
HStem: -90 18<18.0634 38> -4 9<268.123 313.242> 57 27<98.6576 171.5> 235 66<193.028 254.889> 427 12<52 78 154 180> 529 21<204.111 314.923>
VStem: -6 14<-59.7527 -12.4207> 36 43<-71.6383 -42.0073> 36 4<-20.9942 -13.5938> 78 76<439 499.364> 191 65<272 299.084> 384 62<329.304 477.922> 391 73<57.3992 197.871>
AnchorPoint: "Yerok" 418 575 basechar 0
AnchorPoint: "Diacritic" 266 575 basechar 0
LayerCount: 3
Fore
SplineSet
224 301 m 0xff28
 240 301 256 289 256 272 c 1
 280 278 326 280 359 322 c 0
 376 343 384 373 384 402 c 0
 384 465 345 529 265 529 c 0
 193 529 154 499 154 439 c 1
 180 439 l 1
 180 427 l 1
 52 427 l 1
 52 439 l 1
 78 439 l 1
 78 481 99 550 265 550 c 0
 345 550 446 535 446 427 c 0xfe70
 446 335 414 303 358 277 c 0
 352 274 346 272 340 270 c 1
 409 254 464 196 464 124 c 0
 464 23 358 -4 277 -4 c 0
 239 -4 207 2 194 9 c 0
 153 32 147 57 124 57 c 0
 113 57 99 52 76 39 c 0
 50 25 40 -21 40 -21 c 1
 40 -21 36 -13 36 -3 c 0
 36 4 40 16 40 16 c 1xfea8
 40 16 23 2 14 -14 c 0
 10 -20 8 -28 8 -36 c 0
 8 -54 18 -72 38 -72 c 1
 38 -72 36 -67 36 -61 c 0
 36 -52 40 -42 58 -42 c 0
 71 -42 79 -48 79 -61 c 0
 79 -74 66 -90 43 -90 c 0
 17 -90 -6 -69 -6 -40 c 0
 -6 9 38 40 70 57 c 0
 100 73 128 84 155 84 c 0
 188 84 220 67 256 19 c 0
 264 9 276 5 289 5 c 0
 301 5 314 9 325 13 c 0
 370 31 391 75 391 121 c 0
 391 174 362 230 308 252 c 0
 286 261 268 264 257 264 c 1
 255 248 241 235 224 235 c 0
 205 235 191 250 191 268 c 0
 191 287 206 301 224 301 c 0xff28
EndSplineSet
Validated: 1
Layer: 2
SplineSet
256 272 m 1,0,1
 259 273 259 273 272 275.5 c 128,-1,2
 285 278 285 278 293.5 280.5 c 128,-1,3
 302 283 302 283 314.5 288 c 128,-1,4
 327 293 327 293 338.5 301.5 c 128,-1,5
 350 310 350 310 359 322 c 0,6,7
 379 347 379 347 383 382.5 c 128,-1,8
 387 418 387 418 376.5 450.5 c 128,-1,9
 366 483 366 483 336.5 506 c 128,-1,10
 307 529 307 529 265 529 c 0,11,12
 154 529 154 529 154 439 c 1,13,-1
 180 439 l 1,14,-1
 180 427 l 1,15,-1
 52 427 l 1,16,-1
 52 439 l 1,17,-1
 78 439 l 1,18,19
 78 550 78 550 265 550 c 0,20,21
 446 550 446 550 446 427 c 0,22,23
 446 362 446 362 425 330 c 128,-1,24
 404 298 404 298 358 277 c 0,25,26
 352 274 352 274 340 270 c 1,27,28
 393 258 393 258 428.5 217.5 c 128,-1,29
 464 177 464 177 464 124 c 0,30,31
 464 72 464 72 427.5 40.5 c 128,-1,32
 391 9 391 9 343 2 c 128,-1,33
 295 -5 295 -5 253 -2.5 c 128,-1,34
 211 -0 211 -0 194 9 c 0,35,36
 177 19 177 19 161.5 33 c 128,-1,37
 146 47 146 47 139.5 52.5 c 128,-1,38
 133 58 133 58 117.5 56 c 128,-1,39
 102 54 102 54 76 39 c 0,40,41
 64 33 64 33 55 18 c 128,-1,42
 46 3 46 3 43 -9 c 2,43,-1
 40 -21 l 1,44,45
 36 -13 36 -13 36 -3 c 1,46,-1
 40 16 l 1,47,48
 23 2 23 2 14 -14 c 1,49,50
 4 -29 4 -29 11 -50.5 c 128,-1,51
 18 -72 18 -72 38 -72 c 1,52,53
 38 -71 38 -71 37 -68.5 c 128,-1,54
 36 -66 36 -66 36 -60 c 128,-1,55
 36 -54 36 -54 38.5 -50 c 128,-1,56
 41 -46 41 -46 47.5 -43.5 c 128,-1,57
 54 -41 54 -41 65 -42 c 0,58,59
 75 -43 75 -43 78.5 -53 c 128,-1,60
 82 -63 82 -63 75 -74.5 c 128,-1,61
 68 -86 68 -86 52 -89 c 0,62,63
 30 -94 30 -94 12 -79 c 128,-1,64
 -6 -64 -6 -64 -6 -40 c 0,65,66
 -6 17 -6 17 70 57 c 0,67,68
 109 77 109 77 135 82.5 c 128,-1,69
 161 88 161 88 193 74 c 128,-1,70
 225 60 225 60 256 19 c 0,71,72
 276 -7 276 -7 325 13 c 0,73,74
 372 32 372 32 386.5 82.5 c 128,-1,75
 401 133 401 133 378.5 183 c 128,-1,76
 356 233 356 233 308 252 c 0,77,78
 279 264 279 264 257 264 c 1,79,80
 255 251 255 251 247 244 c 0,81,82
 237 235 237 235 223 235 c 128,-1,83
 209 235 209 235 200 245 c 128,-1,84
 191 255 191 255 191 269 c 128,-1,85
 191 283 191 283 201 292 c 128,-1,86
 211 301 211 301 225 301 c 128,-1,87
 239 301 239 301 248 291 c 0,88,89
 256 283 256 283 256 272 c 1,0,1
EndSplineSet
Colour: ff00
EndChar

